<svg width="503" height="418" viewBox="0 0 503 418" fill="none" xmlns="http://www.w3.org/2000/svg">
<path d="M198.339 337.039C199.601 329.921 199.83 322.804 199.945 315.686C200.06 309.946 201.781 301.91 199.601 296.515C198.912 294.908 196.618 295.482 196.962 297.204C197.88 303.288 197.421 309.487 197.421 315.571C197.306 322.574 197.191 329.462 196.044 336.35C195.7 337.842 197.994 338.531 198.339 337.039Z" fill="#D9F6FF"/>
<path d="M244.348 254.384C231.153 266.438 213.025 271.719 196.847 278.492C195.126 279.18 196.159 281.706 197.88 280.902C213.943 273.211 232.071 267.93 245.266 255.302C245.725 254.614 244.807 253.81 244.348 254.384Z" fill="#D9F6FF"/>
<path d="M250.429 259.205C239.3 264.486 227.367 269.537 217.27 276.655C215.549 277.803 217.041 280.443 218.877 279.41C229.662 273.44 241.136 267.701 251.003 260.353C251.806 259.779 251.232 258.746 250.429 259.205Z" fill="#D9F6FF"/>
<path d="M258.805 265.29C249.97 269.767 240.103 273.67 233.218 280.788C232.071 281.936 233.677 284.231 235.054 283.198C242.971 277.229 251.232 271.948 259.493 266.438C260.181 265.979 259.493 264.945 258.805 265.29Z" fill="#D9F6FF"/>
<path d="M272.344 271.948C269.361 274.474 265.804 276.425 262.362 278.262C261.214 278.836 262.247 280.673 263.394 280.099C267.066 278.262 270.508 276.196 273.376 273.096C274.18 272.292 273.147 271.259 272.344 271.948Z" fill="#D9F6FF"/>
<path d="M318.926 250.366C312.386 255.532 309.403 265.864 314.337 272.981C319.041 279.869 328.335 280.558 336.022 280.099C338.661 279.869 338.776 275.851 336.022 275.966C330.629 276.196 324.319 276.081 319.729 272.981C312.501 267.93 314.566 256.91 319.959 251.514C320.647 250.71 319.615 249.792 318.926 250.366Z" fill="#D9F6FF"/>
<path d="M315.37 101.243C313.534 114.56 322.483 122.251 334.416 125.581C336.94 126.269 337.973 122.251 335.449 121.677C324.778 119.152 316.632 113.297 316.861 101.473C316.861 100.555 315.485 100.325 315.37 101.243Z" fill="#D9F6FF"/>
<path d="M169.311 220.059C170.917 229.243 173.212 238.312 175.048 247.496C176.769 255.991 176.539 265.29 179.408 273.441C180.096 275.622 183.309 274.703 182.85 272.522C181.014 263.912 179.866 255.302 177.916 246.693C175.736 237.624 172.982 228.669 170.802 219.6C170.573 218.682 169.081 219.141 169.311 220.059Z" fill="#D9F6FF"/>
<path d="M183.079 242.215C184.915 251.399 185.718 260.927 189.39 269.537C190.193 271.604 193.635 270.685 192.717 268.619C189.16 259.894 187.324 250.71 184.571 241.756C184.341 240.838 182.85 241.297 183.079 242.215Z" fill="#D9F6FF"/>
<path d="M197.88 245.2C199.027 250.711 200.404 256.336 201.666 261.846C202.125 263.568 204.993 263.224 204.879 261.387C204.534 255.532 202.469 250.022 200.863 244.397C200.289 242.445 197.421 243.249 197.88 245.2Z" fill="#D9F6FF"/>
<path d="M213.943 195.378C220.483 212.942 221.516 231.539 225.072 249.792C225.531 252.318 229.432 251.284 228.973 248.759C225.531 230.621 223.81 211.909 216.926 194.689C216.123 192.737 213.255 193.541 213.943 195.378Z" fill="#D9F6FF"/>
<path d="M147.741 247.955C154.395 261.387 159.329 275.392 162.312 290.086C162.771 292.382 166.213 291.349 165.754 289.168C162.886 274.244 156.805 260.239 149.347 247.152C148.658 246.119 147.167 247.037 147.741 247.955Z" fill="#D9F6FF"/>
<path d="M116.532 302.37C124.908 305.928 134.66 305.125 143.61 305.125C156.231 305.125 168.967 305.699 181.587 306.273C184.456 306.387 184.456 301.91 181.587 301.796C169.655 301.336 157.722 301.451 145.79 301.796C136.152 302.14 126.514 303.403 116.991 301.107C116.417 300.992 115.844 302.14 116.532 302.37Z" fill="#D9F6FF"/>
<path d="M58.0169 249.218C58.0169 266.667 57.2137 284.002 55.6074 301.336C54.0011 317.867 53.3127 337.039 45.5107 352.077C44.7075 353.684 46.8876 354.947 47.9202 353.455C52.2801 346.797 54.0011 339.105 55.2632 331.299C56.5253 322.804 57.6727 314.194 58.5906 305.699C60.4264 286.987 61.1148 268.16 60.8853 249.333C60.7706 247.496 58.0169 247.496 58.0169 249.218Z" fill="#D9F6FF"/>
<path d="M71.7851 324.296C68.343 333.824 63.7536 342.779 58.7052 351.503C57.7873 353.11 60.1968 354.488 61.1147 352.996C66.7367 344.156 70.6377 334.857 73.5061 324.87C73.8503 323.607 72.244 323.263 71.7851 324.296Z" fill="#D9F6FF"/>
<path d="M43.7895 165.301C45.8548 176.666 45.0516 188.605 45.74 200.199C46.4285 211.564 47.5758 222.929 48.379 234.294C48.4937 236.246 51.5916 236.246 51.4768 234.294C50.559 222.24 49.4116 210.072 48.379 198.018C47.4611 186.997 47.8053 175.632 45.0517 164.956C44.8222 164.038 43.6748 164.382 43.7895 165.301Z" fill="#D9F6FF"/>
<path d="M24.1697 119.381C27.8412 129.484 31.3981 139.701 34.7254 150.033C35.2991 151.869 38.2822 151.066 37.5938 149.229C34.037 138.897 30.1359 128.795 25.8907 118.693C25.4318 117.659 23.8255 118.348 24.1697 119.381Z" fill="#D9F6FF"/>
<path d="M521.78 331.069C498.374 336.579 474.279 334.857 450.529 333.824C448.922 333.709 448.922 336.235 450.529 336.35C474.508 336.809 498.603 338.531 522.124 332.447C522.927 332.102 522.583 330.839 521.78 331.069Z" fill="#D9F6FF"/>
<path d="M508.47 325.559C487.359 330.266 466.706 321.885 445.595 323.607C443.759 323.722 443.644 326.477 445.595 326.592C456.495 327.051 467.395 327.855 478.295 328.658C488.506 329.462 498.832 329.462 508.814 326.822C509.618 326.592 509.273 325.329 508.47 325.559Z" fill="#D9F6FF"/>
<path d="M465.444 310.52C457.527 311.094 450.07 308.913 442.153 308.339C439.858 308.224 439.973 311.668 442.153 311.783C449.955 312.472 457.872 314.194 465.559 311.898C466.362 311.668 466.362 310.405 465.444 310.52Z" fill="#D9F6FF"/>
<path d="M468.198 297.089C462.805 296.63 457.642 297.318 452.364 298.352C450.758 298.696 451.446 300.992 453.053 300.762C458.101 299.844 463.149 298.926 468.198 298.696C469.345 298.696 469.23 297.204 468.198 297.089Z" fill="#D9F6FF"/>
<path d="M493.095 367.001C485.982 366.771 478.868 366.886 471.869 365.394C470.263 365.049 469.575 367.575 471.181 367.919C478.524 369.297 485.752 368.723 493.095 368.493C494.013 368.379 494.013 367.001 493.095 367.001Z" fill="#D9F6FF"/>
<path d="M467.969 348.633C465.215 347.485 462.461 346.796 459.478 346.567C457.986 346.452 457.986 348.978 459.478 348.978C462.232 348.978 464.871 349.437 467.51 350.24C468.542 350.585 468.886 348.978 467.969 348.633Z" fill="#D9F6FF"/>
<path d="M504.799 308.798C504.454 306.502 506.175 302.599 509.159 303.977C510.077 304.436 510.65 305.469 510.994 306.273C511.912 308.109 512.371 310.291 512.715 312.242C513.404 315.916 513.978 319.589 514.092 323.263C514.207 325.444 517.305 325.444 517.42 323.263C517.878 316.834 517.534 308.569 513.289 303.288C508.929 297.892 501.127 302.484 503.537 309.028C503.881 309.946 504.913 309.602 504.799 308.798Z" fill="#D9F6FF"/>
<path d="M505.258 348.863C510.421 352.996 509.847 361.146 510.306 367.116C510.421 369.182 513.748 369.297 513.633 367.116C513.404 360.343 512.945 351.388 506.29 347.6C505.487 347.141 504.569 348.289 505.258 348.863Z" fill="#D9F6FF"/>
<path d="M476.803 348.748C477.95 354.258 477.836 359.998 479.098 365.509C479.671 368.034 483.343 366.886 482.884 364.475C481.737 358.965 481.392 353.34 479.671 347.944C478.983 346.108 476.459 346.911 476.803 348.748Z" fill="#D9F6FF"/>
<path d="M476.459 305.814C476.688 306.043 476.803 306.158 477.033 306.388C477.836 307.191 479.098 305.928 478.295 305.125C478.065 304.895 477.95 304.78 477.721 304.551C476.918 303.632 475.656 305.01 476.459 305.814Z" fill="#D9F6FF"/>
<path d="M409.453 318.9C411.174 319.474 412.781 320.163 414.272 321.082C414.846 321.311 415.305 320.622 414.731 320.278C413.125 319.36 411.404 318.671 409.683 317.982C409.109 317.752 408.88 318.671 409.453 318.9Z" fill="#D9F6FF"/>
<path d="M389.145 318.212C379.163 317.867 368.263 327.051 363.903 335.432C361.723 339.679 361.379 344.73 361.15 349.322C360.92 354.718 360.805 360.802 362.756 365.968C363.215 367.116 364.133 367.69 365.28 367.46C367.46 367.001 369.066 366.197 370.787 364.705C372.853 362.868 369.755 359.769 367.804 361.72C366.772 362.753 365.624 363.327 364.247 363.442C365.051 363.901 365.969 364.361 366.772 364.935C364.018 357.817 363.789 346.223 366.198 338.875C368.952 330.266 380.196 320.623 389.26 319.704C390.063 319.589 390.063 318.327 389.145 318.212Z" fill="#D9F6FF"/>
<path d="M428.04 327.855C425.516 329.577 420.927 329.118 418.058 329.118C414.502 329.232 410.945 329.118 407.388 329.347C404.978 329.462 404.978 333.136 407.388 333.021C411.863 332.906 416.337 332.676 420.812 332.102C422.877 331.758 428.499 331.414 429.073 328.544C429.188 328.084 428.614 327.51 428.04 327.855Z" fill="#D9F6FF"/>
<path d="M427.696 319.934C422.074 317.179 415.649 318.326 409.568 318.441C407.503 318.441 407.503 321.77 409.568 321.77C415.419 321.656 421.271 320.278 427.123 321.426C427.926 321.541 428.499 320.393 427.696 319.934Z" fill="#D9F6FF"/>
<path d="M418.862 254.958C420.009 263.338 418.632 271.719 417.6 280.099C417.026 284.576 415.534 289.627 417.829 293.76C418.518 294.908 419.894 294.908 420.698 294.104C426.205 289.627 426.893 282.395 426.549 275.851C426.434 273.785 423.451 273.785 423.336 275.851C422.992 281.476 422.419 287.446 418.059 291.464C418.977 291.579 420.009 291.693 420.927 291.808C418.173 288.02 420.468 278.836 420.812 274.244C421.271 267.586 421.73 261.042 420.009 254.499C420.009 253.695 418.747 254.04 418.862 254.958Z" fill="#D9F6FF"/>
<path d="M414.387 156.232C413.125 163.234 413.01 170.352 411.404 177.354C409.683 184.702 406.814 191.475 402.569 197.789C400.274 201.118 405.667 204.217 407.962 201.003C416.223 189.293 420.697 170.467 417.599 156.346C417.255 154.624 414.616 154.51 414.387 156.232Z" fill="#D9F6FF"/>
<path d="M417.599 158.757C417.599 158.642 417.599 158.528 417.599 158.528C417.599 157.724 416.567 157.724 416.337 158.413C414.501 163.119 415.534 168.515 416.452 173.451C418.288 182.865 420.812 193.197 426.319 201.347C428.155 203.988 432.4 202.38 431.597 199.166C430.679 195.263 428.155 192.163 426.434 188.49C424.254 183.668 422.877 178.273 421.271 173.222C420.238 170.122 419.435 167.023 418.861 163.808C418.632 162.431 417.484 159.675 417.484 158.642C417.026 158.642 416.681 158.757 416.222 158.757C416.222 158.872 416.222 158.987 416.337 158.987C416.681 159.561 417.599 159.446 417.599 158.757Z" fill="#D9F6FF"/>
<path d="M404.634 201.692C408.535 202.036 412.551 201.577 416.452 201.577C418.632 201.577 426.09 201.232 427.237 202.61C428.614 204.332 431.253 202.725 431.367 200.888C431.597 196.067 422.762 197.215 420.009 197.444C415.534 197.674 408.076 197.444 404.175 200.199C403.601 200.658 403.831 201.692 404.634 201.692Z" fill="#D9F6FF"/>
<path d="M403.372 208.694C411.633 210.531 419.55 206.972 427.696 210.416C430.45 211.564 432.171 207.087 429.647 205.71C422.304 201.347 410.945 205.365 403.372 207.202C402.684 207.317 402.569 208.465 403.372 208.694Z" fill="#D9F6FF"/>
<path d="M171.605 281.936C177.342 282.395 182.161 278.032 187.095 275.736C194.208 272.293 201.437 268.849 208.435 265.175C222.663 257.828 235.857 247.955 250.658 241.871C255.018 240.034 252.494 233.95 248.134 235.902C234.481 241.986 222.433 251.284 209.353 258.632C202.699 262.305 196.044 265.979 189.504 269.652C186.521 271.374 183.538 272.981 180.669 274.933C177.686 276.999 174.933 279.525 171.376 280.788C170.802 280.902 170.917 281.821 171.605 281.936Z" fill="#D9F6FF"/>
<path d="M249.626 239.69C263.738 244.626 274.065 258.172 284.965 267.815C289.095 271.489 293.684 274.129 298.274 277.114C301.601 279.18 304.929 281.361 308.026 283.772C309.174 284.576 310.092 285.609 311.124 286.527C311.698 287.101 311.927 287.561 312.731 288.02C315.484 289.857 312.042 286.298 312.042 286.068C311.927 288.594 314.681 289.627 316.632 288.709C324.663 284.92 311.124 276.425 308.371 274.588C302.29 270.685 295.52 267.471 289.898 262.879C282.326 256.68 275.097 249.907 267.18 244.167C263.853 241.756 253.527 233.491 249.167 238.197C248.708 238.771 248.937 239.46 249.626 239.69Z" fill="#D9F6FF"/>
<path d="M178.834 282.51C187.898 279.754 197.651 281.362 206.829 282.165C217.729 283.198 228.859 283.313 239.759 284.232C263.28 286.068 287.259 286.987 310.895 286.183C315.714 286.068 315.599 278.262 310.895 278.721C310.321 278.836 309.748 278.836 309.059 278.951C304.47 279.41 304.47 285.609 309.059 286.068C309.633 286.183 310.207 286.183 310.895 286.298C310.895 283.772 310.895 281.247 310.895 278.836C298.503 278.377 285.883 279.18 273.491 279.295C261.214 279.41 248.938 278.951 236.661 278.377C225.876 277.918 215.205 278.147 204.42 277.803C195.7 277.458 186.177 276.999 178.375 281.476C177.686 281.591 178.145 282.739 178.834 282.51Z" fill="#D9F6FF"/>
<path d="M175.048 291.579C179.867 293.76 185.03 293.76 190.193 293.875C196.618 293.989 202.928 294.563 209.239 294.908C223.351 295.596 237.349 296.285 251.347 297.204C264.886 298.122 278.425 298.466 292.078 298.811C302.519 299.04 313.419 301.336 323.631 298.237C328.105 296.974 326.155 289.971 321.68 291.234C311.813 294.219 301.028 291.808 290.931 291.808C277.736 291.923 264.542 291.693 251.347 291.119C238.382 290.66 225.417 290.201 212.452 290.086C206.026 290.086 199.486 289.512 193.061 289.971C187.095 290.316 181.358 290.545 175.392 290.201C174.703 290.201 174.359 291.349 175.048 291.579Z" fill="#D9F6FF"/>
<path d="M318.353 284.002C317.779 286.413 318.238 289.168 317.091 291.464C315.14 295.367 321.451 297.548 322.254 293.645C322.828 290.545 322.943 285.379 320.189 283.313C319.5 282.739 318.583 283.313 318.353 284.002Z" fill="#D9F6FF"/>
<path d="M173.671 283.083C174.245 286.298 172.523 289.512 173.212 292.727C173.671 294.908 177.228 294.908 177.687 292.727C178.146 290.775 177.687 288.479 177.342 286.413C176.998 284.691 176.31 283.083 174.704 282.28C174.13 282.05 173.556 282.509 173.671 283.083Z" fill="#D9F6FF"/>
<path d="M190.422 295.137C190.308 294.908 190.308 294.793 190.193 294.563C189.619 293.989 188.931 293.3 188.357 292.726C187.324 299.844 187.898 307.306 187.669 314.423C187.324 322.689 186.751 330.839 186.521 339.105C186.062 352.192 188.816 366.427 185.374 379.169C184.341 383.187 190.193 384.68 191.455 380.891C195.471 368.493 192.488 354.143 192.717 341.286C192.832 333.021 193.176 324.87 193.291 316.604C193.405 308.798 193.75 300.303 191.455 292.726C190.996 291.119 188.242 291.349 188.472 293.186C188.587 294.563 189.045 294.219 189.734 295.596C189.849 296.056 190.537 295.711 190.422 295.137Z" fill="#D9F6FF"/>
<path d="M206.6 297.089C206.715 296.515 206.829 295.826 206.944 295.252C207.174 294.219 205.682 293.76 205.338 294.793C202.928 301.681 203.617 310.405 203.502 317.638C203.273 325.903 203.158 334.169 203.043 342.434C202.928 348.633 203.043 354.718 203.387 360.917C203.732 366.771 204.42 373.085 202.355 378.71C200.863 382.728 207.403 384.565 208.895 380.547C210.845 375.381 210.501 369.641 210.272 364.131C209.927 357.587 209.468 351.159 209.354 344.615C209.239 336.005 209.124 327.396 208.895 318.786C208.78 311.209 209.583 302.14 207.059 294.908C206.715 293.875 205.223 294.334 205.453 295.367C205.567 295.941 205.682 296.63 205.797 297.204C205.797 297.548 206.485 297.548 206.6 297.089Z" fill="#D9F6FF"/>
<path d="M241.709 298.007C241.824 297.089 241.939 296.17 242.053 295.252C242.627 293.53 239.874 292.726 239.3 294.563C237.464 300.648 238.038 307.765 238.267 314.079C238.382 321.541 238.726 329.003 238.841 336.465C239.07 351.273 237.579 365.853 237.464 380.662C239.644 380.662 241.709 380.662 243.889 380.662C243.889 379.514 243.316 378.481 242.512 377.677C241.595 376.644 239.759 376.644 238.841 377.677C238.038 378.481 237.464 379.514 237.464 380.662C237.464 384.795 243.889 384.795 243.889 380.662C243.889 365.968 245.266 351.273 244.807 336.465C244.578 329.347 244.119 322.23 243.66 315.112C243.316 308.454 243.774 300.992 242.053 294.563C241.25 294.908 240.332 295.252 239.529 295.596C239.988 296.515 240.447 297.318 240.906 298.237C241.021 298.696 241.709 298.466 241.709 298.007Z" fill="#D9F6FF"/>
<path d="M255.248 296.974C256.051 303.518 255.477 309.831 254.789 316.375C253.986 324.64 254.215 332.906 253.871 341.171C253.641 348.978 252.953 356.784 252.265 364.475C251.806 370.1 250.199 377.792 252.838 383.073C253.871 385.139 257.542 384.795 258.001 382.384C259.149 375.955 258.231 368.608 258.69 361.95C259.263 353.914 259.722 345.993 259.722 337.957C259.722 330.151 259.493 322.459 259.837 314.768C260.181 308.913 260.755 301.451 257.313 296.285C256.739 295.596 255.018 295.711 255.248 296.974Z" fill="#D9F6FF"/>
<path d="M287.03 298.352C286.456 299.959 286.915 301.91 286.915 303.632C286.915 306.617 286.685 309.602 286.456 312.587C285.997 318.9 286.226 325.1 286.226 331.414C286.341 347.6 285.997 363.787 286.341 379.973C286.456 384.221 292.881 384.221 292.996 379.973C293.34 362.524 293.111 344.5 291.734 327.166C291.275 320.852 291.39 314.538 291.045 308.224C290.816 305.24 291.16 299.04 287.603 297.892C287.489 297.892 287.144 298.122 287.03 298.352Z" fill="#D9F6FF"/>
<path d="M305.502 298.811C303.667 305.24 304.011 312.472 303.896 319.13C303.781 326.248 303.667 333.48 303.552 340.597C303.322 354.832 303.322 369.067 303.322 383.187C303.322 387.32 309.633 387.32 309.633 383.187C309.633 368.952 309.518 354.717 309.403 340.597C309.289 333.48 309.289 326.248 309.059 319.13C308.944 312.472 309.289 305.24 307.453 298.811C307.223 297.778 305.732 297.778 305.502 298.811Z" fill="#D9F6FF"/>
<path d="M178.949 384.565C200.634 387.091 223.007 385.943 244.807 386.172C266.722 386.402 288.751 387.205 310.666 385.943C314.108 385.713 314.108 380.777 310.666 380.662C288.751 379.399 266.722 380.203 244.807 380.432C223.007 380.662 200.519 379.514 178.949 382.039C177.228 382.154 177.228 384.45 178.949 384.565Z" fill="#D9F6FF"/>
<path d="M170.802 393.978C195.241 397.308 220.827 395.815 245.495 395.93C270.967 396.045 296.553 396.504 322.139 395.93C325.811 395.815 325.925 390.19 322.139 390.075C296.668 389.616 271.081 389.96 245.495 390.075C220.827 390.19 195.241 388.583 170.802 392.027C169.884 392.142 169.884 393.864 170.802 393.978Z" fill="#D9F6FF"/>
<path d="M310.78 383.073C312.731 387.779 316.976 391.338 319.271 396.045C320.762 399.144 325.811 396.274 323.86 393.404C320.877 389.042 316.747 384.909 312.387 381.925C311.698 381.236 310.436 382.154 310.78 383.073Z" fill="#D9F6FF"/>
<path d="M179.981 382.269C176.539 385.943 171.031 387.32 168.393 391.797C166.671 394.667 171.031 397.078 172.752 394.323C175.391 390.42 179.751 388.124 182.276 384.106C183.079 382.613 181.128 381.006 179.981 382.269Z" fill="#D9F6FF"/>
<path d="M442.382 279.869C450.299 279.41 458.101 279.525 465.903 280.214C471.869 280.673 478.295 282.624 484.031 280.214C486.211 279.295 485.179 275.392 482.769 275.736C476 276.655 469.46 276.081 462.69 276.196C455.806 276.31 448.234 275.622 441.923 278.606C441.35 278.836 441.694 279.869 442.382 279.869Z" fill="#D9F6FF"/>
<path d="M481.163 277.918C482.54 271.833 486.785 266.553 492.293 263.453C495.62 261.616 499.292 260.928 503.078 261.731C506.176 262.42 508.815 263.912 512.027 263.797C514.781 263.797 515.24 260.468 513.289 259.091C506.405 253.925 495.391 254.843 488.506 259.435C482.77 263.338 476.459 270.571 478.065 277.918C478.41 279.525 480.819 279.525 481.163 277.918Z" fill="#D9F6FF"/>
<path d="M511.568 262.535C517.19 257.828 521.78 252.432 528.434 248.989C530.844 247.726 540.252 242.56 540.596 247.381C540.826 250.825 545.645 250.825 545.874 247.381C546.448 239.001 538.531 239.231 532.794 241.641C523.73 245.43 514.322 252.318 510.077 261.501C509.732 262.305 510.765 263.109 511.568 262.535Z" fill="#D9F6FF"/>
<path d="M541.514 242.445C541.858 262.879 538.416 283.083 537.957 303.517C537.728 314.997 538.072 326.477 537.843 337.957C537.728 343.812 537.498 349.552 537.613 355.406C537.613 358.276 538.187 361.72 537.384 364.475C536.007 368.952 542.088 370.904 544.497 367.46C546.333 364.935 545.874 361.261 545.874 358.391C545.759 352.996 545.759 347.715 545.759 342.319C545.759 329.691 544.956 317.178 544.727 304.551C544.497 293.186 544.841 281.935 545.53 270.57C546.104 261.501 546.907 250.481 542.776 242.1C542.432 241.527 541.514 241.756 541.514 242.445Z" fill="#D9F6FF"/>
<path d="M463.15 371.248C470.378 372.626 477.836 372.97 485.179 373.659C493.096 374.463 501.013 375.381 509.044 375.496C519.715 375.726 536.007 375.955 543.58 367.001C546.563 363.442 541.859 358.506 538.417 361.835C529.926 370.215 513.748 369.641 502.734 369.526C489.768 369.297 475.771 366.427 463.035 369.412C462.347 369.641 462.232 371.019 463.15 371.248Z" fill="#D9F6FF"/>
<path d="M469.46 364.82C471.296 361.835 471.296 340.023 479.213 344.73C482.425 346.682 482.77 353.34 483.229 356.554C483.688 360.113 483.688 363.901 484.95 367.345C486.212 370.674 491.49 369.412 490.342 365.853C488.047 358.506 489.195 340.253 477.951 340.023C472.329 339.909 469.804 345.304 468.542 350.011C467.624 353.455 465.33 361.95 468.083 364.935C468.657 365.394 469.231 365.279 469.46 364.82Z" fill="#D9F6FF"/>
<path d="M500.094 367.46C502.619 361.491 502.504 344.96 511.224 344.156C519.255 343.352 516.616 361.605 519.37 366.312C520.976 369.067 524.648 367.116 524.189 364.246C523.042 357.013 522.583 338.531 511.339 340.253C500.668 341.745 499.177 358.85 498.947 367.116C498.832 367.69 499.865 368.034 500.094 367.46Z" fill="#D9F6FF"/>
<path d="M501.816 319.819C503.078 313.39 503.766 299.155 511.224 296.515C521.55 292.956 517.534 315.227 519.255 319.704C520.173 321.885 523.042 322.115 523.96 319.704C525.795 314.538 524.304 306.043 522.698 300.877C521.091 295.826 517.534 291.234 511.683 292.153C501.012 293.875 498.374 311.553 500.439 319.819C500.668 320.508 501.701 320.508 501.816 319.819Z" fill="#D9F6FF"/>
<path d="M535.434 316.375C535.204 310.979 533.368 297.548 539.908 295.252C539.105 294.908 538.417 294.678 537.614 294.334C538.417 295.252 538.876 296.285 539.105 297.548C539.794 300.188 543.465 299.04 543.006 296.4C542.662 294.563 541.974 293.3 540.711 291.808C540.138 291.119 538.99 291.119 538.302 291.464C530.041 295.711 531.418 309.143 533.712 316.49C534.057 317.408 535.434 317.293 535.434 316.375Z" fill="#D9F6FF"/>
<path d="M501.93 320.393C508.011 321.541 513.978 322.689 520.059 323.148C523.042 323.378 523.157 318.326 520.059 318.441C514.092 318.441 508.241 317.867 502.275 317.867C500.783 317.752 500.439 320.048 501.93 320.393Z" fill="#D9F6FF"/>
<path d="M532.106 319.015C533.483 319.245 535.089 319.36 536.351 319.934C538.646 320.967 540.023 317.638 537.728 316.719C535.778 316.03 533.827 316.03 531.876 316.949C531.073 317.408 531.188 318.9 532.106 319.015Z" fill="#D9F6FF"/>
<path d="M535.892 367.345C536.466 363.557 535.204 359.424 535.433 355.521C535.892 350.011 537.154 345.763 541.629 342.664C543.809 341.057 542.432 338.072 539.793 338.416C534.171 339.22 532.22 347.37 531.647 351.962C531.188 356.095 530.614 365.049 534.63 367.804C535.089 368.034 535.777 367.805 535.892 367.345Z" fill="#D9F6FF"/>
<path d="M467.395 323.952C467.624 320.163 467.739 316.49 468.542 312.816C469.116 309.946 470.493 302.37 473.935 301.451C479.672 299.844 478.065 318.671 478.065 321.885C477.951 324.87 482.655 325.559 483.228 322.574C484.605 316.375 484.376 294.563 473.476 297.089C468.427 298.237 466.362 304.895 465.444 309.257C464.526 313.62 463.035 320.852 466.133 324.64C466.592 324.985 467.395 324.526 467.395 323.952Z" fill="#D9F6FF"/>
<path d="M468.312 324.181C470.951 325.099 473.59 325.1 476.344 324.985C479.212 324.87 479.212 320.508 476.344 320.622C474.049 320.737 471.64 320.852 469.345 320.393C466.821 319.819 465.903 323.378 468.312 324.181Z" fill="#D9F6FF"/>
<path d="M185.144 163.234C201.896 162.66 218.991 173.337 228.514 186.653C233.333 193.426 237.12 201.462 240.332 209.039C242.168 213.401 243.774 217.878 245.037 222.47C246.184 226.832 246.184 231.539 247.446 235.787C248.364 239.116 253.642 239.46 254.445 235.787C256.395 226.488 251.232 214.893 247.561 206.513C243.66 197.559 238.955 188.26 232.53 180.913C221.516 168.4 202.125 156.346 185.03 161.857C184.226 162.086 184.341 163.349 185.144 163.234Z" fill="#D9F6FF"/>
<path d="M104.485 293.071C109.304 295.023 115.499 294.908 120.663 295.252C127.088 295.711 133.513 295.941 139.938 296.171C146.019 296.4 152.1 296.63 158.067 296.974C160.935 297.089 163.689 297.204 166.557 297.663C168.966 298.007 171.376 299.04 173.785 299.04C176.424 298.926 178.145 295.482 176.08 293.645C172.638 290.545 166.672 291.234 162.312 291.119C155.887 290.89 149.347 290.89 142.921 290.89C136.152 290.89 129.383 290.89 122.613 290.775C116.762 290.775 110.222 289.742 104.485 291.119C103.452 291.349 103.682 292.727 104.485 293.071Z" fill="#D9F6FF"/>
<path d="M410.83 209.728C412.092 218.567 410.141 228.554 409.453 237.509C408.65 247.037 407.158 256.45 405.552 265.864C402.339 283.887 398.668 301.796 393.046 319.245C387.309 336.924 379.507 353.799 370.787 370.215C367.001 377.448 362.87 384.45 358.74 391.453C355.068 397.537 351.052 404.31 344.627 407.754C340.611 409.935 344.168 415.905 348.184 413.839C354.494 410.509 358.854 404.655 362.641 398.8C367.46 391.338 371.705 383.417 375.95 375.611C385.129 358.506 393.39 340.597 399.356 322.115C405.552 303.058 409.223 283.198 411.862 263.338C413.239 253.351 414.501 243.363 414.387 233.261C414.387 225.57 415.763 216.156 412.092 209.154C411.748 208.35 410.715 208.924 410.83 209.728Z" fill="#D9F6FF"/>
<path d="M422.189 208.924C423.336 217.878 421.386 227.062 422.418 236.131C423.451 245.43 425.172 254.613 426.663 263.797C429.761 284.346 432.4 305.01 437.219 325.214C441.235 342.204 446.857 358.85 454.43 374.578C461.773 389.731 471.755 405.917 484.835 416.938C488.162 419.808 492.407 415.446 489.654 412.117C478.409 398.685 468.313 385.713 460.625 369.871C452.823 353.684 447.431 336.465 443.3 319.015C438.825 299.844 435.957 280.328 432.515 260.927C430.794 251.284 428.843 241.756 427.237 232.228C425.975 224.422 427.008 215.812 423.68 208.465C423.336 207.891 422.074 208.235 422.189 208.924Z" fill="#D9F6FF"/>
<path d="M373.885 350.24C387.883 351.274 401.995 351.044 415.993 351.274C429.991 351.503 443.989 351.962 458.101 351.733C461.888 351.618 461.888 345.878 458.101 345.763C444.104 345.534 429.991 345.993 415.993 346.222C401.995 346.452 387.883 346.222 373.885 347.256C371.935 347.37 371.935 350.126 373.885 350.24Z" fill="#D9F6FF"/>
<path d="M372.852 340.942C386.047 342.204 399.242 342.09 412.436 342.319C425.631 342.549 438.94 343.123 452.02 342.893C455.692 342.779 455.692 337.153 452.02 337.153C438.826 336.924 425.516 337.498 412.436 337.727C399.242 337.957 385.932 337.842 372.852 339.105C371.705 339.335 371.705 340.827 372.852 340.942Z" fill="#D9F6FF"/>
<path d="M370.213 412.117C376.639 388.927 399.356 360.343 426.664 367.575C447.546 373.085 450.758 399.489 459.019 416.02C461.199 420.497 467.51 416.594 465.559 412.117C456.724 392.256 449.84 363.787 424.025 361.031C395.341 358.047 371.476 385.139 368.722 411.887C368.837 412.69 370.099 412.805 370.213 412.117Z" fill="#D9F6FF"/>
<path d="M459.822 416.823C464.526 418.086 469.575 417.053 474.394 416.479C476.918 416.134 479.557 415.905 482.196 415.905C484.605 415.905 486.9 416.708 489.309 416.708C491.489 416.708 492.981 413.724 491.145 412.117C487.474 409.132 481.966 410.05 477.606 410.739C471.64 411.657 465.674 412.92 459.822 414.413C458.675 414.757 458.79 416.479 459.822 416.823Z" fill="#D9F6FF"/>
<path d="M343.136 412.231C347.381 412.69 351.512 412.461 355.757 412.231C359.658 412.002 363.559 412.576 367.345 412.346C370.214 412.116 371.132 407.869 368.034 407.18C364.706 406.377 360.691 407.525 357.363 408.099C352.659 408.902 347.84 410.05 343.136 410.395C341.989 410.509 341.989 412.116 343.136 412.231Z" fill="#D9F6FF"/>
<path d="M390.292 301.451C397.636 300.074 405.093 300.762 412.551 301.222C415.879 301.451 419.091 301.451 422.418 301.336C424.369 301.222 426.205 301.107 428.155 300.992C429.188 300.992 435.498 301.107 435.384 300.762C435.728 299.5 436.072 298.122 436.416 296.859C436.187 296.974 435.957 297.204 435.728 297.318C433.433 298.926 434.695 303.173 437.793 302.14C437.564 302.14 437.334 302.14 437.219 302.14C439.17 302.944 441.579 300.533 440.776 298.581C439.399 295.137 435.384 295.596 432.171 295.711C426.664 295.826 421.271 296.859 415.764 296.974C407.388 297.089 397.521 295.941 389.834 300.074C388.916 300.533 389.489 301.566 390.292 301.451Z" fill="#D9F6FF"/>
<path d="M391.554 308.109C394.423 312.701 404.52 311.324 408.88 311.094C418.403 310.52 427.352 309.717 436.875 310.635C441.235 311.094 441.235 303.403 436.875 303.862C428.614 304.665 420.583 305.01 412.322 306.273C405.323 307.306 399.012 307.65 392.128 307.076C391.669 306.961 391.325 307.65 391.554 308.109Z" fill="#D9F6FF"/>
<path d="M408.994 310.52C407.388 311.783 406.814 315.801 406.011 317.523C404.634 320.852 403.028 324.066 401.651 327.396C400.159 330.954 396.373 340.023 402.913 340.712C404.519 340.942 405.552 339.335 405.667 337.957C405.896 335.891 405.208 334.169 405.781 331.988C406.47 328.773 407.617 325.674 408.65 322.459C409.338 320.278 412.895 312.013 409.797 310.405C409.568 310.176 409.223 310.291 408.994 310.52Z" fill="#D9F6FF"/>
<path d="M422.763 310.52C425.287 310.979 427.237 323.378 427.696 325.444C428.27 328.199 428.958 331.184 429.188 334.054C429.303 336.12 428.844 338.072 430.45 339.679C431.597 340.942 433.892 340.942 435.039 339.679C437.105 337.383 435.728 334.513 435.039 331.873C434.007 328.084 432.859 324.411 431.483 320.737C430.221 317.293 427.811 309.028 422.992 309.143C422.189 309.257 421.96 310.405 422.763 310.52Z" fill="#D9F6FF"/>
<path d="M330.974 91.715C327.761 81.1536 313.075 85.7455 307.912 92.0594C300.454 101.128 300.11 115.249 308.141 123.973C315.485 131.894 328.22 135.109 338.317 131.206C348.643 127.188 354.265 116.397 352.315 105.606C350.25 94.1258 339.235 83.4496 326.958 85.9751C324.778 86.4343 324.549 90.3375 326.958 90.6819C336.481 91.9446 344.054 96.6514 345.89 106.754C347.725 116.971 340.612 126.04 330.285 126.843C320.877 127.532 309.633 121.907 307.797 111.92C306.765 106.409 308.256 99.8657 311.354 95.2738C314.222 90.9115 326.729 83.22 329.941 92.0594C330.171 92.7482 331.203 92.4038 330.974 91.715Z" fill="#D9F6FF"/>
<path d="M314.337 126.154C311.813 144.867 312.845 164.497 312.616 183.439C312.386 202.495 311.927 221.666 312.845 240.723C312.96 243.708 317.32 243.708 317.435 240.723C318.467 221.666 317.894 202.61 317.664 183.439C317.435 164.497 318.467 144.981 315.943 126.154C315.828 125.121 314.452 125.121 314.337 126.154Z" fill="#D9F6FF"/>
<path d="M334.187 129.254C332.81 148.884 332.924 168.515 332.58 188.145C332.351 206.858 332.007 225.57 332.58 244.397C332.695 248.3 338.546 248.3 338.661 244.397C339.235 225.684 338.891 206.972 338.661 188.145C338.432 168.515 338.432 148.77 337.055 129.254C336.826 127.417 334.301 127.417 334.187 129.254Z" fill="#D9F6FF"/>
<path d="M338.432 246.463C338.661 235.442 321.336 238.427 315.255 240.723C303.552 244.971 296.553 256.221 298.962 268.734C301.487 282.28 313.534 291.119 327.073 290.89C339.12 290.66 353.577 284.461 357.707 272.178C362.182 258.976 351.626 240.608 337.169 240.264C332.924 240.149 333.039 246.578 337.169 246.807C349.561 247.726 355.642 266.093 348.184 275.048C341.07 283.543 325.925 287.216 315.943 282.165C304.126 276.081 300.11 258.287 310.78 249.103C316.632 244.052 332.236 238.657 337.399 246.807C337.514 247.381 338.432 247.152 338.432 246.463Z" fill="#D9F6FF"/>
<path d="M315.828 289.283C314.337 297.663 311.354 305.584 308.371 313.505C305.502 320.967 302.06 328.773 301.945 336.924C301.945 339.564 305.961 340.138 306.535 337.498C308.715 329.232 310.551 320.967 313.075 312.816C315.484 305.125 317.549 297.548 317.435 289.512C317.435 288.594 315.943 288.364 315.828 289.283Z" fill="#D9F6FF"/>
<path d="M327.646 292.956C325.696 300.992 326.269 309.946 325.925 318.212C325.581 327.395 324.434 337.268 325.581 346.337C326.04 349.781 330.515 349.781 330.859 346.337C332.006 337.268 330.744 327.395 330.515 318.212C330.285 309.946 330.744 300.992 328.794 292.956C328.679 292.382 327.761 292.382 327.646 292.956Z" fill="#D9F6FF"/>
<path d="M332.924 286.987C335.792 307.421 333.727 328.084 335.448 348.633C335.793 352.536 341.988 352.422 341.529 348.633C338.89 327.97 340.611 306.617 335.334 286.298C334.875 284.691 332.695 285.379 332.924 286.987Z" fill="#D9F6FF"/>
<path d="M343.021 285.724C348.528 292.497 352.544 300.418 357.248 307.765C359.773 311.668 364.591 321.082 370.443 319.589C372.279 319.13 372.738 316.834 371.476 315.571C369.64 313.735 367.46 312.357 365.739 310.405C362.87 307.191 360.461 303.632 357.937 300.188C353.921 294.793 349.905 287.905 343.939 284.461C343.136 284.002 342.447 285.035 343.021 285.724Z" fill="#D9F6FF"/>
<path d="M349.217 280.214C355.986 287.216 362.297 295.482 367.574 303.747C370.099 307.65 374.114 316.145 379.966 314.653C382.261 313.964 382.261 311.209 380.54 309.946C377.671 307.765 375.721 306.387 373.541 303.517C371.934 301.451 370.443 299.27 368.836 297.318C363.214 290.66 357.707 284.002 350.938 278.492C349.79 277.458 348.184 279.066 349.217 280.214Z" fill="#D9F6FF"/>
<path d="M323.172 0.909632C326.499 14.2262 322.139 29.0352 322.483 42.5813C322.713 50.2728 323.172 57.9643 323.287 65.6558C323.287 73.5768 323.975 81.8423 322.369 89.5338C321.566 93.5517 327.647 95.2737 328.564 91.2557C330.171 83.7939 329.253 76.332 329.023 68.7553C328.794 60.0307 327.991 51.306 327.302 42.5813C326.27 28.9204 329.712 13.6522 324.663 0.450437C324.204 -0.353149 322.942 -0.00875334 323.172 0.909632Z" fill="#D9F6FF"/>
<path d="M314.681 150.262C320.877 153.706 328.22 152.673 334.99 153.706C337.629 154.165 338.776 150.262 336.137 149.688C329.253 148.31 322.254 150.262 315.37 148.655C314.452 148.425 313.764 149.803 314.681 150.262Z" fill="#D9F6FF"/>
<path d="M315.255 170.926C321.106 173.796 328.45 173.107 334.76 173.336C336.94 173.451 337.514 169.893 335.334 169.433C329.023 168.056 322.254 168.515 315.829 168.745C314.796 168.745 314.222 170.466 315.255 170.926Z" fill="#D9F6FF"/>
<path d="M315.599 197.1C320.533 198.248 325.581 197.559 330.515 199.166C333.383 200.084 334.76 195.148 331.777 194.574C326.499 193.541 320.762 194 315.599 195.263C314.796 195.493 314.796 196.87 315.599 197.1Z" fill="#D9F6FF"/>
<path d="M316.402 222.47C322.254 224.881 328.564 224.651 334.875 224.766C337.858 224.881 337.858 220.059 334.875 220.174C328.794 220.404 322.712 221.322 316.631 220.978C315.599 220.863 315.599 222.126 316.402 222.47Z" fill="#D9F6FF"/>
<path d="M302.749 265.634C311.813 266.208 320.992 265.749 330.171 265.634C339.35 265.519 348.299 266.323 357.478 266.553C360.461 266.667 361.149 261.961 358.166 261.387C340.382 257.943 320.648 261.042 302.749 262.305C300.684 262.535 300.569 265.519 302.749 265.634Z" fill="#D9F6FF"/>
<path d="M305.273 111.001C317.32 115.134 330.515 112.034 342.906 112.149C346.463 112.149 346.463 106.639 342.906 106.639C330.4 106.868 318.238 109.279 305.732 107.672C303.666 107.442 303.552 110.427 305.273 111.001Z" fill="#D9F6FF"/>
<path d="M407.503 280.214C403.028 276.081 389.948 274.129 384.67 277.229C381.458 279.066 381.572 283.543 381.343 286.757C380.999 291.693 381.228 296.63 380.654 301.451C379.163 314.768 359.772 313.849 353.232 323.952C350.249 328.429 350.479 334.283 350.364 339.449C350.02 348.059 347.955 356.669 346.348 365.164C346.004 366.886 346.807 368.723 348.643 369.182C357.134 371.593 367.001 369.871 375.721 369.182C379.851 368.838 379.966 362.868 375.721 362.639C367.345 362.179 358.74 365.164 350.479 362.868C351.282 364.246 351.97 365.623 352.774 366.886C354.036 359.769 355.527 352.651 356.33 345.419C357.019 340.138 355.642 333.021 358.051 328.199C360.231 323.837 366.427 321.656 370.558 319.704C374.918 317.638 379.622 315.571 382.834 312.013C388.801 305.469 386.85 294.449 387.424 286.183C387.539 285.035 387.309 282.624 388.227 281.936C389.604 280.673 393.734 281.132 395.455 281.132C399.242 281.132 403.143 281.476 406.929 281.706C407.617 281.706 408.076 280.673 407.503 280.214Z" fill="#D9F6FF"/>
<path d="M445.251 277.344C442.038 276.999 438.826 276.54 435.613 276.54C432.63 276.54 432.63 281.132 435.613 281.247C438.826 281.247 442.038 280.788 445.251 280.443C447.201 280.214 447.201 277.573 445.251 277.344Z" fill="#D9F6FF"/>
<path d="M465.1 243.249C475.541 244.167 486.211 243.019 496.767 243.134C502.274 243.134 507.782 243.363 513.174 244.167C518.108 244.856 522.812 246.578 527.746 247.152C530.385 247.496 531.303 243.363 529.123 242.215C520.173 237.623 507.667 237.968 497.8 238.312C486.9 238.657 475.656 239.805 464.985 241.871C464.067 241.871 464.297 243.134 465.1 243.249Z" fill="#D9F6FF"/>
<path d="M472.902 237.968C485.408 235.327 498.259 234.753 510.994 236.361C520.977 237.623 530.958 239.345 539.219 245.2C541.17 246.578 544.038 243.822 542.662 241.756C536.81 233.72 523.386 233.261 514.322 232.343C500.209 230.85 486.097 232.343 472.558 236.59C471.755 236.935 472.099 238.197 472.902 237.968Z" fill="#D9F6FF"/>
<path d="M467.051 240.264C457.413 239.231 459.478 254.04 452.479 256.795C447.316 258.861 442.268 258.861 437.678 262.305C432.859 265.749 431.024 271.259 426.778 275.048C424.598 276.999 426.893 280.558 429.532 279.754C434.81 278.377 435.728 272.637 439.17 269.078C443.53 264.486 449.037 264.371 454.43 262.075C457.642 260.813 459.593 258.172 460.855 254.958C462.576 250.481 462.002 244.052 467.28 242.101C468.313 241.756 468.083 240.379 467.051 240.264Z" fill="#D9F6FF"/>
<path d="M186.062 165.645C197.65 172.418 201.551 187.571 204.764 199.855C209.124 216.615 214.287 234.639 214.058 252.088C213.943 255.991 220.253 255.991 220.024 252.088C219.336 233.031 213.828 213.286 208.091 195.148C205.797 187.916 203.158 180.684 199.027 174.37C196.388 170.237 191.914 164.497 186.406 164.497C185.833 164.382 185.488 165.301 186.062 165.645Z" fill="#D9F6FF"/>
<path d="M184.226 164.612C185.948 171.729 186.98 178.273 187.095 185.62C187.21 191.36 185.603 199.281 187.439 204.791C188.472 208.005 192.832 207.202 193.176 203.988C193.52 200.773 192.602 197.214 192.487 193.885C192.258 189.867 192.143 185.735 191.684 181.717C191.111 175.862 190.307 167.941 185.833 163.693C185.144 163.119 184.112 163.693 184.226 164.612Z" fill="#D9F6FF"/>
<path d="M133.169 186.768C143.38 184.587 154.28 187.801 163.574 191.704C172.867 195.607 181.817 200.773 189.389 207.432C192.372 210.072 196.847 205.595 193.749 203.069C178.145 190.441 152.903 178.273 132.48 184.128C130.759 184.701 131.448 187.112 133.169 186.768Z" fill="#D9F6FF"/>
<path d="M131.448 189.408C138.103 189.982 142.463 196.87 145.675 202.036C149.117 207.661 152.215 213.516 155.198 219.37C162.656 234.065 167.016 249.103 171.261 264.831C171.95 267.356 176.31 267.012 176.08 264.142C174.245 245.774 165.869 227.406 156.805 211.564C152.33 203.758 143.036 184.242 131.333 188.031C130.53 188.26 130.76 189.293 131.448 189.408Z" fill="#D9F6FF"/>
<path d="M206.485 197.214C202.01 200.658 196.388 203.299 191.34 205.824C189.504 206.743 190.881 209.153 192.602 208.809C199.027 207.661 203.502 202.954 207.288 198.018C207.862 197.444 207.059 196.755 206.485 197.214Z" fill="#D9F6FF"/>
<path d="M133.857 189.753C135.578 197.329 137.414 204.791 138.561 212.483C139.594 218.682 138.791 225.684 140.971 231.654C142.348 235.442 147.626 233.261 146.019 229.473C143.61 223.848 144.069 216.156 142.807 210.187C141.2 202.954 139.02 195.952 136.84 188.949C136.267 186.997 133.398 187.801 133.857 189.753Z" fill="#D9F6FF"/>
<path d="M143.84 229.014C146.134 230.047 148.544 228.21 150.38 227.062C153.018 225.34 156.346 223.733 158.296 221.322C159.214 220.174 158.755 218.223 157.034 218.223C154.051 218.337 151.986 220.633 150.035 222.585C148.085 224.422 146.249 226.258 143.84 227.636C143.381 227.866 143.381 228.784 143.84 229.014Z" fill="#D9F6FF"/>
<path d="M159.444 168.859C160.017 175.403 157.378 181.602 157.493 188.031C157.493 190.786 161.738 190.786 161.738 188.031C161.738 184.013 162.312 179.995 162.427 175.977C162.541 173.796 162.771 169.893 160.82 168.285C160.361 167.941 159.444 168.171 159.444 168.859Z" fill="#D9F6FF"/>
<path d="M159.902 170.926C168.966 174.599 176.883 181.258 182.276 189.408C184.226 192.278 188.93 189.408 186.865 186.653C180.211 178.043 171.261 171.041 160.705 168.056C158.755 167.597 158.181 170.237 159.902 170.926Z" fill="#D9F6FF"/>
<path d="M304.929 206.284C294.488 203.758 282.326 207.087 272.573 211.105C267.525 213.171 262.591 215.812 258.231 219.141C254.675 221.896 249.397 226.144 248.708 230.85C248.364 233.146 250.659 234.753 252.609 233.146C256.051 230.162 258.117 226.029 261.788 223.159C266.033 219.83 270.967 217.189 276.015 215.123C285.194 211.335 294.832 209.498 304.699 208.235C305.617 208.005 306.076 206.628 304.929 206.284Z" fill="#D9F6FF"/>
<path d="M304.699 207.891C302.06 210.646 301.257 214.664 300.454 218.337C299.421 223.503 298.389 228.44 296.782 233.491C295.176 238.771 293.455 244.052 291.39 249.103C289.554 253.466 287.03 257.254 284.964 261.387C283.817 263.683 285.653 265.978 288.177 265.519C291.963 264.831 293.111 260.239 294.373 257.139C296.553 251.629 298.618 246.118 300.224 240.379C303.207 230.047 305.158 219.141 306.191 208.465C306.191 207.776 305.158 207.431 304.699 207.891Z" fill="#D9F6FF"/>
<path d="M136.841 227.636C151.527 234.753 157.723 252.318 163.574 266.438C164.492 268.619 168.049 267.701 167.131 265.405C161.509 251.629 154.166 229.702 137.414 226.144C136.726 226.144 136.038 227.292 136.841 227.636Z" fill="#D9F6FF"/>
<path d="M190.422 207.087C200.06 217.304 204.076 231.539 209.354 244.282C210.386 246.692 214.402 245.659 213.369 243.134C207.747 229.702 203.502 215.123 192.717 204.791C191.225 203.414 189.045 205.595 190.422 207.087Z" fill="#D9F6FF"/>
<path d="M44.1338 146.015C36.9054 152.788 29.6771 159.331 27.3824 169.089C27.1529 170.352 27.7266 171.959 29.1034 172.189C34.496 173.107 35.0697 175.747 34.8402 180.684C34.6107 184.357 34.3813 187.916 35.2992 191.589C36.1023 194.919 41.1507 193.541 40.4623 190.212C38.5118 180.913 43.9044 169.204 30.4803 167.367C31.0539 168.4 31.6276 169.433 32.2013 170.467C33.9223 161.512 42.298 155.428 46.8875 148.081C47.8054 146.359 45.5106 144.637 44.1338 146.015Z" fill="#D9F6FF"/>
<path d="M35.8728 192.278C34.7255 195.378 37.0201 199.166 38.397 201.921C39.8885 205.021 44.8222 201.806 42.298 198.936C41.3801 197.903 40.4623 196.87 39.6591 195.722C38.856 194.574 38.397 193.311 37.5939 192.163C37.0202 191.36 36.1023 191.589 35.8728 192.278Z" fill="#D9F6FF"/>
<path d="M37.5939 195.148C38.1675 207.546 35.0696 219.944 36.1022 232.343C36.5612 238.197 38.6264 243.823 39.5443 249.562C40.6917 256.336 41.2654 263.109 41.839 269.882C42.8717 282.624 43.7896 295.482 43.2159 308.224C42.9864 315.227 42.298 322.23 41.2654 329.118C40.2327 335.661 38.0528 342.204 37.5939 348.863C37.3644 351.503 41.6096 352.651 42.757 350.24C48.2643 338.875 48.9527 323.722 49.7559 311.324C50.559 297.778 49.6411 284.346 48.6085 270.8C47.5759 257.943 45.2812 245.774 42.757 233.146C40.3475 220.404 42.6422 207.432 40.0033 194.689C39.7738 193.541 37.5939 193.771 37.5939 195.148Z" fill="#D9F6FF"/>
<path d="M53.657 138.553C52.6243 150.951 49.9854 173.107 67.999 174.944C73.621 175.518 77.6368 172.074 80.6199 167.711C83.0294 164.267 86.5862 157.839 84.062 153.591C82.7999 151.525 79.8167 152.443 79.702 154.739C79.1283 163.693 70.5231 175.173 61.8032 165.875C54.4601 158.183 61.5737 145.9 55.1485 137.864C54.5748 137.29 53.657 137.864 53.657 138.553Z" fill="#D9F6FF"/>
<path d="M63.18 138.208C70.0642 142.8 74.9978 149.114 81.3083 154.395C83.7178 156.346 87.1598 153.132 84.8651 150.836C78.8988 145.211 71.5557 139.701 63.8684 136.716C62.9505 136.257 62.4916 137.634 63.18 138.208Z" fill="#D9F6FF"/>
<path d="M62.8358 136.601C60.8853 137.175 58.9347 138.782 57.3284 140.045C55.4927 141.537 53.6569 143.145 53.6569 145.67C53.6569 147.392 55.6074 147.966 56.7547 146.933C58.2463 145.67 59.1643 143.719 60.5411 142.226C61.6885 140.963 63.5242 139.471 63.9832 137.749C64.2126 137.06 63.5242 136.371 62.8358 136.601Z" fill="#D9F6FF"/>
<path d="M62.3769 149.344C61.1148 147.622 57.9022 147.622 55.9517 147.851C54.8043 147.966 54.0012 148.54 53.657 149.573C53.657 149.688 53.6569 149.688 53.5422 149.803C53.198 150.721 53.7716 151.64 54.46 152.099C54.5748 152.099 54.5748 152.214 54.6895 152.214C55.378 152.788 56.4106 152.558 57.099 152.214C58.5906 151.525 60.8853 151.64 62.1474 150.492C62.4916 150.377 62.6063 149.688 62.3769 149.344Z" fill="#D9F6FF"/>
<path d="M65.0158 151.525C63.7537 153.132 63.4095 155.084 63.2947 157.15C63.18 159.216 63.0653 161.512 63.9832 163.349C64.7863 164.841 67.6547 164.727 67.9989 162.775C68.2284 160.938 67.6547 159.331 67.3105 157.609C66.9663 155.772 66.9663 153.821 66.8516 151.984C66.7368 151.066 65.5894 150.836 65.0158 151.525Z" fill="#D9F6FF"/>
<path d="M75.8009 150.951C73.3915 149.918 70.5231 149.803 67.9989 149.344C64.3274 148.655 64.3274 154.395 67.9989 153.706C70.5231 153.247 73.3915 153.132 75.8009 152.099C76.2599 151.869 76.2599 151.066 75.8009 150.951Z" fill="#D9F6FF"/>
<path d="M55.2632 133.272C60.8853 132.468 70.6378 131.665 75.2273 135.912C79.0136 139.356 77.4072 146.474 78.7841 151.066C79.5872 153.821 83.4883 152.673 83.0293 149.918C81.9967 143.604 83.7177 134.764 76.9483 131.091C70.4084 127.532 61.1147 129.139 54.6895 132.009C53.8864 132.354 54.5748 133.387 55.2632 133.272Z" fill="#D9F6FF"/>
<path d="M50.2148 111.46C52.9685 114.904 55.2632 117.889 57.2137 121.907C59.0495 125.695 60.6558 129.713 62.8358 133.502C64.7863 136.945 69.9494 133.387 67.3104 130.058C64.0978 126.04 62.0326 121.218 59.0494 116.971C57.2137 114.33 54.3453 110.312 50.6737 110.312C50.1 110.312 49.8706 111.116 50.2148 111.46Z" fill="#D9F6FF"/>
<path d="M73.2768 111.001C72.9326 115.478 71.6705 119.726 71.2115 124.203C70.8673 127.417 70.1789 132.124 73.2768 134.076C74.8831 135.109 76.8335 133.731 76.8335 132.009C76.9483 130.517 76.2599 129.254 76.0304 127.762C75.801 125.81 76.0304 123.858 76.1451 121.907C76.3746 118.233 76.8336 114.56 76.7188 111.001C76.6041 108.82 73.5062 108.935 73.2768 111.001Z" fill="#D9F6FF"/>
<path d="M93.3555 125.81C90.1429 127.302 86.8156 128.221 83.4883 129.254C80.6199 130.172 77.6367 131.206 75.9157 133.961C74.0799 136.831 78.6693 139.586 80.5051 136.601C83.603 131.665 91.9787 132.583 94.6176 127.073C95.0766 126.269 94.2734 125.466 93.3555 125.81Z" fill="#D9F6FF"/>
<path d="M93.4702 142.226C89.4545 139.815 84.9798 138.553 80.5051 137.29C77.5219 136.372 76.1451 141.308 79.243 141.997C83.603 142.915 88.1924 143.374 92.4377 144.752C93.9292 145.096 94.7323 143.03 93.4702 142.226Z" fill="#D9F6FF"/>
<path d="M36.4465 123.17C44.0191 125.925 51.1327 130.058 57.4432 134.994C60.4263 137.405 63.8684 132.928 60.6558 130.861C53.7716 126.269 45.0517 121.907 36.6759 121.448C35.6433 121.448 35.5286 122.825 36.4465 123.17Z" fill="#D9F6FF"/>
<path d="M45.0517 137.519C48.2644 138.208 51.2475 139.93 54.5748 140.389C56.9843 140.734 58.1316 137.29 55.6074 136.601C52.3948 135.568 48.7233 135.109 45.3959 135.109C44.0191 135.224 43.6749 137.29 45.0517 137.519Z" fill="#D9F6FF"/>
<path d="M17.7445 89.993C17.7445 92.9778 20.3834 96.5365 21.1866 99.5213C22.4487 104.343 23.2519 109.164 24.514 113.986C27.8413 126.04 35.4139 136.371 40.118 147.851C41.3801 150.951 46.5432 149.573 45.2812 146.474C40.2328 134.076 32.4308 123.055 28.7592 110.083C27.7266 106.409 24.1698 88.7303 18.433 89.3043C17.974 89.4191 17.7445 89.6487 17.7445 89.993Z" fill="#D9F6FF"/>
<path d="M14.6467 116.741C18.433 123.858 18.3182 131.32 20.0392 139.012C21.7603 146.589 27.1529 152.443 29.3329 159.79C30.3655 163.005 35.4139 161.627 34.496 158.413C32.0865 150.147 26.1202 143.833 24.6287 135.224C23.4813 128.336 20.9571 120.759 15.5646 116.052C14.9909 115.593 14.3025 116.052 14.6467 116.741Z" fill="#D9F6FF"/>
<path d="M9.13929 83.1052C12.6961 93.5518 0.99308 111.805 13.2698 119.152C14.4172 119.841 16.2529 119.496 16.8266 118.233C19.3508 112.838 20.0392 106.409 20.4982 100.554C20.8424 95.733 21.6455 88.2711 17.7445 84.4827C16.2529 83.1052 14.3025 85.1715 15.5646 86.6639C18.3182 90.2226 16.7119 98.4881 16.0235 102.391C15.335 106.639 14.6466 111.805 12.2372 115.478C13.3845 115.134 14.6467 114.904 15.794 114.56C10.7457 111.116 12.8109 101.473 12.9256 96.3069C13.0404 91.6002 13.2698 86.3195 10.0572 82.5312C9.71303 82.072 8.90982 82.5312 9.13929 83.1052Z" fill="#D9F6FF"/>
<path d="M6.50043 85.6307C6.3857 87.1231 5.46782 88.6155 5.00888 90.1079C4.4352 91.9446 3.86155 93.8962 3.74681 95.8477C3.51734 99.4065 5.46779 103.998 9.71303 103.769C12.2372 103.539 12.9257 100.669 10.9752 99.2917C9.8278 98.4881 8.9099 98.4881 8.45096 96.9957C8.10675 95.6181 8.33622 93.8962 8.45096 92.5186C8.68043 90.2227 9.48355 87.6971 8.56567 85.5159C8.10672 84.2531 6.61517 84.368 6.50043 85.6307Z" fill="#D9F6FF"/>
<path d="M1.45203 83.794C9.0246 85.6307 17.0561 83.22 24.7434 84.8271C27.8413 85.4011 29.1034 81.0388 26.0055 80.1204C18.7771 78.0541 8.56566 80.5796 1.45203 82.1868C0.648877 82.3016 0.648877 83.5644 1.45203 83.794Z" fill="#D9F6FF"/>
<path d="M1.10783 77.5949C9.59829 77.9393 17.8593 76.5617 26.3497 77.4801C25.4319 76.5617 24.6287 75.7581 23.7108 74.8397C23.3666 77.2505 22.793 79.3168 23.0224 81.8424C23.2519 83.794 26.2351 85.2863 27.2677 82.9904C28.5298 80.35 28.7593 77.8245 28.9887 74.8397C29.1035 73.4621 27.7266 72.0845 26.3497 72.1993C17.8593 72.8881 8.90993 73.1177 0.878411 76.3321C0.304731 76.6765 0.419411 77.5949 1.10783 77.5949Z" fill="#D9F6FF"/>
<path d="M1.56676 75.0693C0.419401 77.5949 -0.383765 80.35 0.189915 82.9904C0.763595 85.8603 5.58249 84.1384 3.97619 81.3832C2.94356 79.5464 3.40255 77.2505 2.94361 75.1841C2.71413 74.6101 1.79623 74.3805 1.56676 75.0693Z" fill="#D9F6FF"/>
<path d="M7.53304 71.5106C8.6804 71.3958 9.02456 70.9366 8.56562 70.133C8.45088 69.4442 8.45091 68.8702 8.45091 68.1814C8.45091 67.0334 8.79513 66.0002 9.25408 65.0818C10.2867 63.2451 12.1225 61.8675 13.8435 60.8343C17.2856 58.8828 21.4161 58.194 24.7434 56.1276C24.055 55.5536 23.3666 55.0944 22.6782 54.5204C22.2193 57.046 22.6782 59.6863 22.1045 62.2119C21.6456 64.1635 20.2687 65.4262 19.0066 67.0334C17.4003 69.0998 16.5972 71.1662 18.0888 73.5769C18.3182 72.7733 18.5477 71.9697 18.7771 71.0514C18.7771 71.0514 18.7772 70.9366 18.6624 70.9366C16.4825 69.559 14.4172 73.1177 16.7119 74.3805C18.433 75.2989 19.5803 75.4137 20.9572 74.0361C21.6456 73.3473 21.6456 72.1993 20.9572 71.5106C19.6951 70.0182 23.0224 66.2298 23.5961 64.8523C24.7434 61.8675 24.2845 58.4236 25.3171 55.4388C25.6613 54.5204 24.8582 53.7168 23.9403 53.7168C18.5477 53.4873 11.7783 56.7016 8.10672 60.3751C6.27094 62.2119 4.89408 64.5079 4.77934 67.1482C4.66461 69.3294 5.12355 73.0029 7.64774 73.8065C8.68037 74.1509 9.71299 72.5437 8.7951 71.855C8.56563 71.6254 8.6804 71.6254 8.6804 71.7402C8.6804 70.9366 7.76251 70.8218 7.53304 71.5106Z" fill="#D9F6FF"/>
<path d="M15.5645 62.6711C14.9909 67.1482 10.8604 70.4774 9.59826 74.7249C8.68037 78.0541 13.9582 78.9724 14.4172 75.4137C14.9909 71.0514 18.5477 67.4926 18.0887 63.0155C17.8593 61.7527 15.6793 61.0639 15.5645 62.6711Z" fill="#D9F6FF"/>
<path d="M45.9696 153.017C46.1991 153.247 46.5433 154.51 46.7728 154.969C47.3465 156.232 47.5759 157.38 48.2644 158.528C49.4117 160.479 50.4443 163.693 52.739 164.382C53.8864 164.727 55.1485 163.923 55.378 162.89C55.9517 160.364 53.198 157.265 51.7064 155.313C50.4443 153.706 48.2644 152.099 46.1991 151.984C45.8549 151.869 45.6254 152.673 45.9696 153.017Z" fill="#D9F6FF"/>
<path d="M81.882 174.599C76.1451 178.962 71.2115 184.931 66.2779 190.212C62.0326 194.804 57.7874 199.396 54.1158 204.562C45.9696 215.697 41.7244 228.325 42.1833 242.215C42.2981 244.856 46.3138 244.856 46.1991 242.215C45.9696 228.21 50.5591 215.927 58.82 204.676C66.1632 194.689 77.0631 186.538 83.2588 175.747C83.9472 174.714 82.6851 174.025 81.882 174.599Z" fill="#D9F6FF"/>
<path d="M78.5546 172.418C62.3768 178.388 49.6412 190.441 42.5276 206.054C41.4949 208.235 44.8222 210.187 45.8549 208.006C49.1822 200.544 53.6569 193.656 59.5085 187.916C65.36 182.176 72.2442 178.158 79.0136 173.681C79.702 173.222 79.3578 172.189 78.5546 172.418Z" fill="#D9F6FF"/>
<path d="M79.4725 172.648C79.8167 172.877 80.0462 173.451 80.3904 173.681C81.0788 174.255 81.8819 174.714 82.5703 175.288C83.9472 176.321 85.5535 177.24 86.9304 178.388C89.4545 180.454 92.3229 176.666 89.5693 174.944C87.963 173.796 86.1271 172.992 84.2914 172.303C83.4882 171.959 82.5704 171.615 81.7672 171.385C81.1936 171.27 80.5051 171.385 80.0462 171.27C79.1283 171.041 78.7841 172.188 79.4725 172.648Z" fill="#D9F6FF"/>
<path d="M84.6357 175.862C88.7662 179.421 92.2082 182.52 94.6177 187.571C97.0271 192.623 97.945 198.248 99.0924 203.643C100.354 209.153 101.961 214.434 104.026 219.715C105.977 224.766 108.042 231.539 112.287 235.098C114.238 236.705 118.253 235.213 117.106 232.343C114.467 225.799 110.566 219.944 108.157 213.286C105.977 207.661 104.829 201.692 103.338 195.837C100.928 186.653 96.224 175.403 85.3241 174.484C84.5209 174.37 84.062 175.403 84.6357 175.862Z" fill="#D9F6FF"/>
<path d="M107.468 228.554C107.583 228.784 107.927 228.669 107.583 229.358C107.353 229.817 107.009 230.276 106.55 230.621C105.518 231.539 104.141 232.343 102.879 232.917C101.731 233.491 100.354 234.065 98.9776 234.065C97.6008 234.065 98.1744 233.95 97.486 232.687C96.1092 230.276 91.7492 231.195 91.9787 234.179C92.6671 241.297 101.043 239.805 105.173 236.82C107.927 234.753 111.599 230.276 108.157 227.751C107.583 227.177 107.124 228.095 107.468 228.554Z" fill="#D9F6FF"/>
<path d="M101.272 216.271C100.24 214.664 98.9776 213.401 97.6008 212.023C96.1092 210.531 93.9292 211.794 93.6997 213.631C93.3555 217.419 93.1261 221.207 92.4377 224.996C91.9787 227.751 90.3724 230.965 90.9461 233.72C91.2903 235.098 93.1261 235.901 94.3882 235.098C97.0271 233.146 97.1418 229.128 97.6008 226.029C98.1745 221.896 98.6334 217.763 98.2892 213.631C97.3713 214.319 96.3387 215.123 95.4208 215.812C96.9123 216.386 98.2892 217.189 99.666 217.878C100.699 218.223 101.961 217.304 101.272 216.271Z" fill="#D9F6FF"/>
<path d="M96.5682 214.09C96.9124 210.761 96.4534 207.317 96.3387 203.873C96.3387 202.954 95.6503 202.036 94.7324 201.806C84.8651 199.51 82.5704 215.927 81.423 222.47C80.6199 227.062 80.1609 231.654 79.5873 236.246C78.7841 242.101 80.6199 244.511 86.4714 245.43C87.6188 245.659 88.9956 245.315 89.684 244.167C92.7819 238.197 94.8472 231.998 96.7977 225.684C97.8303 222.47 93.1261 221.437 91.864 224.307C89.5693 230.047 88.0777 236.016 84.8651 241.297C85.8977 240.838 86.9304 240.493 88.0778 240.034C85.2094 239.345 84.9799 239.575 85.2094 236.705C85.3241 235.442 85.4388 234.294 85.5536 233.032C85.8978 229.243 86.1272 225.455 86.7009 221.667C87.2746 217.763 87.963 213.631 89.4545 210.072C89.9135 209.039 90.8314 206.628 92.0935 206.284C92.8967 206.054 92.5524 206.743 92.7819 208.58C93.1261 210.646 93.5851 212.597 94.1588 214.549C94.7324 215.697 96.4534 215.353 96.5682 214.09Z" fill="#D9F6FF"/>
<path d="M110.91 233.032C110.451 238.197 108.615 246.348 103.452 248.988C96.1092 252.662 98.5187 239.231 94.044 237.279C92.0935 236.361 89.684 237.853 90.2577 240.149C90.8314 242.215 91.4051 244.052 91.864 246.233C92.2082 248.3 92.8967 250.366 94.3882 251.858C97.3714 254.958 102.076 255.647 105.747 253.466C111.484 250.022 115.844 238.771 112.287 232.687C111.943 231.998 111.025 232.343 110.91 233.032Z" fill="#D9F6FF"/>
<path d="M99.3218 255.073C99.7808 261.272 99.5513 267.356 99.3218 273.555C99.0924 280.788 99.7807 287.905 100.354 295.137C101.502 311.324 102.075 327.51 104.944 343.467C105.747 348.059 112.861 346.108 111.943 341.516C108.845 324.755 107.698 307.765 105.747 290.775C104.944 283.887 104.485 277.229 104.37 270.226C104.255 265.06 104.37 258.861 101.272 254.499C100.699 253.81 99.2071 253.925 99.3218 255.073Z" fill="#D9F6FF"/>
<path d="M37.8233 350.011C41.1507 359.539 58.4758 358.047 66.1631 357.817C82.2262 357.358 98.0597 356.21 114.238 356.899C117.106 357.013 118.024 353.57 116.417 351.618C114.123 348.978 113.664 345.648 111.828 342.779C109.763 339.564 105.059 343.008 107.583 345.993C109.763 348.518 110.222 351.503 111.254 354.603C112.287 353.34 113.205 351.962 114.238 350.7C100.01 351.962 85.6683 351.503 71.441 352.651C65.5895 353.11 59.6232 353.455 53.7716 353.11C49.8706 352.881 42.8717 352.766 40.9212 348.633C40.0033 347.026 37.2496 348.174 37.8233 350.011Z" fill="#D9F6FF"/>
<path d="M38.397 350.7C37.5938 354.258 36.217 357.358 34.6107 360.687C34.037 361.95 34.2665 363.442 35.5286 364.131C41.3801 367.69 48.9527 366.771 55.378 366.083C64.901 365.049 74.3094 364.475 83.8325 364.246C92.4377 364.016 100.928 364.131 109.419 365.164C113.664 365.738 119.171 364.705 118.597 359.195C118.139 355.177 111.828 354.947 112.058 359.195C112.172 360.802 113.434 359.309 111.943 359.08C110.795 358.965 109.648 358.85 108.615 358.735C106.321 358.391 104.255 358.161 101.961 358.047C93.8145 357.817 85.5535 358.161 77.4072 358.621C70.523 359.08 63.6389 359.539 56.8695 360.343C50.7885 361.146 43.7896 362.409 38.0528 359.654C38.397 360.572 38.8559 361.605 39.2001 362.524C40.3475 358.735 41.4949 355.062 41.3801 351.044C41.3801 349.437 38.8559 348.978 38.397 350.7Z" fill="#D9F6FF"/>
<path d="M100.584 309.143C97.3713 303.862 88.5367 305.584 84.7504 309.028C83.603 310.061 83.9473 312.013 85.2094 312.701C87.1599 313.735 89.2251 314.768 91.0609 316.031C91.0609 314.653 91.0609 313.161 91.0609 311.783C85.0946 315.916 76.6041 309.946 69.9494 313.964C68.5726 314.768 68.4579 316.49 69.4905 317.638C74.7684 323.607 58.82 330.725 55.0337 332.791C49.0675 336.12 40.8065 339.794 38.0528 346.567C36.7907 349.552 41.8391 350.929 42.9865 347.944C47.0022 337.498 85.783 330.036 72.9326 314.309C72.8179 315.571 72.5884 316.719 72.4736 317.982C78.8988 314.423 87.0451 320.622 93.5851 315.916C95.0766 314.768 95.1914 312.816 93.5851 311.668C91.7493 310.405 89.684 309.487 87.6188 308.454C87.7335 309.717 87.963 310.865 88.0778 312.127C91.6346 308.798 95.6503 310.405 99.7808 310.291C100.469 310.52 101.043 309.717 100.584 309.143Z" fill="#D9F6FF"/>
<path d="M77.063 257.254C77.9809 267.93 76.8336 278.147 75.342 288.709C74.0799 297.548 71.8999 307.191 73.621 316.031C74.0799 318.327 77.2925 317.638 77.4072 315.457C77.9809 305.354 78.2104 295.367 79.1283 285.15C80.0462 275.851 80.7346 266.093 78.0957 257.024C78.0957 256.45 77.063 256.565 77.063 257.254Z" fill="#D9F6FF"/>
<path d="M82.4556 250.481C85.2093 270.8 81.7672 291.579 84.6356 311.898C84.9798 314.194 88.8809 314.194 89.2251 311.898C89.9135 306.962 88.9956 301.796 88.4219 296.859C87.8482 291.464 87.6187 286.183 87.3893 280.788C87.045 270.456 86.8156 260.009 83.8325 250.136C83.4883 249.218 82.3409 249.562 82.4556 250.481Z" fill="#D9F6FF"/>
<path d="M86.3567 315.916C88.3072 328.773 84.6356 341.631 86.9304 354.488C87.504 357.817 92.6672 356.44 92.0935 353.11C89.7988 340.483 92.5524 327.625 89.4545 315.112C88.9956 313.046 86.1272 313.964 86.3567 315.916Z" fill="#D9F6FF"/>
<path d="M108.271 319.015C121.81 320.393 135.693 319.819 149.232 320.048C162.886 320.278 176.539 320.737 190.193 320.048C193.52 319.934 193.52 314.997 190.193 314.883C176.539 314.194 162.886 314.768 149.232 314.883C135.693 315.112 121.81 314.653 108.271 315.916C106.321 316.145 106.321 318.9 108.271 319.015Z" fill="#D9F6FF"/>
<path d="M108.041 222.585C114.467 224.192 120.662 224.996 126.858 227.406C133.742 230.162 139.709 233.95 145.101 239.001C146.707 240.493 149.691 238.542 148.314 236.59C143.954 230.506 136.955 227.062 130.186 224.422C123.76 222.011 114.926 219.141 108.041 221.322C107.468 221.552 107.468 222.47 108.041 222.585Z" fill="#D9F6FF"/>
<path d="M103.108 251.17C109.189 254.843 111.369 264.945 113.205 271.259C114.238 274.818 115.156 278.492 115.844 282.28C116.532 286.183 115.729 290.201 116.877 294.104C117.909 297.663 123.187 296.17 122.384 292.612C121.351 288.135 121.466 283.543 120.204 278.951C118.942 274.244 117.336 269.652 115.5 265.29C113.664 260.813 109.763 250.022 103.452 250.136C102.764 249.907 102.535 250.825 103.108 251.17Z" fill="#D9F6FF"/>
<path d="M109.304 260.813C103.452 265.405 101.846 272.981 99.5513 279.64C98.5187 282.51 103.108 283.772 104.141 280.902C106.321 274.474 107.812 268.275 111.828 262.764C112.975 261.157 110.566 259.78 109.304 260.813Z" fill="#D9F6FF"/>
</svg>
