<svg width="75" height="75" viewBox="0 0 75 75" fill="none" xmlns="http://www.w3.org/2000/svg">
<g clip-path="url(#clip0)">
<path d="M60.0001 67.5H12.5001C11.8964 67.4921 11.3831 67.0569 11.2763 66.4624C11.2604 66.3928 11.2513 66.3214 11.2501 66.25C11.2433 65.9216 11.3721 65.6055 11.6065 65.3748C11.8403 65.1324 12.1631 64.9969 12.5001 65H37.5001C38.1904 65 38.7501 64.4403 38.7501 63.75C38.7501 63.0597 38.1904 62.5 37.5001 62.5H12.5001C11.4997 62.4994 10.5408 62.9004 9.83892 63.6139C9.13702 64.3109 8.74456 65.2606 8.75006 66.25C8.75067 66.4648 8.77142 66.6791 8.81231 66.8903C9.12909 68.6816 10.6812 69.9902 12.5001 70H60.0001C60.6904 70 61.2501 69.4403 61.2501 68.75C61.2501 68.0597 60.6904 67.5 60.0001 67.5Z" fill="#53AFE6"/>
<path d="M70 0H12.5C7.67029 0.00610352 3.7561 3.92029 3.75 8.75V67.5C3.75793 67.7234 3.83423 67.9395 3.96729 68.1189C4.82544 72.1423 8.38623 75.014 12.5 75H70C70.6903 75 71.25 74.4403 71.25 73.75V1.25C71.25 0.559692 70.6903 0 70 0ZM68.75 57.5H16.25V2.5H68.75V57.5ZM6.25 8.75C6.25427 5.29968 9.04968 2.50427 12.5 2.5H13.75V11.25H12.5C10.1459 11.2494 7.89124 12.2009 6.25 13.8885V8.75ZM6.25 20C6.25427 16.5497 9.04968 13.7543 12.5 13.75H13.75V22.5H12.5C10.1459 22.4994 7.89124 23.4509 6.25 25.1385V20ZM6.25 31.25C6.25427 27.7997 9.04968 25.0043 12.5 25H13.75V33.75H12.5C10.1459 33.7494 7.89124 34.7009 6.25 36.3885V31.25ZM6.25 42.5C6.25427 39.0497 9.04968 36.2543 12.5 36.25H13.75V45H12.5C10.1459 44.9994 7.89124 45.9509 6.25 47.6385V42.5ZM6.25 60.1251V53.75C6.25427 50.2997 9.04968 47.5043 12.5 47.5H13.75V57.5H12.5C10.1794 57.489 7.95227 58.4125 6.32019 60.0623L6.25 60.1251ZM12.5 72.5C9.4397 72.5104 6.82739 70.2924 6.34155 67.2711C6.2793 66.9342 6.24878 66.5924 6.25 66.25C6.2561 62.8009 9.0509 60.0061 12.5 60H68.75V62.4799C65.8014 62.5 57.5299 62.5 47.5 62.5C46.8097 62.5 46.25 63.0597 46.25 63.75C46.25 64.4403 46.8097 65 47.5 65C54.1675 65 67.644 64.9902 68.75 64.9512V72.5H12.5Z" fill="#53AFE6"/>
<path d="M26.5137 27.1698C25.9833 30.0317 26.2567 32.984 27.3023 35.7C27.3139 35.7428 27.3285 35.7843 27.3462 35.8252C29.1175 40.4217 32.8717 43.9715 37.5598 45.4828L37.5824 45.4913C39.173 45.9961 40.8313 46.2518 42.5 46.25C42.7277 46.25 42.9486 46.2249 43.1738 46.2164C43.1952 46.2164 43.2166 46.2249 43.2373 46.2249C43.2587 46.2249 43.3087 46.2097 43.3447 46.2072C48.9301 45.9161 53.9734 42.7734 56.695 37.8875C56.7328 37.8344 56.7664 37.7783 56.7951 37.7197C58.8648 33.9019 59.3152 29.4128 58.0451 25.26C58.0451 25.2459 58.0451 25.2313 58.0353 25.2173C56.1597 19.1821 50.9613 14.7766 44.7003 13.916C44.6491 13.9056 44.5978 13.8983 44.5465 13.894C41.3117 13.4533 38.0194 14.0277 35.1251 15.5377C35.0659 15.5603 35.0092 15.5877 34.9549 15.6201C30.5493 17.9382 27.4463 22.1441 26.5314 27.0373C26.5222 27.0813 26.5167 27.1252 26.5137 27.1698ZM28.75 30C28.75 29.8877 28.7641 29.779 28.7665 29.6661C29.1138 29.8309 29.4849 29.9408 29.8664 29.9926C30.3321 30.0317 30.8008 30.0049 31.2586 29.9115C30.976 30.5774 30.6244 31.2127 30.21 31.806C29.8883 32.2857 29.527 32.738 29.1315 33.1585C28.8812 32.124 28.7537 31.0644 28.75 30ZM44.1388 43.6425C43.8227 42.4762 43.6914 41.2671 43.75 40.0598L43.7775 39.3976C43.8501 37.6049 43.9228 36.6351 44.6613 35.8587C45.5988 34.8919 46.9959 34.5269 48.2862 34.9115C48.7427 35.0927 48.9411 35.3576 49.3152 35.8899C49.6295 36.3727 50.0055 36.8121 50.434 37.1972C51.2635 37.8766 52.2687 38.3069 53.3325 38.4375C51.0846 41.3287 47.7747 43.2025 44.1388 43.6425ZM54.5227 23.3423C53.0774 22.8564 51.5717 22.5732 50.0489 22.5C49.8175 22.4902 49.5764 22.4859 49.3299 22.4823C48.1128 22.6373 46.8823 22.3272 45.8838 21.615C45.2368 20.7971 44.9213 19.7662 45 18.7262C44.9909 17.9864 45.1032 17.2497 45.3327 16.546C49.2346 17.3761 52.5861 19.8547 54.5227 23.3423ZM42.8186 16.2664C42.5977 17.0807 42.4909 17.9223 42.5 18.7664C42.4207 20.4553 42.9999 22.1093 44.1162 23.3801C45.5561 24.5849 47.4201 25.1611 49.289 24.9786C49.5148 24.9786 49.7376 24.9859 49.9549 24.9951C51.9806 25.1074 53.9636 25.6244 55.7862 26.5149C56.6437 29.6991 56.3043 33.0865 54.8328 36.0376C53.8513 36.1395 52.8675 35.877 52.0673 35.3003C51.7981 35.0488 51.5619 34.7638 51.3648 34.4525C50.8655 33.6163 50.1111 32.962 49.2127 32.5848C46.9696 31.8036 44.4769 32.4102 42.8436 34.1351C41.4264 35.625 41.355 37.4072 41.2787 39.2938L41.25 39.9389C41.1914 41.203 41.3031 42.4695 41.5827 43.7036C40.9686 43.6682 40.3583 43.5913 39.7553 43.4735C40.1215 42.6501 40.185 41.7236 39.9353 40.8575C39.552 39.8852 38.8165 39.0936 37.8748 38.6413C37.1289 38.2763 36.5167 37.6855 36.1249 36.9525C35.5414 35.7281 35.5353 34.3066 36.109 33.0774C36.4411 32.492 36.9452 32.0221 37.5525 31.7309C38.606 31.1932 39.4391 30.3051 39.9091 29.2199C40.4132 27.7655 40.4352 26.1877 39.9713 24.7198C39.6576 23.3471 39.068 22.052 38.2385 20.9137C37.9169 20.4553 37.6319 19.9719 37.3865 19.469C37.1124 18.8293 36.9434 18.1494 36.886 17.456C38.6505 16.6601 40.5646 16.2494 42.5 16.25C42.6074 16.25 42.7112 16.264 42.8186 16.2664ZM34.541 18.8073C34.6717 19.3975 34.8639 19.9725 35.1148 20.5224C35.4126 21.1432 35.7599 21.7389 36.1536 22.3034C36.814 23.1891 37.2827 24.2022 37.5287 25.2789C37.8675 26.2439 37.89 27.2924 37.5928 28.2715C37.3194 28.8617 36.8427 29.3341 36.25 29.6026C35.2551 30.1245 34.4373 30.9289 33.8989 31.9153C32.9486 33.847 32.9419 36.1096 33.88 38.0475C34.4745 39.2065 35.4096 40.1562 36.5601 40.7672C37.2016 41.1651 37.4726 41.3537 37.5678 41.6424C37.6337 42.0215 37.5659 42.4121 37.3749 42.7459C34.1333 41.4319 31.5106 38.9367 30.0373 35.7635C30.8936 35.0091 31.6498 34.1479 32.2876 33.2013C33.9636 30.7348 34.3524 28.9587 33.4424 27.9236C32.796 27.3089 31.8585 27.1112 31.0187 27.4127C30.7324 27.4817 30.4383 27.5134 30.1441 27.5073C29.7443 27.4304 29.3811 27.2223 29.1126 26.9165C29.8718 23.6413 31.8024 20.7574 34.541 18.8073Z" fill="#53AFE6"/>
</g>
<defs>
<clipPath id="clip0">
<rect width="75" height="75" fill="white"/>
</clipPath>
</defs>
</svg>
