<svg width="57" height="72" viewBox="0 0 57 72" fill="none" xmlns="http://www.w3.org/2000/svg">
<path d="M53.2365 34.7402L40.7725 22.2756C40.4191 21.9334 40.0254 21.6352 39.6 21.3879V6.2C39.6 0 34.0627 0 33.4 0C32.7373 0 6 0 6 0C2.6877 0.00410157 0.00410157 2.6877 0 6V54C0.00410157 57.3123 2.6877 59.9959 6 60H28.8609C29.4867 66.7916 35.1797 71.9912 42 72H55.2C55.8627 72 56.4 71.4627 56.4 70.8V42.3756C56.4076 39.5104 55.2686 36.7605 53.2365 34.7402ZM2.4 54V6C2.4 4.01191 4.01191 2.4 6 2.4C6 2.4 30.9255 2.4 33.2 2.4C37.2 2.4 37.2 7 37.2 7C37.2 7 37.2 30.7748 37.2 47.5031L28.7748 39.0779C27.2695 37.51 25.0336 36.8789 22.9307 37.4279C20.8271 37.977 19.1859 39.6205 18.6393 41.7246C18.0926 43.8287 18.7266 46.0635 20.2969 47.567L21.7365 49.0143C21.7453 49.0225 21.7477 49.0342 21.7559 49.043C21.7646 49.0512 21.7752 49.0535 21.7846 49.0617L27.743 55.0283C28.4197 55.701 28.8006 56.6156 28.8 57.5701L6 57.6C4.01191 57.6 2.4 55.9881 2.4 54ZM21.9902 45.8654C21.3111 45.1922 20.9291 44.2752 20.9291 43.3195C20.9291 42.3633 21.3111 41.4469 21.9902 40.7736C23.4117 39.4148 25.6506 39.4148 27.0721 40.7736L27.7008 41.4012L22.6113 46.4906L21.9902 45.8654ZM54 69.6H42C36.0381 69.5936 31.2064 64.7619 31.2 58.8V57.5701C31.2035 55.9793 30.5719 54.4535 29.4457 53.3303L24.3094 48.1869L29.4 43.0969L41.1516 54.8484C41.6227 55.3031 42.3709 55.2967 42.8338 54.8338C43.2967 54.3709 43.3031 53.6227 42.8484 53.1516L39.6 49.9031V24.498L51.5402 36.4365C53.1199 38.0086 54.0053 40.1473 54 42.3756V69.6Z" fill="#53AFE6"/>
<path d="M13.2911 28.4543H15.8366V30.6364C15.8366 30.7426 15.8705 30.8295 15.9389 30.8974C16.007 30.9658 16.0942 31 16.2003 31H18.0979C18.1964 31 18.2816 30.9658 18.3536 30.8974C18.4256 30.8295 18.4615 30.7426 18.4615 30.6364V28.4543H24.2001C24.306 28.4543 24.3932 28.4206 24.4615 28.3522C24.5299 28.2839 24.5638 28.1969 24.5638 28.0907V26.6361C24.5638 26.5306 24.5299 26.443 24.4615 26.3751C24.3934 26.3067 24.306 26.2726 24.2001 26.2726H18.4613V24.9316H22.3249C23.84 24.9316 25.0765 24.4699 26.0351 23.5453C26.9934 22.6216 27.4727 21.4285 27.4727 19.9658C27.4727 18.5041 26.9934 17.3109 26.0351 16.3863C25.0767 15.4626 23.84 15 22.3249 15H16.2001C16.0939 15 16.007 15.0342 15.9387 15.1021C15.8705 15.1705 15.8364 15.258 15.8364 15.3635V22.5114H13.2911C13.1849 22.5114 13.0979 22.5474 13.0296 22.6193C12.9615 22.6913 12.9273 22.7765 12.9273 22.875V24.568C12.9273 24.6741 12.9613 24.7611 13.0296 24.8294C13.098 24.8978 13.1847 24.9316 13.2911 24.9316H15.8366V26.2725H13.2911C13.1849 26.2725 13.0979 26.3067 13.0296 26.3751C12.9615 26.443 12.9273 26.5304 12.9273 26.6361V28.0907C12.9273 28.1969 12.9613 28.2838 13.0296 28.3522C13.0979 28.4206 13.1849 28.4543 13.2911 28.4543ZM18.4613 17.4207H22.0976C22.9006 17.4207 23.5482 17.6555 24.0408 18.1252C24.5331 18.5949 24.7794 19.2087 24.7794 19.966C24.7794 20.7236 24.5331 21.3377 24.0408 21.8068C23.5482 22.2769 22.9006 22.5117 22.0976 22.5117H18.4613V17.4207Z" fill="#53AFE6"/>
<path d="M14 51.8001H9.20004C8.53734 51.8001 8.00004 51.2628 8.00004 50.6001V45.8001C8.00004 45.1374 7.46273 44.6001 6.80004 44.6001C6.13734 44.6001 5.60004 45.1374 5.60004 45.8001V50.6001C5.60004 52.5882 7.21195 54.2001 9.20004 54.2001H14C14.6627 54.2001 15.2 53.6628 15.2 53.0001C15.2 52.3374 14.6627 51.8001 14 51.8001Z" fill="#53AFE6"/>
<path d="M25.8 7.39998H30.6C31.2627 7.39998 31.8 7.93728 31.8 8.59998V13.4C31.8 14.0627 32.3373 14.6 33 14.6C33.6627 14.6 34.2 14.0627 34.2 13.4V8.59998C34.2 6.61189 32.5881 4.99998 30.6 4.99998H25.8C25.1373 4.99998 24.6 5.53728 24.6 6.19998C24.6 6.86267 25.1373 7.39998 25.8 7.39998Z" fill="#53AFE6"/>
</svg>
