<svg width="476" height="330" viewBox="0 0 476 330" fill="none" xmlns="http://www.w3.org/2000/svg">
<path d="M468.693 273.139C468.008 269.714 460.75 266.563 458.149 265.056C454.177 262.727 450.206 260.397 446.098 258.342C431.583 250.533 415.698 246.834 400.498 240.943C398.854 240.258 399.402 237.518 401.319 238.066C418.163 243.135 434.595 248.478 449.932 257.109C455.136 260.124 460.34 263.138 465.133 266.7C467.05 268.207 470.336 270.125 470.473 272.865C470.473 273.961 468.967 274.098 468.693 273.139Z" fill="#D9F6FF"/>
<path d="M461.024 279.715C442.538 261.494 416.108 252.314 391.597 245.738C389.269 245.053 390.227 241.491 392.555 242.176C417.478 249.163 444.181 259.302 462.257 278.619C463.078 279.304 461.846 280.537 461.024 279.715Z" fill="#D9F6FF"/>
<path d="M399.539 262.453C390.364 259.301 381.737 254.78 372.288 252.725C370.097 252.177 371.056 248.889 373.247 249.3C382.832 251.218 391.46 255.739 400.497 258.891C402.825 259.576 401.867 263.138 399.539 262.453Z" fill="#D9F6FF"/>
<path d="M438.429 246.697C429.391 243.683 421.586 238.34 412.822 234.641C411.179 233.956 411.863 231.353 413.506 231.901C422.544 235.189 430.487 240.806 439.251 244.642C440.483 245.19 439.662 247.108 438.429 246.697Z" fill="#D9F6FF"/>
<path d="M399.128 172.03C402.277 191.896 402.414 212.309 401.182 232.449C401.045 234.915 397.348 235.052 397.211 232.449C397.074 212.446 398.306 192.444 395.568 172.578C395.294 170.523 398.854 170.112 399.128 172.03Z" fill="#D9F6FF"/>
<path d="M311.077 100.378C321.347 100.104 329.974 90.6503 339.149 86.9512C349.283 82.8411 360.512 80.238 371.467 81.7451C373.795 82.0191 372.973 85.3072 370.919 85.5812C358.047 86.9512 345.585 87.7732 333.946 93.9383C326.688 97.7744 319.43 103.392 310.803 102.022C309.981 101.748 310.255 100.378 311.077 100.378Z" fill="#D9F6FF"/>
<path d="M334.904 52.0153C340.381 55.7144 345.996 59.1394 351.747 62.4275C353.938 63.6605 351.884 67.0856 349.83 65.8526C344.215 62.4275 338.601 58.8654 333.124 55.1663C331.206 53.7963 332.986 50.7822 334.904 52.0153Z" fill="#D9F6FF"/>
<path d="M203.718 225.325C192.9 226.01 182.081 226.421 171.126 226.421C168.524 226.421 168.524 222.448 171.126 222.448C181.944 222.448 192.9 222.174 203.718 221.763C205.909 221.763 205.909 225.188 203.718 225.325Z" fill="#D9F6FF"/>
<path d="M143.876 223.818C141.821 223.818 139.767 223.818 137.713 223.818C136.344 223.818 136.344 221.763 137.713 221.763C139.767 221.763 141.821 221.763 143.876 221.763C145.108 221.763 145.108 223.681 143.876 223.818Z" fill="#D9F6FF"/>
<path d="M256.849 238.614C248.085 240.395 239.184 239.984 230.146 239.847C228.503 239.847 228.503 237.381 230.146 237.244C238.91 237.107 247.811 237.107 256.575 236.696C257.671 236.696 257.945 238.477 256.849 238.614Z" fill="#D9F6FF"/>
<path d="M176.741 242.313C168.114 243.82 159.624 241.902 150.86 241.902C148.806 241.902 148.806 238.614 150.86 238.614C159.35 238.888 167.566 241.217 176.056 239.984C177.562 239.984 178.247 242.039 176.741 242.313Z" fill="#D9F6FF"/>
<path d="M100.74 230.394C95.5364 230.805 90.3329 230.942 85.2662 229.983C82.8013 229.435 83.7598 225.462 86.3616 226.147C91.1544 227.38 95.9473 227.243 100.74 227.38C102.657 227.38 102.657 230.257 100.74 230.394Z" fill="#D9F6FF"/>
<path d="M74.311 214.912C69.3813 215.049 64.3145 215.049 59.3847 214.912C56.9199 214.912 56.9199 211.213 59.3847 211.076C64.3145 210.939 69.3813 210.939 74.311 211.076C76.7759 211.213 76.7759 214.912 74.311 214.912Z" fill="#D9F6FF"/>
<path d="M326.962 267.385C318.472 266.563 310.119 269.44 301.902 271.084C293.549 272.728 285.196 274.235 276.98 276.016C260.273 279.578 243.704 283.962 227.408 289.168C195.091 299.444 163.732 312.322 133.195 326.981C131.551 327.803 130.045 325.337 131.688 324.515C162.499 308.623 194.68 295.744 227.682 285.606C244.525 280.4 261.506 276.153 278.623 272.728C287.661 270.947 296.836 269.577 305.874 267.933C312.994 266.563 319.841 264.919 327.099 266.152C327.921 266.289 327.784 267.522 326.962 267.385Z" fill="#D9F6FF"/>
<path d="M224.395 328.351C209.469 319.446 193.31 311.774 176.056 308.76C174.002 308.349 174.96 305.335 176.877 305.746C194.269 309.171 210.564 317.254 225.353 326.707C226.312 327.392 225.353 328.899 224.395 328.351Z" fill="#D9F6FF"/>
<path d="M244.799 319.72C228.229 313.281 211.934 306.294 195.364 300.128C193.447 299.443 194.269 296.292 196.186 296.977C213.166 302.868 229.188 310.678 245.483 317.939C246.579 318.35 245.894 320.131 244.799 319.72Z" fill="#D9F6FF"/>
<path d="M267.531 312.596C252.467 305.198 236.309 300.403 220.013 296.566C217.959 296.155 218.781 293.004 220.835 293.415C237.404 296.978 253.563 302.595 268.489 310.815C269.585 311.5 268.626 313.144 267.531 312.596Z" fill="#D9F6FF"/>
<path d="M284.237 293.826C271.639 290.264 259.041 286.839 246.305 283.414C244.251 282.866 245.073 279.578 247.264 280.126C259.999 283.414 272.597 286.976 285.059 290.812C287.113 291.36 286.291 294.374 284.237 293.826Z" fill="#D9F6FF"/>
<path d="M304.641 284.51C298.615 283.414 292.59 282.729 286.428 282.729C285.195 282.729 285.195 280.811 286.428 280.811C292.727 280.674 299.026 281.359 305.188 282.455C306.558 282.729 306.01 284.784 304.641 284.51Z" fill="#D9F6FF"/>
<path d="M172.906 324.104C165.512 323.693 158.254 322.871 150.859 322.049C148.805 321.912 148.805 318.898 150.859 318.898C158.254 318.898 165.512 319.72 172.906 320.405C175.234 320.679 175.234 324.241 172.906 324.104Z" fill="#D9F6FF"/>
<path d="M137.713 329.31C134.838 329.447 131.825 329.721 128.95 329.995C127.169 330.132 126.759 327.255 128.539 326.844C131.551 326.296 134.701 325.885 137.713 325.748C140.041 325.611 140.041 329.173 137.713 329.31Z" fill="#D9F6FF"/>
<path d="M157.021 285.469C118.679 285.88 82.8009 270.399 46.2384 261.357C6.93723 251.629 -33.1857 247.519 -73.1716 241.902C-74.9518 241.628 -74.541 238.614 -72.7607 238.751C-33.7334 242.861 5.43091 247.382 43.4997 256.835C81.2946 266.152 117.583 281.907 157.021 283.414C158.391 283.414 158.391 285.469 157.021 285.469Z" fill="#D9F6FF"/>
<path d="M95.6736 275.605C109.778 281.222 124.294 286.291 137.303 294.1C138.398 294.785 137.44 296.429 136.344 295.881C123.198 288.346 109.23 283.003 95.2627 277.386C94.1672 276.838 94.5781 275.194 95.6736 275.605Z" fill="#D9F6FF"/>
<path d="M65.4103 267.933C78.0086 276.29 90.7438 284.236 103.205 292.593C104.985 293.826 103.342 296.566 101.562 295.47C88.6898 287.524 76.0914 279.441 63.7669 270.81C61.9868 269.577 63.6301 266.837 65.4103 267.933Z" fill="#D9F6FF"/>
<path d="M22.1375 257.794C41.9936 270.947 62.9451 282.592 83.075 295.333C84.9921 296.566 83.3488 299.443 81.2947 298.347C60.4801 286.702 39.9395 274.509 20.7682 260.123C19.5357 259.027 20.6312 256.835 22.1375 257.794Z" fill="#D9F6FF"/>
<path d="M-10.3169 253.958C6.11566 265.193 23.2329 275.331 39.1177 287.25C40.8979 288.62 39.1178 291.771 37.3376 290.401C21.3158 278.619 4.33548 268.207 -11.8232 256.698C-13.6034 255.465 -11.9602 252.725 -10.3169 253.958Z" fill="#D9F6FF"/>
<path d="M-59.0663 244.779C-44.9617 253.41 -30.1724 260.946 -15.657 269.029C-14.0137 269.988 -15.52 272.454 -17.1633 271.495C-31.6787 263.412 -46.331 255.739 -60.0248 246.423C-60.9833 245.738 -60.1618 244.094 -59.0663 244.779Z" fill="#D9F6FF"/>
<path d="M-92.2058 238.066C-84.5373 242.998 -76.7319 248.204 -68.5156 252.314C-66.7355 253.273 -68.2418 255.739 -70.0219 254.917C-78.5121 251.081 -86.1807 246.012 -93.8492 240.943C-95.6294 239.71 -93.986 236.833 -92.2058 238.066Z" fill="#D9F6FF"/>
<path d="M-114.253 239.025C-109.734 242.039 -105.352 245.464 -100.97 248.615C-99.3265 249.848 -100.97 252.588 -102.613 251.355C-106.995 248.204 -111.24 244.779 -115.759 241.491C-117.265 240.532 -115.896 238.066 -114.253 239.025Z" fill="#D9F6FF"/>
<path d="M197.692 161.755C201.937 153.809 192.488 145.178 186.737 140.657C178.521 134.218 167.292 131.614 157.022 130.929C146.477 130.244 136.07 131.751 127.169 137.78C122.513 140.931 118.542 145.041 115.392 149.562C112.517 153.946 111.147 158.741 108.819 163.399C107.039 166.961 101.288 165.18 101.425 161.344C101.698 148.603 113.612 135.999 123.746 129.696C135.933 122.161 150.585 121.339 164.416 123.668C176.74 125.723 188.243 130.929 196.46 140.383C201.8 146.548 208.099 157.234 199.746 163.536C198.377 164.495 197.007 162.851 197.692 161.755Z" fill="#D9F6FF"/>
<path d="M250.413 118.736C237.678 122.024 225.08 125.586 211.934 126.819C207.963 127.23 207.826 120.791 211.934 120.517C224.532 119.832 236.856 116.955 249.318 114.763C251.92 114.352 253.015 118.051 250.413 118.736Z" fill="#D9F6FF"/>
<path d="M207.552 70.5109C199.062 78.8681 194.269 89.9654 187.285 99.5556C185.094 102.57 180.164 99.8296 182.355 96.6785C189.202 86.5402 194.817 75.306 203.991 66.9488C206.456 64.7568 210.017 68.1818 207.552 70.5109Z" fill="#D9F6FF"/>
<path d="M136.618 53.2484C135.385 63.3867 138.124 73.3879 138.809 83.3892C139.082 86.8143 133.468 86.9513 133.468 83.3892C133.331 73.1139 131.277 62.8386 134.153 52.8373C134.563 51.6043 136.754 51.8784 136.618 53.2484Z" fill="#D9F6FF"/>
<path d="M66.5055 75.7169C74.5848 82.567 82.5274 89.5542 89.922 97.2264C92.25 99.5555 88.5526 103.255 86.2246 100.926C79.1038 92.9793 71.4354 85.7181 64.7254 77.4979C64.0407 76.1279 65.41 74.7579 66.5055 75.7169Z" fill="#D9F6FF"/>
<path d="M383.243 167.783C367.632 170.386 351.474 169.564 335.726 169.564C319.156 169.564 302.724 169.427 286.154 169.29C253.152 169.016 220.013 168.605 186.874 168.468C120.459 168.331 54.0443 168.605 -12.5076 168.605C-48.6592 168.605 -85.4955 169.016 -120.826 160.522C-126.44 159.152 -123.975 150.932 -118.498 152.028C-85.9064 158.467 -53.4521 159.837 -20.4501 159.837C11.8673 159.837 44.1848 159.837 76.5022 159.974C142.369 159.974 208.374 159.974 274.241 161.207C292.453 161.481 310.803 161.892 329.016 162.166C346.955 162.577 365.441 161.755 383.106 164.769C384.75 165.043 384.75 167.646 383.243 167.783Z" fill="#D9F6FF"/>
<path d="M51.9897 131.614C62.26 136.683 75.2693 133.669 85.1288 139.56C87.0459 140.656 85.8133 143.945 83.6223 143.123C73.0781 139.697 60.206 139.971 51.0312 133.258C50.0726 132.436 50.8942 131.066 51.9897 131.614Z" fill="#D9F6FF"/>
<path d="M227.818 188.745C218.233 190.526 208.236 190.115 198.514 189.841C195.912 189.704 195.912 186.005 198.514 185.868C208.236 185.457 218.233 185.183 227.818 186.964C228.777 187.101 228.777 188.608 227.818 188.745Z" fill="#D9F6FF"/>
<path d="M172.085 188.745C162.636 189.019 153.324 189.43 143.876 189.293C142.095 189.293 142.095 186.553 143.876 186.416C153.324 186.279 162.636 186.553 172.085 186.964C173.317 186.964 173.317 188.745 172.085 188.745Z" fill="#D9F6FF"/>
<path d="M115.118 185.183C110.051 186.69 104.574 185.868 99.3702 187.512C97.5901 188.06 96.7685 185.32 98.5486 184.635C103.752 182.853 109.23 184.498 114.57 183.402C115.803 183.265 116.351 184.909 115.118 185.183Z" fill="#D9F6FF"/>
<path d="M201.527 207.377C194.132 210.254 186.053 208.473 178.384 208.199C175.919 208.062 175.919 204.5 178.384 204.5C185.916 204.5 193.584 206.555 200.979 205.322C202.212 205.185 202.759 206.829 201.527 207.377Z" fill="#D9F6FF"/>
<path d="M142.506 205.048C138.261 206.692 133.742 206.281 129.36 206.966C127.854 207.24 126.485 204.911 128.128 204.226C132.647 202.308 137.166 203.678 141.685 202.445C143.602 202.034 144.15 204.363 142.506 205.048Z" fill="#D9F6FF"/>
<path d="M248.222 216.419C240.143 218.475 232.2 216.556 224.121 215.871C222.204 215.734 222.204 212.857 224.121 212.857C231.79 212.994 239.869 215.323 247.537 214.09C249.044 213.679 249.728 216.008 248.222 216.419Z" fill="#D9F6FF"/>
<path d="M225.216 274.235C216.452 277.112 207.278 276.427 198.377 275.331C187.969 274.098 177.562 272.865 167.292 270.947C142.78 266.426 118.405 260.261 94.3038 254.096C46.5124 241.765 -1.00513 227.517 -49.3442 217.516C-62.7642 214.775 -76.1841 212.583 -89.8779 212.172C-102.202 211.761 -116.033 211.761 -127.125 217.79C-131.507 220.119 -135.478 213.542 -131.096 211.076C-113.568 201.075 -88.9193 203.541 -69.8849 206.144C-45.9208 209.432 -22.5043 215.872 0.912109 221.763C50.0728 234.367 98.5488 248.752 147.846 260.809C161.266 264.097 174.823 267.111 188.517 269.44C200.157 271.358 212.755 275.331 224.532 272.591C225.901 272.18 226.312 273.824 225.216 274.235Z" fill="#D9F6FF"/>
<path d="M474.718 240.806C450.343 232.86 423.914 234.915 398.854 238.34C372.562 241.902 346.407 246.286 320.526 252.04C292.59 258.206 264.792 264.919 237.404 272.728C210.838 280.263 184.272 288.757 157.296 294.511C128.265 300.677 97.8644 304.239 68.2858 302.869C64.3146 302.732 64.3146 296.977 68.2858 296.703C95.9473 295.196 123.335 293.963 150.586 288.62C178.11 283.277 204.95 274.783 231.927 267.111C285.059 252.04 338.875 239.984 393.787 233.819C420.901 230.668 449.247 229.024 475.266 238.888C476.498 239.299 476.087 241.217 474.718 240.806Z" fill="#D9F6FF"/>
<path d="M376.396 86.4032C400.908 130.792 413.095 182.991 413.78 233.682C413.78 237.929 407.755 237.792 407.344 233.682C404.879 208.473 403.236 183.402 398.169 158.467C393.102 134.08 385.708 109.831 374.753 87.3622C374.068 86.2662 375.711 85.1701 376.396 86.4032Z" fill="#D9F6FF"/>
<path d="M373.658 99.2815C391.186 141.342 391.734 190.115 392.281 235.052C392.281 239.573 385.161 239.573 385.161 235.052C385.297 213.268 385.297 191.485 383.791 169.701C382.148 146.274 379.683 122.161 372.015 99.8296C371.741 98.7336 373.247 98.3225 373.658 99.2815Z" fill="#D9F6FF"/>
<path d="M378.45 80.6492C380.915 69.1409 392.829 59.1396 402.825 54.3445C412.822 49.5494 424.188 48.4533 433.225 55.7145C434.321 56.5365 434.321 58.4546 433.773 59.5506C428.707 68.3188 419.121 66.2638 411.452 70.7849C411.041 69.1409 410.494 67.4968 410.083 65.7158C425.283 65.8528 438.703 67.4968 450.617 77.772C456.505 82.8412 465.543 95.4455 455.272 101.337C447.467 105.858 434.184 101.337 426.242 99.4186C421.997 98.4596 417.751 97.0896 413.369 96.5415C402.688 95.1715 391.596 97.3635 380.915 97.6376C377.355 97.6376 377.355 92.1574 380.915 92.0204C392.966 91.8834 405.701 89.4173 417.478 91.8834C426.105 93.6644 434.595 96.5416 443.359 97.5006C446.508 97.7746 451.301 98.5966 453.629 96.1305C458.148 91.3354 450.48 84.0742 447.056 81.1971C436.512 72.1549 423.64 70.5109 410.083 71.0589C407.207 71.1959 406.659 67.4968 408.714 65.9898C414.465 61.8797 424.598 62.7017 428.296 56.2625C428.433 57.4955 428.57 58.8656 428.844 60.0987C420.49 53.6595 409.535 57.2215 401.456 62.0167C392.829 67.0858 387.351 74.347 381.052 82.0192C379.957 83.3892 378.176 82.0192 378.45 80.6492Z" fill="#D9F6FF"/>
<path d="M377.081 85.7181C378.45 70.3738 379.546 54.8924 377.081 39.548C376.259 34.3419 375.164 29.1357 373.794 24.0666C372.562 19.5455 371.055 12.9693 366.947 9.95525C368.317 9.40724 369.686 8.85921 371.055 8.31119C367.769 22.4225 372.014 36.945 371.466 51.1933C371.329 53.9334 367.906 55.5774 365.989 53.5223C356.54 43.5211 354.486 28.9987 345.722 18.5865C342.572 14.7504 338.19 11.5993 333.808 9.27023C330.933 7.7632 327.509 6.11914 327.509 11.0513C327.509 13.2433 329.015 15.7094 329.974 17.4904C335.452 27.3547 343.394 35.7119 350.104 44.7542C359.279 57.2215 366.673 71.8809 372.425 86.1292C373.931 89.9653 367.632 91.7463 366.126 87.9102C359.553 70.9218 350.378 54.6184 339.286 40.096C333.261 32.1498 320.114 18.9975 322.442 7.9002C324.77 -3.74509 339.423 5.98218 344.352 9.81828C357.362 19.9565 359.142 37.63 370.508 49.0012C368.727 49.8233 366.81 50.5083 365.03 51.3303C365.167 36.6709 361.881 21.4635 365.578 6.94116C365.989 5.43412 368.18 4.20116 369.686 5.29718C378.313 11.8734 379.956 26.2587 381.6 36.2599C384.202 52.9743 383.517 69.8258 378.998 86.1292C378.861 87.0882 376.944 86.9512 377.081 85.7181Z" fill="#D9F6FF"/>
<path d="M366.126 84.348C358.183 78.7309 347.776 74.7579 338.601 71.7438C330.522 69.1407 314.774 63.5235 308.201 71.6067C308.201 70.3737 308.201 69.2777 308.201 68.0447C316.554 75.4429 328.057 77.2239 336.684 84.348C338.327 85.7181 337.369 88.5952 335.452 89.0062C320.114 92.4313 294.233 88.8692 293.549 111.201C292.453 110.105 291.494 109.146 290.399 108.05C303.545 109.694 316.554 103.666 328.468 99.0074C341.751 93.9383 355.718 88.8692 370.234 89.4172C374.205 89.5542 374.205 95.8563 370.234 95.5823C354.76 95.0343 339.834 101.2 325.592 106.68C314.089 111.064 302.039 115.722 289.577 114.078C288.208 113.941 287.249 112.297 287.249 111.064C287.66 99.6924 293.686 91.6093 304.367 87.9102C313.952 84.4851 324.086 85.5811 333.945 83.526C333.534 85.0331 333.124 86.6772 332.713 88.1842C324.223 81.06 312.857 79.0049 304.64 71.4698C303.545 70.5107 303.819 68.8666 304.64 67.9076C312.035 59.1394 327.098 63.2496 336.273 66.2636C347.365 69.8257 358.868 74.7578 367.632 82.567C368.454 83.389 367.221 85.0331 366.126 84.348Z" fill="#D9F6FF"/>
<path d="M370.782 95.8565C361.607 92.9795 352.843 105.036 348.598 111.475C343.394 119.284 338.465 129.011 338.875 138.602C336.958 137.78 335.178 137.095 333.261 136.273C340.108 130.792 343.805 122.298 349.42 115.859C351.337 113.667 355.308 115.448 355.171 118.325C355.034 124.901 353.391 131.614 352.569 138.191C352.158 141.89 351.748 145.589 351.748 149.288C351.748 150.521 351.611 152.302 352.159 153.398C352.98 154.905 351.611 153.946 352.569 153.946C355.582 153.672 358.321 148.466 359.553 146.274C362.292 141.479 364.346 136.41 366.263 131.203C369.55 122.298 373.384 111.612 372.562 102.022C372.151 97.5006 379.272 97.5006 379.546 102.022C380.642 114.352 375.301 128.052 370.645 139.15C367.633 146.548 362.429 159.7 352.98 160.933C337.506 162.988 348.05 125.586 348.187 118.325C350.104 119.147 352.021 119.969 353.939 120.791C348.05 127.641 344.353 136.273 336.958 141.616C334.904 143.123 332.029 141.068 332.029 138.739C332.029 126.682 338.875 115.037 346.407 106.132C351.885 99.5556 361.607 90.5134 370.919 93.9384C372.562 94.3495 372.151 96.2675 370.782 95.8565Z" fill="#D9F6FF"/>
<path d="M387.078 97.9115C391.734 91.8833 400.224 99.8296 403.784 103.255C410.768 110.242 418.026 119.969 419.943 129.833C420.217 131.477 419.669 132.847 418.436 133.669C412.274 137.779 404.469 131.888 399.813 128.052C395.979 124.901 392.555 121.476 389.269 117.777C387.078 115.311 382.969 111.475 382.422 108.05C382.011 105.447 383.791 103.118 386.667 103.803C389.679 104.625 392.007 109.968 393.925 112.16C396.8 115.585 409.672 131.203 415.013 127.778C414.465 129.011 413.917 130.381 413.507 131.614C412.274 124.353 407.755 117.503 403.51 111.612C401.045 108.187 393.651 96.9525 388.173 99.2815C387.351 99.5555 386.53 98.4595 387.078 97.9115Z" fill="#D9F6FF"/>
<path d="M380.368 63.7976C378.861 49.6863 383.928 33.5198 389.132 20.6415C392.692 12.0103 400.087 -4.56704 412.137 1.1871C413.37 1.73512 413.78 3.37916 413.506 4.61219C408.988 24.4777 396.663 41.4661 391.596 61.1946C390.638 64.8937 384.886 63.3866 385.845 59.5505C390.912 39.822 403.236 22.9706 407.755 2.96813C408.166 4.06416 408.714 5.16019 409.125 6.39322C395.705 -0.182948 384.202 55.7145 382.832 64.2087C382.695 65.7157 380.504 65.1676 380.368 63.7976Z" fill="#D9F6FF"/>
<path d="M359.964 61.3315C347.913 52.5632 331.754 37.9039 315.459 42.288C316.007 40.781 316.691 39.4109 317.239 37.9039C325.045 50.2342 336.137 58.8654 346.955 68.1816C349.83 70.6477 346.133 75.1688 342.983 73.2508C330.248 65.7156 319.43 53.5223 312.172 40.7809C311.214 39.1369 312.035 36.9448 313.953 36.3968C331.207 32.4237 350.926 46.6721 361.333 59.2764C362.155 60.5094 361.059 62.1535 359.964 61.3315Z" fill="#D9F6FF"/>
<path d="M401.593 166.55C410.494 162.988 423.092 165.454 432.541 165.317C438.155 165.317 443.77 165.591 449.384 166.002C454.998 166.413 461.024 166.002 466.501 167.646C468.555 168.194 468.555 171.071 466.501 171.756C461.024 173.263 454.998 172.304 449.384 171.893C443.77 171.482 438.155 171.208 432.541 171.345C422.818 171.482 410.631 172.578 401.593 168.879C400.497 168.331 400.497 166.961 401.593 166.55Z" fill="#D9F6FF"/>
</svg>
