<svg width="75" height="75" viewBox="0 0 75 75" fill="none" xmlns="http://www.w3.org/2000/svg">
<g clip-path="url(#clip0)">
<path d="M74.8746 34.7258C74.918 34.6085 74.943 34.4856 74.9485 34.3604C74.9485 34.2284 74.9271 34.097 74.8862 33.9717L74.7896 33.6986C73.7679 23.8237 68.8659 14.7592 61.161 8.4994C60.6104 8.05088 60.0348 7.64574 59.4592 7.23022C59.4305 7.20639 59.4152 7.17278 59.384 7.15017C59.3529 7.12756 59.3278 7.13 59.3015 7.1135C52.9312 2.547 45.294 0.0850153 37.4559 0.0703497C37.1332 0.0703497 36.8088 0.0703497 36.5674 0.0954034C32.3865 0.176675 28.2508 0.972284 24.3381 2.44801C20.9461 -0.197908 16.3417 -0.677596 12.4767 1.21243C8.6117 3.10246 6.16316 7.03162 6.16927 11.3335C6.24443 12.7647 6.57685 14.1701 7.15186 15.4821C5.87473 17.2279 4.75037 19.08 3.79161 21.0189C3.77266 21.0489 3.76167 21.0813 3.74517 21.1124C-5.12752 39.4585 2.25539 61.5333 20.3802 70.8496C38.5045 80.1665 60.7522 73.3232 70.5073 55.4306C73.1789 50.5084 74.6974 45.0436 74.9473 39.4493C74.9864 38.8456 74.9998 38.2302 74.9998 37.6143C74.9998 36.6445 74.9497 35.6833 74.8746 34.7258ZM71.2381 28.3035C71.0792 28.1623 70.9326 27.9992 70.7664 27.869C69.1311 26.6273 67.2778 25.7015 65.3022 25.14C63.5032 24.6884 61.623 24.6688 59.8148 25.0825C58.2768 25.4308 56.6819 25.4388 55.1402 25.1058C52.1484 24.4525 49.7842 23.9374 48.5303 21.9349C46.7343 19.0562 47.5764 15.0103 49.4713 13.5865C50.0958 13.1557 50.8664 12.9914 51.6125 13.1295C52.9397 13.2382 54.2737 13.0134 55.4921 12.4762C56.7888 11.8688 57.9407 10.9919 58.8713 9.90302C59.1078 10.0857 59.3577 10.2501 59.5893 10.4389C65.2368 15.0366 69.3084 21.2817 71.2381 28.3035ZM17.4325 2.57328C22.2678 2.58122 26.1854 6.49877 26.1927 11.3335C26.1927 15.0769 20.5703 23.6471 17.4325 27.9918C14.4572 23.971 11.8717 19.6752 9.71223 15.1631C9.12378 13.9648 8.77058 12.665 8.6722 11.3335C8.6777 6.49755 12.5965 2.57878 17.4325 2.57328ZM2.41487 37.6143C2.41976 35.2825 2.65502 32.9561 3.11699 30.6701C3.25081 32.4098 3.47752 33.9577 3.68039 35.3002C4.45584 40.4313 5.18851 45.2685 8.9704 49.692C10.5518 51.5558 13.2002 54.6716 17.295 55.1324C21.3897 55.5931 26.5172 53.2374 27.9984 52.5042L28.5667 52.2176C29.3538 51.722 30.2532 51.4342 31.1815 51.3804C32.7647 51.524 34.2313 52.2732 35.2762 53.4715C37.4119 55.8357 37.9539 59.7832 36.436 61.9189C35.9496 62.5532 35.278 63.02 34.5136 63.2547C33.2053 63.6922 32.0932 64.5788 31.3752 65.7576C30.3174 67.6727 30.1206 69.9464 30.8344 72.0149C14.3527 68.8215 2.44054 54.4027 2.41487 37.6143ZM37.4559 72.6553C36.2466 72.6553 35.0385 72.593 33.8353 72.4689C33.7327 72.3375 33.6373 72.2007 33.5499 72.0583C32.7042 70.494 32.6951 68.61 33.5261 67.0378C33.9777 66.3204 34.6774 65.7943 35.4913 65.5596C36.6847 65.1483 37.726 64.3839 38.4758 63.3683C40.6524 60.3075 40.0364 55.0046 37.1369 51.7972C35.6288 50.0727 33.495 49.0217 31.209 48.8775H31.1533C29.8353 48.9172 28.5508 49.2997 27.4252 49.9878L26.8912 50.2579C24.1566 51.6059 20.266 52.9386 17.573 52.6355C14.4651 52.2878 12.3068 49.7446 10.8751 48.0605C7.55578 44.1808 6.90622 39.8881 6.15582 34.9201C5.35044 30.6701 5.31866 26.3102 6.0605 22.0486C6.73084 20.6914 7.48795 19.3788 8.32817 18.1188C8.36972 18.2019 8.41555 18.2869 8.45344 18.3694C8.53349 18.5282 8.61598 18.6859 8.70336 18.8448C8.82863 19.0812 8.9539 19.3177 9.07917 19.556C9.16533 19.7161 9.25271 19.8762 9.34193 20.0376C9.47453 20.2753 9.60835 20.513 9.7434 20.7507C9.83384 20.9083 9.92366 21.0666 10.0153 21.2243C10.1546 21.462 10.294 21.6984 10.4345 21.9349C10.5268 22.0901 10.6184 22.2441 10.7119 22.3981C10.8598 22.648 11.0089 22.8821 11.158 23.1235C11.243 23.2603 11.3267 23.399 11.4079 23.5341C11.5931 23.8311 11.777 24.1189 11.961 24.4104C12.0098 24.4855 12.0587 24.5644 12.1064 24.6383C12.3355 24.9933 12.5629 25.3398 12.7859 25.6777C12.8708 25.803 12.9533 25.9283 13.0364 26.0535C13.1739 26.2601 13.3114 26.4666 13.4452 26.664L13.7422 27.0984C13.8498 27.2573 13.9585 27.4162 14.0636 27.5677L14.3637 27.9992C14.4566 28.1336 14.5494 28.265 14.638 28.3909C14.7266 28.5173 14.8269 28.6603 14.9197 28.7893C15.012 28.9182 15.075 29.008 15.1489 29.1119L15.3988 29.4572L15.6029 29.7401L15.8021 30.0145L15.9647 30.2344L16.1174 30.4422L16.2085 30.5675C16.3203 30.719 16.4052 30.8327 16.4291 30.8638C16.665 31.1791 17.0359 31.3649 17.43 31.3649C17.8241 31.3649 18.1951 31.1791 18.4309 30.8638C19.4814 29.4712 28.6956 17.1179 28.6956 11.3335C28.6956 10.9681 28.673 10.6051 28.6382 10.2446C28.6272 10.1334 28.6095 10.0222 28.5954 9.91097C28.563 9.66043 28.5245 9.40989 28.4708 9.15997C28.4469 9.0347 28.4207 8.91737 28.3932 8.79699C28.3351 8.54646 28.2679 8.29653 28.1915 8.04599C28.1603 7.94578 28.1341 7.84434 28.1011 7.74596C27.9886 7.41048 27.8621 7.07867 27.7185 6.75603C27.691 6.69431 27.658 6.63076 27.6293 6.57454C27.5041 6.31423 27.3794 6.05636 27.2352 5.8046C27.1729 5.69216 27.1038 5.58339 27.0366 5.47279C26.9162 5.27542 26.7909 5.0811 26.6608 4.88983C26.5832 4.77862 26.5044 4.6674 26.4231 4.55802C26.3803 4.50303 26.3443 4.44437 26.2978 4.39059C28.9016 3.51371 31.6019 2.95397 34.3401 2.7236C32.3889 6.4065 31.7516 9.8132 32.48 12.8606C33.0232 14.9016 34.0541 16.7806 35.484 18.3357C36.6615 19.7938 37.5084 20.8448 37.4559 22.5607C37.3483 26.1898 33.2499 29.2109 31.699 30.3524C29.6648 31.8171 27.391 32.9152 24.9791 33.5984C22.706 34.3408 20.745 34.9812 19.9953 37.2189C19.254 40.174 20.4713 43.2746 23.0255 44.9355C24.5563 45.7623 26.3601 45.9217 28.0125 45.3761C29.8224 44.9557 31.6935 44.8658 33.5353 45.1121C35.9129 45.4488 37.9631 45.7378 38.9353 47.0993C39.5121 47.9126 39.4822 48.7534 39.3698 50.2958C39.1131 52.4791 39.3349 54.6924 40.0187 56.7816C40.5894 58.4938 41.4517 61.0793 43.5232 61.3775C43.6576 61.3988 43.7939 61.4098 43.9295 61.4098C45.3955 61.4098 46.2925 60.1156 47.236 58.7541C47.6528 58.1522 48.1123 57.5027 48.6629 56.8507C51.2385 61.012 53.8551 64.4847 53.9767 64.6497C54.2132 64.965 54.5841 65.1502 54.9776 65.1502C55.3718 65.1502 55.7427 64.965 55.9792 64.6497C58.6941 61.0139 61.1689 57.2033 63.3865 53.2442C64.924 53.6896 66.3881 54.3569 67.7324 55.2252C61.4708 66.0191 49.9345 72.6608 37.4559 72.6553ZM60.8145 38.5993C62.674 40.2578 63.7373 42.6311 63.7367 45.1231C63.7367 46.0232 63.3712 47.8075 61.6358 51.1965C59.6547 54.8684 57.4304 58.4028 54.9764 61.7765C53.7989 60.1358 51.7726 57.2234 49.9595 54.1626C48.9488 52.4846 48.0463 50.7449 47.2562 48.9526C46.6677 47.7543 46.3145 46.4546 46.2161 45.1231C46.2216 40.2871 50.1404 36.3683 54.9764 36.3628C55.2471 36.3628 55.5154 36.375 55.7824 36.3995C57.6535 36.5688 59.4195 37.3411 60.8145 38.5993ZM72.4529 39.3204C72.2372 44.0806 71.0377 48.7443 68.9289 53.0175C67.5577 52.1503 66.0801 51.4623 64.5341 50.9698C65.5008 49.1604 66.0819 47.1689 66.2396 45.1231C66.2292 40.8285 63.7874 36.9103 59.9358 35.0087L59.857 34.9739C59.5771 34.8388 59.293 34.7123 59.0027 34.5987C58.8035 34.5211 58.597 34.4606 58.3929 34.3958C58.2676 34.3579 58.1552 34.3109 58.0336 34.2705C57.7109 34.1789 57.3828 34.1043 57.0528 34.0426H57.0363C56.8365 34.0053 56.6336 33.9852 56.4307 33.9589C53.2129 33.5134 49.9602 34.4893 47.5189 36.6323C45.0771 38.7759 43.6882 41.8746 43.7132 45.1231C43.8104 46.7913 44.2314 48.4253 44.9525 49.9328C45.654 51.5301 46.4453 53.0865 47.3228 54.594C46.5406 55.4501 45.8245 56.3637 45.1798 57.3273C44.8357 57.917 44.4013 58.4486 43.8923 58.9032C43.6417 58.8654 43.1779 58.3313 42.3903 55.9897C41.8159 54.2121 41.6356 52.33 41.8635 50.476C42.1886 48.8109 41.869 47.0846 40.9701 45.6462C39.3722 43.4115 36.5827 43.018 33.8683 42.633C31.7583 42.3446 29.6135 42.4411 27.5383 42.9171C25.9373 43.2233 25.1942 43.3375 24.3442 42.8078C22.7915 41.7433 22.0155 39.8606 22.3668 38.0109C22.7011 37.0099 23.7026 36.6482 25.746 35.9772C28.4145 35.2116 30.9297 33.9894 33.1809 32.3646C35.0043 31.027 39.814 27.4773 39.9588 22.6346C40.0389 19.985 38.7135 18.3504 37.4321 16.7702C36.2478 15.5016 35.3862 13.9672 34.9194 12.296C34.2545 9.50766 35.0782 6.23785 37.3123 2.57328H37.4559C44.3457 2.58306 51.0808 4.61913 56.8224 8.42791C56.1594 9.16669 55.3571 9.76676 54.4607 10.1939C53.5881 10.5715 52.6342 10.7206 51.6876 10.6278C50.3714 10.4652 49.0429 10.8068 47.9681 11.5841C45.1303 13.7204 43.8586 19.168 46.4092 23.2591C48.2247 26.1586 51.3259 26.8345 54.7124 27.5726C56.5352 27.9576 58.4191 27.9497 60.2389 27.5488C61.6994 27.2005 63.2221 27.2048 64.6801 27.5629C66.3209 28.0358 67.8607 28.807 69.2234 29.8366C70.6386 31.0105 71.7117 32.543 72.3307 34.2742C72.4334 35.3796 72.4969 36.4881 72.4969 37.6143C72.4969 38.174 72.4859 38.7405 72.448 39.3204H72.4529Z" fill="#53AFE6"/>
<path d="M17.4325 15.0879C20.197 15.0879 22.4383 12.8471 22.4383 10.082C22.4383 7.31756 20.197 5.07617 17.4325 5.07617C14.668 5.07617 12.4266 7.31756 12.4266 10.082C12.4266 12.8471 14.668 15.0879 17.4325 15.0879ZM17.4325 7.5791C18.8147 7.5791 19.9354 8.6998 19.9354 10.082C19.9354 11.4643 18.8147 12.585 17.4325 12.585C16.0503 12.585 14.9296 11.4643 14.9296 10.082C14.9296 8.6998 16.0503 7.5791 17.4325 7.5791Z" fill="#53AFE6"/>
<path d="M49.9706 43.8716C49.9706 46.6366 52.212 48.8774 54.9764 48.8774C57.7409 48.8774 59.9823 46.6366 59.9823 43.8716C59.9823 41.1071 57.7409 38.8657 54.9764 38.8657C52.212 38.8657 49.9706 41.1071 49.9706 43.8716ZM57.4794 43.8716C57.4794 45.2538 56.3587 46.3745 54.9764 46.3745C53.5942 46.3745 52.4735 45.2538 52.4735 43.8716C52.4735 42.4893 53.5942 41.3686 54.9764 41.3686C56.3587 41.3686 57.4794 42.4893 57.4794 43.8716Z" fill="#53AFE6"/>
</g>
<defs>
<clipPath id="clip0">
<rect width="75" height="75" fill="white"/>
</clipPath>
</defs>
</svg>
