<svg width="15" height="25" viewBox="0 0 15 25" fill="none" xmlns="http://www.w3.org/2000/svg">
<path d="M7.49634 25C8.36018 25 9.18741 24.7499 9.89019 24.2774C10.2928 24.0064 10.388 23.4714 10.1025 23.0892C9.81698 22.7071 9.25329 22.6167 8.85066 22.8877C8.06003 23.4227 6.93265 23.4227 6.14202 22.8877C5.98097 22.7835 5.80527 22.7279 5.62226 22.7279C5.34407 22.7279 5.06589 22.853 4.89019 23.0892C4.60468 23.4714 4.69985 24.0064 5.10249 24.2774C5.80527 24.7568 6.6325 25 7.49634 25Z" fill="white"/>
<path d="M7.75988 20.5044H7.24012C3.25037 20.5044 9.53674e-07 17.4194 9.53674e-07 13.6326V6.87187C9.53674e-07 3.08505 3.25037 0 7.24012 0H7.75988C11.7496 0 15 3.08505 15 6.87187V13.6326C14.9927 17.4194 11.7496 20.5044 7.75988 20.5044ZM13.1991 6.87187C13.1991 4.02307 10.754 1.70234 7.75256 1.70234H7.2328C4.23133 1.70234 1.78624 4.02307 1.78624 6.87187V13.6326C1.78624 16.4814 4.23133 18.8021 7.2328 18.8021H7.75256C10.754 18.8021 13.1991 16.4814 13.1991 13.6326V6.87187Z" fill="white"/>
<path d="M7.49634 8.76876C6.99854 8.76876 6.5959 8.3866 6.5959 7.91412V4.71095C6.5959 4.23846 6.99854 3.85631 7.49634 3.85631C7.99414 3.85631 8.39678 4.23846 8.39678 4.71095V7.91412C8.39678 8.39355 7.99414 8.76876 7.49634 8.76876Z" fill="white"/>
</svg>
