<svg width="170" height="170" viewBox="0 0 170 170" fill="none" xmlns="http://www.w3.org/2000/svg">
<circle opacity="0.9" cx="85" cy="85" r="82.5" stroke="#E8F6FF" stroke-width="5"/>
<circle opacity="0.8" cx="85" cy="85" r="75" fill="#E8F6FF"/>
<path d="M60.178 74.764V63.934L70.248 49.418H67.626L59.076 61.882L50.526 49.418H47.904L57.974 63.934V74.764H60.178Z" fill="black"/>
<path d="M90.0522 74.764V72.788H76.1442V62.756H89.7862V60.78H76.1442V51.394H90.0522V49.418H73.9782V74.764H90.0522Z" fill="black"/>
<path d="M103.293 75.22C110.133 75.22 112.299 71.306 112.299 68.038C112.299 58.576 97.0994 62.148 97.0994 55.65C97.0994 52.914 99.6454 50.976 103.027 50.976C105.877 50.976 108.461 51.964 110.285 54.168L111.729 52.572C109.753 50.33 106.941 49 103.141 49C98.5434 49 94.8194 51.622 94.8194 55.764C94.8194 64.618 110.019 60.742 110.019 68.19C110.019 70.356 108.537 73.244 103.331 73.244C99.7214 73.244 97.0614 71.458 95.4274 69.558L94.0214 71.192C95.9594 73.548 99.1134 75.22 103.293 75.22Z" fill="black"/>
<path d="M119.294 68.152L119.788 49.418H117.242L117.736 68.152H119.294ZM118.496 75.106C119.408 75.106 120.206 74.346 120.206 73.434C120.206 72.56 119.408 71.8 118.496 71.8C117.584 71.8 116.862 72.56 116.862 73.434C116.862 74.346 117.584 75.106 118.496 75.106Z" fill="black"/>
<path d="M47.334 79.778H122.676V80.538H47.334V79.778Z" fill="black"/>
<path d="M65.5747 125.479C72.2297 125.479 77.4547 122.729 81.1947 118.549V104.469H63.7047V111.289H73.3847V115.689C71.8997 117.064 68.8197 118.494 65.5747 118.494C58.9197 118.494 54.0797 113.379 54.0797 106.449C54.0797 99.519 58.9197 94.404 65.5747 94.404C69.4797 94.404 72.6147 96.604 74.2647 99.189L80.7547 95.669C78.0047 91.324 73.2197 87.474 65.5747 87.474C54.8497 87.474 46.0497 94.844 46.0497 106.449C46.0497 117.999 54.8497 125.479 65.5747 125.479Z" fill="black"/>
<path d="M104.775 125.424C115.885 125.424 123.97 117.504 123.97 106.449C123.97 95.394 115.885 87.474 104.775 87.474C93.7196 87.474 85.6346 95.394 85.6346 106.449C85.6346 117.504 93.7196 125.424 104.775 125.424ZM104.775 118.494C98.0096 118.494 93.6646 113.269 93.6646 106.449C93.6646 99.574 98.0096 94.404 104.775 94.404C111.54 94.404 115.94 99.574 115.94 106.449C115.94 113.269 111.54 118.494 104.775 118.494Z" fill="black"/>
</svg>
