<svg width="336" height="329" viewBox="0 0 336 329" fill="none" xmlns="http://www.w3.org/2000/svg">
<g opacity="0.4">
<path d="M164.522 258.634C172.332 262.284 181.185 263.168 189.506 265.138C198.63 267.3 207.632 269.933 216.555 272.762C234.131 278.279 251.595 284.238 268.879 290.645C273.65 292.427 278.494 294.109 283.21 296.031C286.968 297.57 290.649 299.955 294.772 300.177C295.7 300.224 295.833 298.913 294.911 298.771C291.046 298.067 287.636 296.148 284.018 294.666C279.978 293.014 275.848 291.586 271.752 290.075C263.11 286.871 254.446 283.724 245.714 280.744C228.7 274.965 211.478 269.298 194.022 265.031C184.295 262.66 174.114 261.666 164.673 258.175C164.403 258.034 164.212 258.51 164.522 258.634Z" fill="white"/>
<path d="M236.42 278.839C239.262 279.978 242.36 279.66 245.347 279.947C249.183 280.315 252.963 280.985 256.788 281.381C257.514 281.445 257.665 280.335 256.922 280.233C253.328 279.832 249.778 279.319 246.179 279.014C243.017 278.754 239.705 279.278 236.639 278.374C236.302 278.239 236.111 278.715 236.42 278.839Z" fill="white"/>
<path d="M250.064 283.495C255.385 284.23 260.695 284.831 266 285.69C266.579 285.792 266.629 284.935 266.1 284.788C260.907 283.487 255.395 282.902 250.035 282.996C249.765 283.018 249.788 283.449 250.064 283.495Z" fill="white"/>
<path d="M261.789 287.154C267.487 288.171 273.141 289.299 278.822 290.439C279.486 290.575 279.8 289.466 279.13 289.263C273.516 287.63 267.705 286.893 261.906 286.129C261.203 286.009 261.114 287.046 261.789 287.154Z" fill="white"/>
<path d="M274.741 292.475C279.225 293.752 283.871 294.217 288.394 295.315C288.963 295.445 289.22 294.476 288.635 294.307C284.129 293.086 279.471 292.649 274.859 291.937C274.555 291.88 274.421 292.379 274.741 292.475Z" fill="white"/>
<path d="M289.983 297.706C293.15 298.52 296.423 298.5 299.635 299.04C300.31 299.148 300.388 298.14 299.752 298.015C296.585 297.363 293.363 297.501 290.157 297.028C289.757 296.966 289.595 297.615 289.983 297.706Z" fill="white"/>
<path d="M306.541 276.922C306.473 277.09 306.406 277.258 306.367 277.437C306.294 277.7 306.632 277.835 306.761 277.595C306.856 277.438 306.923 277.27 306.991 277.102C307.103 276.822 306.653 276.642 306.541 276.922Z" fill="white"/>
<path d="M305.46 265.28C305.716 268.307 305.033 271.152 304.429 274.126C303.713 277.705 302.997 281.284 302.174 284.886C300.679 291.304 298.391 297.664 297.324 304.157C297.852 304.141 298.37 304.153 298.87 304.127C298.266 301.48 295.166 300.66 293.073 299.529C292.347 299.14 291.673 300.332 292.377 300.777C293.772 301.694 296.906 302.592 297.341 304.358C297.561 305.194 298.776 305.258 298.888 304.328C299.853 297.601 302.079 290.988 303.483 284.306C304.205 280.794 304.831 277.276 305.469 273.731C305.944 270.997 306.666 267.973 305.876 265.22C305.814 264.967 305.437 265.011 305.46 265.28Z" fill="white"/>
<path d="M246.732 260.522C253.37 261.558 259.761 263.697 266.169 265.713C266.783 265.894 267.181 264.981 266.551 264.761C260.081 262.656 253.594 260.673 246.782 259.99C246.439 259.95 246.389 260.482 246.732 260.522Z" fill="white"/>
<path d="M189.496 235.18C187.627 239.272 183.424 242.265 179.477 244.128C175.441 246.051 170.645 247.346 166.358 245.497C165.739 245.249 165.419 246.128 165.988 246.421C170.27 248.69 175.853 247.061 179.895 245.042C183.987 242.978 188.337 239.783 189.974 235.372C190.03 235.069 189.608 234.9 189.496 235.18Z" fill="white"/>
<path d="M171.288 253.646C173.567 255.209 176.301 255.72 178.906 256.471C182.135 257.376 185.347 258.241 188.61 259.061C195.609 260.826 202.618 262.401 209.645 264.015C223.63 267.248 237.615 270.643 251.449 274.498C259.145 276.64 266.785 278.923 274.398 281.356C275.123 281.582 275.561 280.49 274.835 280.264C248.381 271.644 221.3 265.729 194.235 259.528C190.134 258.6 186.027 257.604 181.943 256.552C178.539 255.675 174.602 255.234 171.625 253.294C171.31 253.102 171.029 253.477 171.288 253.646Z" fill="white"/>
<path d="M273.919 249.716C273.081 254.903 272.434 260.102 271.416 265.249C270.359 270.576 269.066 275.84 267.705 281.11C267.542 281.76 268.487 282.171 268.689 281.505C270.118 276.392 271.299 271.245 272.244 266.036C273.245 260.687 274.139 255.197 274.302 249.739C274.324 249.521 273.953 249.47 273.919 249.716Z" fill="white"/>
<path d="M298.49 268.984C298.262 276.723 296.296 284.154 294.538 291.637C294.364 292.314 295.461 292.429 295.634 291.751C297.505 284.314 299.105 276.736 299.063 269.019C299.063 268.694 298.512 268.603 298.49 268.984Z" fill="white"/>
<path d="M273.245 281.706C276.954 283.777 280.758 285.692 284.573 287.578C286.373 288.462 288.174 289.346 289.964 290.258C291.95 291.249 293.903 292.487 295.99 293.226C296.564 293.423 297.07 292.651 296.535 292.275C293.259 289.857 288.966 288.429 285.292 286.762C281.319 284.942 277.363 283.162 273.447 281.202C273.121 281.039 272.947 281.554 273.245 281.706Z" fill="white"/>
<path d="M283.122 272.215C278.861 274.536 274.449 276.503 269.923 278.263C269.187 278.553 269.677 279.692 270.414 279.402C274.99 277.597 279.346 275.445 283.533 272.899C283.921 272.665 283.51 271.98 283.122 272.215Z" fill="white"/>
<path d="M276.388 270.036C273.712 271.335 270.974 272.544 268.197 273.608C265.577 274.605 262.738 275.904 259.938 276.211C259.359 276.271 259.382 277.19 259.956 277.225C262.639 277.456 265.331 276.033 267.777 275.064C270.841 273.855 273.82 272.45 276.765 270.967C277.35 270.649 276.989 269.757 276.388 270.036Z" fill="white"/>
<path d="M271.116 268.443C264.33 270.304 257.554 272.137 250.678 273.572C250.183 273.666 250.302 274.428 250.797 274.334C257.758 273.096 264.516 271.061 271.24 268.947C271.544 268.842 271.408 268.365 271.116 268.443Z" fill="white"/>
<path d="M257.071 267.395C255.722 267.666 254.372 267.938 253.04 268.248C252.64 268.348 252.759 268.948 253.119 268.865C254.463 268.526 255.784 268.244 257.145 267.944C257.505 267.861 257.431 267.312 257.071 267.395Z" fill="white"/>
<path d="M186.702 267.49C193.227 268.968 199.446 272.273 205.612 274.809C211.864 277.379 218.126 279.922 224.332 282.604C236.481 287.895 248.612 293.309 260.368 299.417C267.25 303.02 274.031 306.875 280.605 311.004C281.235 311.386 281.92 310.491 281.301 310.081C270.14 302.651 258.194 296.532 246.028 290.876C233.396 285.001 220.583 279.574 207.609 274.472C204.024 273.068 200.468 271.676 196.896 270.244C193.576 268.913 190.245 267.611 186.712 266.975C186.454 266.969 186.398 267.433 186.702 267.49Z" fill="white"/>
<path d="M304.479 310.338C303.058 312.335 301.271 314.023 299.907 316.043C298.868 317.576 297.847 319.635 295.681 319.255C292.536 318.709 289.89 315.862 287.425 314.029C286.946 313.675 286.407 314.369 286.874 314.751C289.424 316.942 292.578 320.48 296.194 320.663C298.022 320.745 299.061 319.375 299.96 317.948C301.543 315.464 303.374 313.176 304.901 310.669C305.081 310.384 304.687 310.064 304.479 310.338Z" fill="white"/>
<path d="M177.266 268.712C208.386 280.924 238.519 295.437 269.169 308.825C277.873 312.605 286.583 316.291 295.389 319.82C296.008 320.068 296.401 319.088 295.782 318.84C264.93 305.956 234.82 291.388 203.963 278.599C195.202 274.958 186.363 271.513 177.473 268.275C177.164 268.151 176.956 268.588 177.266 268.712Z" fill="white"/>
<path d="M172.025 207.159C189.478 208.338 206.345 213.343 223.278 217.368C241.291 221.63 259.193 226.498 276.713 232.48C286.592 235.855 296.18 239.794 305.892 243.589C306.961 244.017 307.561 242.439 306.542 241.965C298.085 238.056 289.15 234.93 280.345 231.889C271.512 228.836 262.555 226.091 253.548 223.554C236.299 218.688 218.815 214.735 201.365 210.697C191.773 208.478 181.968 206.465 172.103 206.475C171.636 206.418 171.547 207.129 172.025 207.159Z" fill="white"/>
<path d="M171.401 207.168C170.481 209.789 170.636 212.742 170.189 215.487C169.67 218.658 168.953 221.749 168.349 224.886C167.191 230.789 165.786 236.659 165.235 242.676C164.963 245.556 165.242 248.526 164.778 251.394C164.549 252.862 163.511 254.72 164.26 256.19C164.632 256.891 165.352 257.212 166.061 257.399C167.462 257.733 168.964 257.815 170.376 258.121C173.599 258.796 176.783 259.649 179.951 260.464C192.552 263.727 205.21 266.688 217.817 269.857C230.632 273.076 243.19 276.939 255.669 281.323C262.505 283.737 269.335 286.247 276.188 288.701C283.041 291.155 289.934 293.593 296.371 297.082C297.525 297.707 298.288 295.804 297.134 295.179C291.625 292.224 285.768 289.974 279.883 287.875C274.054 285.799 268.247 283.667 262.418 281.591C250.592 277.371 238.67 273.308 226.507 270.09C214.496 266.901 202.384 264.126 190.322 261.144C184.325 259.65 178.339 257.966 172.286 256.613C170.846 256.295 169.417 255.95 167.96 255.756C167.314 255.659 166.83 255.725 166.318 255.293C165.687 254.748 166.007 254.194 166.214 253.432C166.763 251.248 166.823 249.062 166.877 246.81C167.027 240.243 168.291 233.829 169.471 227.382C170.086 224.055 170.729 220.739 171.22 217.395C171.472 215.709 171.695 214.011 171.822 212.308C171.916 210.689 171.847 209.069 172.228 207.467C172.424 206.896 171.58 206.72 171.401 207.168Z" fill="white"/>
<path d="M306.955 243.463C306.769 243.193 306.69 243.064 306.347 243.024C306.127 243.001 305.88 243.129 305.83 243.337C305.314 244.787 305.226 246.636 305.07 248.165C304.842 250.446 304.737 252.743 304.481 255.012C303.912 259.69 303.305 264.384 302.68 269.039C302.06 273.599 301.216 278.069 300.293 282.572C299.823 284.886 299.342 287.227 298.776 289.534C298.238 291.69 297.808 294.312 296.466 296.113C295.601 297.293 297.43 298.676 298.295 297.496C299.525 295.812 299.984 293.689 300.494 291.685C301.026 289.624 301.473 287.529 301.882 285.451C302.833 280.634 303.744 275.834 304.391 270.96C305.044 266.153 305.506 261.335 306.024 256.54C306.158 255.391 306.483 243.826 306.809 243.827C306.972 243.827 307.033 243.592 306.955 243.463Z" fill="white"/>
<path d="M276.977 232.553C277.044 232.223 277.168 231.915 277.387 231.613C277.105 231.5 276.824 231.387 276.515 231.263C276.283 235.914 276.283 240.559 275.9 245.182C275.506 249.994 274.92 254.795 274.239 259.591C273.592 264.139 272.933 268.716 272.094 273.253C271.362 277.28 269.915 281.216 269.762 285.346C269.707 286.624 271.698 286.869 271.736 285.553C271.889 281.423 273.308 277.476 274.04 273.448C274.885 268.816 275.549 264.144 276.185 259.461C277.474 250.296 278.802 240.465 277.448 231.215C277.369 230.761 276.666 230.642 276.514 231.101C276.341 231.616 276.363 231.885 276.437 232.434C276.516 232.726 276.904 232.817 276.977 232.553Z" fill="white"/>
<path d="M282.609 244.492C282.183 246.043 286.531 246.843 287.454 247.148C290.7 248.254 293.801 249.562 296.362 251.888C296.936 252.41 297.863 251.645 297.548 250.966C296.313 248.425 292.285 247.395 289.838 246.577C288.718 246.193 287.576 245.865 286.434 245.537C285.933 245.402 283.385 244.998 283.205 244.471C283.143 244.218 282.681 244.228 282.609 244.492Z" fill="white"/>
<path d="M283.071 250.59C285.714 250.674 288.359 251.734 290.7 252.9C291.977 253.542 293.221 254.268 294.369 255.15C295.196 255.774 295.912 256.841 296.868 257.224C297.29 257.393 297.762 257.03 297.683 256.576C297.536 255.477 296.286 254.684 295.459 254.06C294.198 253.132 292.831 252.389 291.429 251.73C288.841 250.531 285.932 249.56 283.042 249.766C282.597 249.815 282.621 250.572 283.071 250.59Z" fill="white"/>
<path d="M283.74 256.089C284.438 256.628 285.338 256.826 286.137 257.114C287.116 257.442 288.174 258.06 289.175 258.169C289.834 258.238 290.17 257.398 289.647 256.994C288.904 256.403 287.644 256.288 286.715 256.079C285.815 255.881 284.898 255.643 283.976 255.501C283.655 255.405 283.493 255.892 283.74 256.089Z" fill="white"/>
<path d="M199.505 222.915C207.139 224.48 214.694 226.078 222.182 228.169C225.76 229.181 229.366 230.204 232.91 231.299C236.595 232.451 240.146 233.939 243.764 235.259C244.731 235.614 245.202 234.276 244.336 233.832C240.965 232.058 237.122 230.973 233.482 229.872C229.702 228.714 225.893 227.707 222.084 226.701C214.743 224.733 207.159 222.799 199.555 222.383C199.212 222.342 199.145 222.835 199.505 222.915Z" fill="white"/>
<path d="M200.502 229.227C205.952 229.559 211.19 231.561 216.562 232.415C219.358 232.853 222.176 233.235 224.932 233.852C227.897 234.521 230.418 235.726 233.214 236.814C233.918 237.096 234.383 236.178 233.843 235.734C231.89 234.009 229.032 233.319 226.562 232.719C223.524 231.989 220.391 231.578 217.297 231.15C211.796 230.375 206.085 228.248 200.501 228.739C200.203 228.75 200.215 229.21 200.502 229.227Z" fill="white"/>
<path d="M198.504 234.047C205.51 237.505 213.913 237.558 221.339 239.722C225.199 240.847 229.008 242.178 232.861 243.398C236.479 244.555 240.615 246.213 244.445 246.351C245.345 246.386 245.805 245.076 244.865 244.732C243.003 244.083 240.955 243.815 239.037 243.306C237.09 242.786 235.138 242.198 233.214 241.622C229.349 240.431 225.517 239.155 221.635 238.087C214.108 236.012 206.267 235.534 198.763 233.403C198.329 233.262 198.094 233.85 198.504 234.047Z" fill="white"/>
<path d="M199.94 240.08C202.195 240.237 204.367 241.01 206.538 241.62C208.71 242.231 210.921 242.662 213.081 243.138C218.189 244.243 223.173 245.655 228.186 247.08C228.951 247.289 229.394 246.264 228.646 245.932C223.998 243.679 218.598 242.815 213.558 241.867C211.099 241.401 208.658 240.975 206.245 240.398C204.135 239.877 202.104 239.323 199.911 239.419C199.545 239.435 199.557 240.057 199.94 240.08Z" fill="white"/>
<path d="M201.104 245.16C203.697 245.939 206.308 246.758 208.901 247.538C211.315 248.278 213.791 249.27 216.299 249.69C217.126 249.827 217.44 248.556 216.641 248.268C214.103 247.348 211.33 246.854 208.692 246.187C206.205 245.548 203.752 244.987 201.215 244.555C200.912 244.498 200.783 245.064 201.104 245.16Z" fill="white"/>
<path d="M171.623 219.895C178.405 219.754 187.409 224.337 187.119 232.148C186.972 236.508 183.601 240.03 179.835 241.769C177.626 242.801 175.174 243.378 172.728 243.372C170.242 243.383 168.295 242.538 166.022 241.692C165.082 241.347 164.437 242.551 165.157 243.197C168.18 245.838 173.613 245.643 177.245 244.728C181.249 243.7 185.026 241.446 187.21 237.87C190.898 231.843 188.186 225.006 182.383 221.479C179.158 219.504 175.249 218.587 171.498 219.228C171.071 219.316 171.189 219.916 171.623 219.895Z" fill="white"/>
<path d="M168.019 231.413C171.168 231.376 174.149 231.271 177.271 231.71C180.336 232.126 183.469 232.537 186.479 233.256C187.615 233.517 187.849 231.466 186.668 231.48C183.406 231.473 180.115 230.641 176.842 230.336C174.007 230.077 170.655 229.806 167.928 230.825C167.681 230.953 167.72 231.424 168.019 231.413Z" fill="white"/>
<path d="M169.093 226.126C173.297 228.59 180.073 227.895 183.956 225.13C184.726 224.594 183.837 223.555 183.1 224.008C178.986 226.452 173.998 227.085 169.39 225.628C169.07 225.532 168.778 225.935 169.093 226.126Z" fill="white"/>
<path d="M166.432 240.914C168.274 238.598 171.591 237.978 174.403 237.806C177.013 237.649 180.815 237.776 182.594 240.016C183.31 240.92 184.765 239.814 184.011 238.927C181.736 236.293 177.624 236.043 174.407 236.41C171.5 236.74 167.334 237.766 165.948 240.655C165.779 240.912 166.235 241.16 166.432 240.914Z" fill="white"/>
<path d="M175.368 219.837C174.388 223.83 173.887 228.015 173.278 232.059C172.686 235.818 171.88 240.108 172.475 243.92C172.639 244.896 174.192 244.933 174.252 243.885C174.38 241.857 174.209 239.839 174.336 237.811C174.457 235.716 174.663 233.654 174.897 231.603C175.36 227.76 176.199 223.711 175.936 219.804C175.896 219.496 175.441 219.573 175.368 219.837Z" fill="white"/>
<path d="M182.407 222.235C179.749 224.874 179.355 229.361 179.302 232.914C179.282 234.595 179.396 236.265 179.538 237.947C179.652 239.455 179.829 241.54 181.135 242.518C181.76 242.996 182.856 242.298 182.411 241.535C180.923 239.054 180.745 235.994 180.652 233.13C180.519 229.633 180.785 225.549 182.789 222.583C182.975 222.365 182.659 222.012 182.407 222.235Z" fill="white"/>
<path d="M243.75 258.84C247.523 258.63 251.248 259.928 254.669 261.332C257.358 262.442 260.28 264.522 263.3 264.401C264.261 264.364 264.237 262.795 263.264 262.697C256.61 262.109 250.597 256.256 243.603 258.391C243.35 258.452 243.491 258.834 243.75 258.84Z" fill="white"/>
<path d="M243.805 258.212C243.029 258.194 242.512 258.344 241.961 258.903C241.686 259.182 241.653 259.591 241.973 259.85C244.782 262.048 248.327 262.981 251.551 264.305C254.465 265.506 257.397 267.071 260.575 267.37C261.711 267.468 261.889 265.72 260.781 265.633C257.677 265.396 254.953 264.044 252.128 262.945C248.91 261.688 245.675 260.716 242.698 258.938C242.771 259.162 242.834 259.415 242.879 259.628C243.098 259.163 243.463 258.822 243.907 258.61C244.059 258.476 243.968 258.213 243.805 258.212Z" fill="white"/>
<path d="M262.81 263.912C263.828 264.223 264.694 263.855 265.559 263.324C266.802 262.588 267.549 262.108 268.844 263.114C268.798 262.738 268.753 262.363 268.679 261.976C266.989 263.832 263.993 265.685 261.491 266.145C260.675 266.305 260.643 267.527 261.52 267.618C263.084 267.79 264.658 266.797 265.95 266.015C267.401 265.167 268.867 264.195 269.985 262.954C270.283 262.618 270.142 262.075 269.821 261.816C268.69 260.973 267.57 260.589 266.3 261.314C265.08 261.995 264.265 262.968 262.843 263.34C262.618 263.413 262.489 263.816 262.81 263.912Z" fill="white"/>
<path d="M253.222 264.942C254.55 266.19 255.025 267.939 255.825 269.527C256.315 270.503 257.386 272.557 258.763 271.972C259.196 271.788 259.263 271.295 259.015 270.936C258.655 270.369 257.935 270.048 257.518 269.458C256.96 268.65 256.571 267.747 256.103 266.877C255.574 265.918 254.661 264.285 253.367 264.416C253.081 264.399 253.058 264.78 253.222 264.942Z" fill="white"/>
<path d="M258.476 266.171C257.92 266.988 258.523 268.172 258.968 268.935C259.588 269.995 260.438 270.889 261.03 271.938C261.176 271.574 261.322 271.21 261.467 270.846C260.579 271.27 259.741 271.161 258.78 271.198C257.981 271.236 257.982 272.373 258.618 272.661C259.721 273.168 261.087 272.935 262.127 272.378C262.622 272.121 262.779 271.567 262.452 271.078C261.866 270.259 261.14 269.545 260.504 268.77C260.171 268.377 259.822 267.945 259.54 267.507C259.315 267.092 259.196 266.655 258.971 266.239C258.915 266.054 258.622 265.97 258.476 266.171Z" fill="white"/>
<path d="M254.713 260.244C255.573 260.134 256.411 259.918 257.271 259.808C257.957 259.725 259.442 259.443 260.033 260.005C260.078 259.731 260.094 259.445 260.139 259.17C259.408 259.69 258.683 260.114 258.032 260.762C257.655 261.131 257.993 261.917 258.556 261.655C259.387 261.208 260.163 260.739 260.871 260.113C261.174 259.845 261.168 259.453 260.859 259.166C260.093 258.47 258.878 258.568 257.922 258.672C256.82 258.815 255.521 259.042 254.521 259.583C254.212 259.784 254.336 260.288 254.713 260.244Z" fill="white"/>
<path d="M245.817 261.747C245.407 262.363 245.672 263.086 246.252 263.514C246.905 264.003 247.754 264.083 248.507 263.833C249.182 263.616 248.827 262.629 248.18 262.695C247.505 262.749 246.611 262.78 246.526 261.934C246.458 261.614 245.997 261.462 245.817 261.747Z" fill="white"/>
<path d="M245.409 259.505C246.332 259.647 247.165 260.176 248.06 260.47C248.87 260.729 249.082 259.385 248.177 259.444C247.243 259.493 246.348 259.037 245.387 259.073C245.128 259.067 245.162 259.471 245.409 259.505Z" fill="white"/>
<path d="M251.204 261.34C251.407 261.649 251.689 261.924 252.026 262.059C252.279 262.161 252.594 262.027 252.695 261.775C252.807 261.495 252.65 261.237 252.408 261.108C252.166 260.978 251.997 260.91 251.794 260.764C251.62 260.629 251.378 260.662 251.226 260.797C251.103 260.942 251.08 261.16 251.204 261.34Z" fill="white"/>
<path d="M254.845 262.766C255.002 262.862 255.149 262.823 255.312 262.824C255.677 262.808 255.89 262.276 255.637 262.012C255.519 261.9 255.401 261.787 255.26 261.731C254.967 261.646 254.636 261.741 254.552 262.032C254.445 262.379 254.575 262.626 254.845 262.766Z" fill="white"/>
<path d="M253.677 285.235C257.44 285.866 260.89 287.931 264.002 290.023C266.338 291.609 268.776 294.08 271.633 294.608C272.573 294.79 272.959 293.255 272.037 292.95C265.696 290.929 260.824 284.266 253.637 284.764C253.406 284.769 253.44 285.173 253.677 285.235Z" fill="white"/>
<path d="M253.845 284.652C253.04 284.46 252.585 284.537 251.888 284.973C251.629 285.129 251.585 285.566 251.782 285.808C254.04 288.402 257.231 289.973 260.078 291.829C262.797 293.601 265.443 295.798 268.571 296.792C269.645 297.125 270.296 295.501 269.221 295.168C266.043 294.219 263.481 292.218 260.713 290.491C257.915 288.753 255.141 287.121 252.608 284.969C252.659 285.249 252.681 285.518 252.732 285.799C253.053 285.407 253.452 285.145 253.918 285.039C254.115 284.956 253.997 284.681 253.845 284.652Z" fill="white"/>
<path d="M271.385 294.086C272.297 294.582 273.219 294.399 274.147 294.121C275.457 293.704 276.227 293.493 277.275 294.627C277.325 294.257 277.375 293.888 277.408 293.479C275.419 294.858 272.27 295.87 269.829 295.769C269.025 295.739 268.621 296.91 269.477 297.22C270.934 297.739 272.598 297.171 274.015 296.732C275.538 296.27 277.107 295.697 278.428 294.764C278.748 294.535 278.86 293.93 278.561 293.616C277.576 292.571 276.614 291.958 275.169 292.386C273.87 292.775 272.881 293.451 271.475 293.537C271.121 293.525 271.143 293.957 271.385 294.086Z" fill="white"/>
<path d="M261.896 292.915C262.899 294.324 263.142 295.916 263.633 297.542C263.921 298.535 264.633 300.996 266.111 300.647C266.55 300.53 266.803 300.144 266.645 299.724C266.43 299.118 265.772 298.724 265.462 298.112C265.067 297.305 264.813 296.391 264.509 295.521C264.148 294.467 263.521 292.526 262.166 292.406C261.918 292.371 261.755 292.696 261.896 292.915Z" fill="white"/>
<path d="M266.752 295.218C266.089 295.895 266.552 297.185 266.834 297.948C267.257 299.092 267.956 300.119 268.39 301.235C268.614 300.838 268.828 300.468 269.052 300.071C268.091 300.271 267.331 299.966 266.397 299.852C265.655 299.749 265.279 300.768 265.859 301.195C266.816 301.904 268.171 302.025 269.302 301.73C269.808 301.608 270.212 301.088 269.964 300.566C269.507 299.669 268.922 298.849 268.414 297.996C267.862 297.093 267.681 296.24 267.315 295.281C267.213 295.046 266.904 295.084 266.752 295.218Z" fill="white"/>
<path d="M264.085 288.919C264.952 289.039 265.857 288.979 266.734 289.071C267.516 289.157 268.855 289.239 269.351 289.957C269.435 289.666 269.502 289.335 269.586 289.044C268.76 289.395 267.967 289.662 267.191 290.131C266.764 290.382 267.102 291.168 267.58 291.034C268.457 290.801 269.25 290.534 270.071 290.116C270.397 289.954 270.565 289.534 270.306 289.203C269.653 288.389 268.55 288.207 267.549 288.098C266.452 287.983 265.142 287.913 264.079 288.202C263.725 288.352 263.658 288.845 264.085 288.919Z" fill="white"/>
<path d="M255.21 288.416C254.71 288.93 254.936 289.67 255.369 290.137C255.893 290.704 256.703 290.964 257.445 290.904C258.16 290.833 258.085 289.796 257.438 289.699C256.848 289.625 255.841 289.448 255.885 288.686C255.918 288.277 255.446 288.153 255.21 288.416Z" fill="white"/>
<path d="M255.185 286.197C256.057 286.546 256.778 287.192 257.566 287.671C258.353 288.149 258.802 286.867 257.947 286.719C257.036 286.549 256.236 285.936 255.286 285.782C255.038 285.748 254.96 286.106 255.185 286.197Z" fill="white"/>
<path d="M260.531 289.151C260.695 289.477 260.886 289.814 261.201 290.005C261.432 290.162 261.741 290.124 261.927 289.906C262.084 289.676 262.044 289.368 261.825 289.183C261.622 289.036 261.408 288.918 261.256 288.727C260.941 288.373 260.289 288.697 260.531 289.151Z" fill="white"/>
<path d="M263.767 291.261C263.914 291.384 264.037 291.401 264.217 291.441C264.409 291.453 264.617 291.341 264.712 291.184C264.819 291 264.802 290.798 264.678 290.618C264.571 290.478 264.481 290.377 264.312 290.309C264.07 290.18 263.744 290.342 263.626 290.554C263.497 290.795 263.565 291.114 263.767 291.261Z" fill="white"/>
<path d="M280.751 274.546C280.174 276.719 279.766 279.122 280.106 281.37C280.191 281.891 280.978 281.882 281.028 281.349C281.195 279.142 281.249 276.889 281.308 274.704C281.336 274.39 280.858 274.199 280.751 274.546Z" fill="white"/>
<path d="M282.405 274.656C282.115 277.172 281.865 279.67 281.26 282.157C281.131 282.723 282.014 282.882 282.205 282.406C283.311 280.055 283.088 277.269 283.147 274.759C283.186 274.255 282.472 274.163 282.405 274.656Z" fill="white"/>
<path d="M284.16 275.165C284.304 277.821 283.277 280.301 283.24 282.918C283.224 283.366 283.956 283.66 284.101 283.133C284.858 280.675 285.366 277.532 284.61 275.02C284.531 274.729 284.137 274.896 284.16 275.165Z" fill="white"/>
<path d="M285.848 275.841C286.204 277.153 285.806 278.716 285.566 280.049C285.348 281.326 284.714 282.989 285.081 284.273C285.2 284.711 285.942 284.976 286.11 284.393C286.592 282.865 286.607 280.954 286.757 279.357C286.841 278.253 287.131 276.55 286.292 275.629C286.157 275.478 285.786 275.589 285.848 275.841Z" fill="white"/>
<path d="M287.367 275.8C287.127 277.458 286.982 279.122 286.826 280.814C286.704 282.26 286.43 283.839 286.674 285.269C286.832 286.177 288.103 286.102 288.249 285.25C288.506 283.794 288.301 282.185 288.322 280.666C288.337 279.081 288.353 277.495 288.368 275.909C288.356 275.287 287.462 275.156 287.367 275.8Z" fill="white"/>
<path d="M289.608 278.193C289.467 277.974 289.557 278.4 289.524 278.484C289.49 278.73 289.474 279.016 289.468 279.274C289.413 279.901 289.346 280.557 289.279 281.212C289.162 282.238 288.736 283.626 289.198 284.591C289.446 285.113 290.121 285.059 290.379 284.577C290.991 283.458 290.635 281.496 290.628 280.291C290.621 279.574 290.811 278.123 290.04 277.684C289.697 277.481 289.45 277.935 289.608 278.193Z" fill="white"/>
<path d="M291.897 278.265C291.713 279.621 289.385 285.348 291.556 285.959C291.877 286.055 292.332 285.977 292.422 285.591C292.545 285.12 292.41 284.806 292.37 284.335C292.274 283.679 292.363 282.968 292.458 282.324C292.62 281.024 292.916 279.714 292.926 278.385C292.886 277.752 291.992 277.621 291.897 278.265Z" fill="white"/>
<path d="M293.232 280.555C293.071 282.18 292.679 283.809 292.681 285.434C292.664 286.045 293.593 286.417 293.806 285.723C294.372 284.066 294.274 282.272 294.115 280.551C294.098 280.025 293.299 280.062 293.232 280.555Z" fill="white"/>
<path d="M281.42 274.099C281.296 274.082 281.156 274.026 281.032 274.009C280.801 274.014 280.577 274.248 280.678 274.484C281.022 275.174 281.916 275.143 282.586 275.346C283.953 275.764 285.337 276.221 286.698 276.734C289.123 277.609 291.746 279.05 294.316 279.397C294.783 279.455 295.092 278.766 294.664 278.53C292.678 277.376 290.208 276.776 288.053 276.043C286.905 275.648 285.746 275.281 284.576 274.942C283.783 274.721 281.814 274.582 281.201 274.076C281.15 274.283 281.1 274.491 281.061 274.67C281.167 274.648 281.319 274.676 281.437 274.626C281.702 274.537 281.746 274.1 281.42 274.099Z" fill="white"/>
<path d="M280.479 282.721C285.069 283.976 289.542 285.606 294.228 286.38C295.083 286.527 295.262 285.104 294.384 285.013C289.699 284.564 285.282 282.794 280.641 282.071C280.253 281.981 280.062 282.619 280.479 282.721Z" fill="white"/>
<path d="M294.07 280.501C294.111 282.272 293.781 283.991 293.536 285.745C293.458 286.428 294.459 286.537 294.593 285.876C294.957 284.073 295.073 282.235 294.795 280.402C294.727 279.92 294.058 280.041 294.07 280.501Z" fill="white"/>
<path d="M199.433 249.818C199.975 252.212 198.296 254.528 198.321 256.91C198.333 257.532 199.216 257.691 199.322 257.019C199.646 254.745 201.156 251.873 199.989 249.652C199.843 249.365 199.348 249.459 199.433 249.818Z" fill="white"/>
<path d="M201.12 250.17C201.545 252.777 199.478 255.002 199.868 257.53C199.965 258.186 200.898 258.138 200.982 257.522C201.2 256.082 201.598 254.682 201.883 253.237C202.09 252.15 202.285 250.929 201.592 249.969C201.44 249.778 201.086 249.929 201.12 250.17Z" fill="white"/>
<path d="M202.769 250.7C202.13 252.946 201.593 255.427 201.477 257.753C201.45 258.391 202.457 258.73 202.63 258.052C203.252 255.767 203.131 253.217 203.393 250.853C203.432 250.512 202.886 250.325 202.769 250.7Z" fill="white"/>
<path d="M204.456 251.214C203.767 253.342 202.988 256.182 203.379 258.385C203.509 259.119 204.668 259.161 204.723 258.371C204.8 257.2 204.743 256.04 204.848 254.88C204.954 253.721 205.183 252.578 205.261 251.407C205.277 250.959 204.619 250.727 204.456 251.214Z" fill="white"/>
<path d="M206.251 251.869C206.106 253.045 206.096 254.211 205.816 255.398C205.581 256.473 205.15 257.632 205.404 258.709C205.534 259.281 206.349 259.445 206.613 258.869C207.062 257.749 207.066 256.354 207.194 255.138C207.305 254.046 207.417 252.791 206.937 251.786C206.774 251.461 206.29 251.527 206.251 251.869Z" fill="white"/>
<path d="M208.434 252.776C208.302 254.737 206.988 257.037 207.547 258.983C207.699 259.499 208.582 259.495 208.728 258.969C208.997 257.972 208.984 256.863 209.13 255.849C209.286 254.807 209.392 253.81 209.222 252.767C209.143 252.313 208.462 252.3 208.434 252.776Z" fill="white"/>
<path d="M209.773 253.02C209.545 254.813 208.563 257.019 209.054 258.807C209.246 259.469 210.101 259.454 210.235 258.793C210.442 257.869 210.402 256.911 210.513 255.981C210.636 255.023 210.691 254.07 210.707 253.135C210.684 252.541 209.846 252.432 209.773 253.02Z" fill="white"/>
<path d="M211.321 254.128C211.289 255.35 211.149 256.593 211.28 257.815C211.388 258.768 212.822 258.531 212.742 257.589C212.657 256.418 212.571 255.246 212.474 254.103C212.406 253.458 211.349 253.489 211.321 254.128Z" fill="white"/>
<path d="M199.461 249.83C201.785 251.443 205.037 252.129 207.748 252.859C210.629 253.656 213.532 254.234 216.306 255.378C217.178 255.728 217.666 254.429 216.844 254.035C214.244 252.863 211.432 252.385 208.67 251.701C205.699 250.965 202.711 249.703 199.685 249.27C199.37 249.241 199.202 249.661 199.461 249.83Z" fill="white"/>
<path d="M199.436 258.039C202.266 259.531 205.737 259.59 208.819 260.045C211.53 260.45 214.226 261.79 217.01 261.606C218.011 261.552 217.975 259.849 216.968 259.835C214.252 259.851 211.664 258.814 208.992 258.555C205.825 258.228 202.731 257.963 199.609 257.361C199.182 257.288 199.109 257.876 199.436 258.039Z" fill="white"/>
<path d="M216.497 255.553C215.974 255.96 216.133 257.194 216.089 257.793C216.028 258.678 215.574 259.893 215.901 260.707C216.109 261.245 216.745 261.207 217.082 260.855C217.717 260.167 217.445 258.727 217.388 257.891C217.348 257.258 217.47 255.975 216.919 255.559C216.801 255.447 216.609 255.435 216.497 255.553Z" fill="white"/>
<path d="M214.702 254.573C214.225 256.169 213.851 258.001 213.706 259.665C213.645 260.387 214.72 260.721 214.983 259.981C215.555 258.391 215.373 256.402 215.354 254.737C215.393 254.395 214.842 254.142 214.702 254.573Z" fill="white"/>
<path d="M212.808 255.633C212.747 256.519 212.573 257.359 212.484 258.233C212.406 259.079 213.627 259.211 213.761 258.387C213.906 257.536 213.995 256.662 214.017 255.793C214.044 254.992 212.863 254.843 212.808 255.633Z" fill="white"/>
<path d="M183.253 261.105C183.36 261.245 182.457 263.417 182.322 263.753C181.98 264.688 181.638 265.623 181.335 266.542C181.206 266.945 181.347 267.489 181.792 267.602C183.468 268.144 185.045 269.425 186.598 270.275C188.438 271.305 190.301 272.279 192.163 273.253C195.939 275.156 199.794 276.863 203.743 278.413C211.727 281.548 219.891 284.235 227.825 287.577C243.495 294.182 258.341 302.601 273.433 310.404C281.79 314.727 290.068 319.247 297.526 324.997C298.528 325.756 299.663 324.229 298.689 323.482C292.148 318.456 285.007 314.36 277.725 310.532C270.145 306.552 262.542 302.628 254.962 298.648C247.326 294.645 239.628 290.715 231.711 287.25C223.749 283.734 215.534 280.93 207.393 277.862C202.774 276.108 198.16 274.259 193.72 272.057C191.733 271.066 189.786 270.059 187.822 269.012C186.055 268.043 184.181 266.448 182.178 266.067C182.42 266.359 182.679 266.691 182.922 266.982C183.184 265.593 183.599 264.233 183.901 262.827C184.013 262.222 184.439 260.996 183.854 260.501C183.482 260.125 182.92 260.712 183.253 261.105Z" fill="white"/>
<path d="M302.575 275.982C304.133 276.737 305.361 277.911 306.667 279.052C308.147 280.327 309.712 281.474 311.266 282.649C312.892 283.886 314.491 285.111 316.056 286.42C317.21 287.37 319.511 288.715 319.232 290.39C319.025 291.639 321.129 291.767 321.077 290.35C321.036 288.741 320.388 287.994 319.2 286.966C317.269 285.347 315.288 283.774 313.234 282.301C311.292 280.873 309.266 279.573 307.414 278.084C305.984 276.926 304.577 275.712 302.788 275.288C302.343 275.175 302.22 275.808 302.575 275.982Z" fill="white"/>
<path d="M320.783 289.452C318.351 291.856 316.515 295.051 314.651 297.91C312.736 300.814 310.945 303.735 309.16 306.723C305.612 312.644 302.289 318.817 297.835 324.146C296.998 325.176 298.624 326.412 299.461 325.383C303.859 320.031 307.154 313.847 310.685 307.887C312.459 304.927 314.245 301.939 316.019 298.978C317.793 296.018 319.977 293.093 321.38 289.919C321.554 289.566 321.059 289.173 320.783 289.452Z" fill="white"/>
<path d="M284.453 290.811C283.944 293.629 281.134 295.914 279.562 298.208C278.399 299.886 277.265 301.576 276.215 303.299C275.323 304.793 274.616 306.394 273.622 307.815C272.92 308.833 274.355 309.896 275.147 308.979C276.4 307.564 277.067 305.492 278.016 303.858C279.183 301.922 280.379 299.997 281.62 298.123C283.03 295.991 285.569 293.565 285.336 290.808C285.329 290.253 284.548 290.33 284.453 290.811Z" fill="white"/>
<path d="M301.216 283.04C302.194 283.042 302.797 283.738 303.512 284.317C304.272 284.947 305.076 285.464 305.909 285.993C307.508 287.056 309.067 288.135 310.519 289.4C311.296 290.068 312.183 288.832 311.474 288.158C309.667 286.394 307.315 285.256 305.182 283.979C304.05 283.299 302.547 281.754 301.17 282.502C300.906 282.591 300.889 283.039 301.216 283.04Z" fill="white"/>
<path d="M301.625 287.232C302.762 288.468 304.125 289.468 305.374 290.587C305.858 291.008 306.651 290.253 306.2 289.748C305.023 288.529 303.555 287.713 302.265 286.612C301.86 286.319 301.282 286.867 301.625 287.232Z" fill="white"/>
<path d="M286.107 302.325C286.242 302.314 286.338 302.32 286.473 302.309C286.36 302.102 286.219 301.883 286.107 301.675C285.461 302.554 284.927 303.477 284.282 304.355C283.636 305.233 282.849 306.055 282.305 307.007C281.867 307.773 282.784 308.498 283.408 307.839C284.812 306.29 286.317 304.001 286.799 301.985C286.866 301.655 286.41 301.407 286.157 301.631C286.067 301.692 285.966 301.781 285.904 301.854C285.685 301.994 285.849 302.319 286.107 302.325Z" fill="white"/>
<path d="M287.845 302.632C286.907 303.588 286.042 304.606 285.262 305.658C284.638 306.48 283.942 307.403 284.072 308.462C284.118 308.838 284.641 309.08 284.944 308.812C285.765 308.068 286.123 306.848 286.724 305.919C287.336 304.962 288.033 304.039 288.571 303.02C288.74 302.601 288.121 302.353 287.845 302.632Z" fill="white"/>
<path d="M289.208 304.12C288.573 304.808 288.119 305.698 287.518 306.464C286.967 307.186 286.259 307.812 285.906 308.612C285.642 309.189 286.413 309.79 286.908 309.371C287.644 308.757 288.07 307.855 288.531 307.033C289.002 306.182 289.564 305.27 289.686 304.312C289.731 304.038 289.382 303.93 289.208 304.12Z" fill="white"/>
<path d="M291.02 304.814C290.065 305.568 289.261 306.513 288.571 307.504C288.082 308.152 287.032 309.388 287.556 310.281C287.792 310.668 288.439 310.927 288.737 310.429C289.203 309.674 289.427 308.789 289.893 308.033C290.432 307.177 290.993 306.265 291.69 305.505C292.089 305.08 291.441 304.496 291.02 304.814Z" fill="white"/>
<path d="M292.888 306.018C292.316 306.795 288.338 310.854 289.745 311.743C290.088 311.945 290.572 311.879 290.74 311.459C290.572 311.879 290.65 311.683 290.808 311.454C290.914 311.269 291.021 311.085 291.099 310.889C291.38 310.351 291.689 309.825 291.998 309.299C292.542 308.348 293.115 307.408 293.558 306.383C293.676 306.008 293.13 305.66 292.888 306.018Z" fill="white"/>
<path d="M294.273 307.45C293.841 308.446 293.117 309.196 292.381 309.973C291.746 310.66 290.886 311.42 290.781 312.418C290.731 313.112 291.524 313.333 291.934 312.88C292.709 312.086 293.344 310.911 294.029 310.016C294.54 309.311 295.107 308.466 294.988 307.541C294.942 307.166 294.408 307.114 294.273 307.45Z" fill="white"/>
<path d="M285.662 301.887C287.345 302.334 289.022 303.688 290.412 304.7C291.352 305.37 294.256 307.086 294.274 308.425C294.286 309.047 295.153 309.654 295.597 308.955C296.725 307.198 293.298 305.077 292.161 304.329C290.444 303.154 287.906 301.259 285.712 301.355C285.454 301.349 285.398 301.814 285.662 301.887Z" fill="white"/>
<path d="M282.587 308.094C286.104 309.829 288.975 312.279 292.312 314.299C293.359 314.946 294.257 313.356 293.115 312.866C289.587 311.322 286.693 307.953 282.749 307.445C282.339 307.41 282.261 307.931 282.587 308.094Z" fill="white"/>
<path d="M203.634 266.057C202.685 267.366 201.563 269.19 201.334 270.82C201.239 271.464 202.105 271.584 202.374 271.075C203.098 269.676 204.047 267.879 204.197 266.282C204.225 265.969 203.831 265.811 203.634 266.057Z" fill="white"/>
<path d="M205.384 266.823C204.947 267.59 204.548 268.34 204.054 269.084C203.633 269.727 203.212 270.371 203.308 271.189C203.365 271.699 204.175 271.959 204.433 271.478C204.86 270.739 205.129 269.905 205.539 269.127C205.915 268.433 206.302 267.711 206.099 266.915C205.975 266.572 205.575 266.51 205.384 266.823Z" fill="white"/>
<path d="M208.107 267.2C207.54 267.882 207.102 268.649 206.636 269.404C206.203 270.075 205.692 270.78 205.446 271.559C205.244 272.225 206.111 272.832 206.588 272.211C207.077 271.562 207.391 270.779 207.722 270.034C208.103 269.245 208.553 268.45 208.765 267.593C208.894 267.19 208.388 266.825 208.107 267.2Z" fill="white"/>
<path d="M209.71 267.517C208.767 268.893 207.053 270.481 207.106 272.224C207.112 272.779 207.956 272.954 208.259 272.523C208.731 271.835 208.943 270.978 209.37 270.24C209.769 269.49 210.195 268.751 210.537 267.979C210.717 267.531 210.013 267.086 209.71 267.517Z" fill="white"/>
<path d="M211.325 268.457C211.129 268.865 211.045 269.319 210.82 269.717C210.574 270.17 210.231 270.617 209.956 271.059C209.45 271.831 209.035 272.542 209.087 273.472C209.138 274.078 210.027 274.142 210.24 273.61C210.632 272.63 211.059 271.729 211.536 270.783C211.861 270.134 212.31 269.177 211.91 268.464C211.741 268.234 211.454 268.216 211.325 268.457Z" fill="white"/>
<path d="M213.593 269.236C212.362 270.432 210.817 272.087 210.949 273.959C210.995 274.659 211.99 274.701 212.226 274.113C212.506 273.413 212.635 272.685 213.011 271.991C213.398 271.269 213.83 270.598 214.319 269.949C214.622 269.518 214.008 268.85 213.593 269.236Z" fill="white"/>
<path d="M215.461 269.952C214.985 271.873 213.276 273.202 212.671 275.039C212.43 275.722 213.426 276.414 213.87 275.714C214.852 274.159 216.7 271.91 216.355 269.92C216.242 269.388 215.556 269.47 215.461 269.952Z" fill="white"/>
<path d="M202.464 270.363C202.34 270.346 202.244 270.34 202.121 270.323C201.777 270.283 201.536 270.804 201.851 270.995C204.17 272.379 206.932 273.226 209.346 274.454C211.502 275.512 213.793 277.535 216.34 277.289C216.88 277.246 217.324 276.546 217.036 276.041C216.974 275.951 216.924 275.834 216.862 275.744C216.636 275.329 216.006 275.109 215.68 275.595C215.619 275.668 215.574 275.78 215.512 275.853C215.787 275.736 216.063 275.619 216.338 275.502C213.706 275.226 211.415 273.528 208.979 272.52C206.908 271.657 204.342 270.239 202.053 270.329C202.115 270.581 202.189 270.805 202.251 271.058C202.341 270.996 202.459 270.946 202.549 270.885C202.768 270.745 202.739 270.409 202.464 270.363Z" fill="white"/>
<path d="M217.505 272.915C217.786 272.216 218.398 271.746 218.853 271.181C219.174 270.79 218.88 270.218 218.414 270.161C218.357 270.138 218.29 270.143 218.251 270.16C217.789 270.17 217.644 270.697 217.757 271.067C217.796 271.213 217.375 271.693 217.319 271.833C217.139 272.119 216.999 272.387 216.903 272.707C216.797 273.054 217.348 273.307 217.505 272.915Z" fill="white"/>
<path d="M218.105 270.362C218.262 270.62 217.314 272.416 217.106 272.853C216.668 273.782 216.118 274.666 215.889 275.646C215.732 276.363 216.857 276.814 217.239 276.187C217.958 275.046 218.333 273.702 218.714 272.425C218.916 271.759 219.381 270.353 218.492 269.965C218.278 269.846 217.975 270.115 218.105 270.362Z" fill="white"/>
</g>
<g opacity="0.4">
<path d="M50.2836 57.6621C42.7235 60.56 37.8034 69.3744 36.4034 77.0216C36.2834 77.6656 37.2834 77.9473 37.4034 77.3033C38.8834 69.8976 43.1235 61.204 50.4436 58.1451C50.7236 58.0243 50.6036 57.5414 50.2836 57.6621Z" fill="white"/>
<path d="M52.0035 60.5198C48.9635 63.3371 46.2435 66.557 44.0435 70.0989C42.0035 73.3188 39.8034 77.1021 39.4034 80.966C39.3234 81.6502 40.2834 81.6502 40.4834 81.1269C41.8835 77.3838 43.0834 73.8018 45.1635 70.3404C47.2035 66.9595 49.6036 63.7799 52.4436 61.0027C52.7236 60.6807 52.3235 60.238 52.0035 60.5198Z" fill="white"/>
<path d="M54.8036 64.9471C50.9635 70.7428 47.8435 77.0216 44.4435 83.0991C43.8835 84.065 45.3235 84.87 45.9235 83.9846C49.8036 78.1888 52.2836 71.5478 55.8436 65.5508C56.2036 64.9068 55.2036 64.3031 54.8036 64.9471Z" fill="white"/>
<path d="M59.7237 69.2134C57.0436 74.5262 52.8836 79.5975 51.5636 85.514C51.4036 86.2385 52.4436 86.7618 52.8036 86.0373C55.4436 80.644 58.2836 75.2909 60.7637 69.8574C61.1237 69.1329 60.0837 68.4889 59.7237 69.2134Z" fill="white"/>
<path d="M63.6437 74.6469C61.4437 79.9195 58.7637 84.9505 57.0837 90.4646C56.7637 91.511 58.4437 91.994 58.7237 90.9073C60.2837 85.4335 62.7237 80.2817 64.4438 74.8884C64.6038 74.3249 63.8437 74.1639 63.6437 74.6469Z" fill="white"/>
<path d="M66.9638 78.3095C66.0837 85.2323 62.8037 91.5915 61.9237 98.5143C61.8037 99.3192 63.1637 99.4802 63.3237 98.7155C64.7637 91.9135 67.5638 85.353 67.7238 78.3095C67.7638 77.8265 67.0438 77.8668 66.9638 78.3095Z" fill="white"/>
<path d="M79.1239 69.3744C74.0438 81.3282 70.2438 93.8857 66.7237 106.363C66.4037 107.49 68.1238 107.973 68.4438 106.846C72.2038 94.4492 75.8039 81.9721 79.6839 69.6159C79.8039 69.2939 79.2839 69.0524 79.1239 69.3744Z" fill="white"/>
<path d="M84.2039 74.8884C80.0839 85.5542 76.3638 96.3408 72.4038 107.087C72.0038 108.174 73.6838 108.576 74.0838 107.57C78.2439 96.9446 81.6839 86.0373 84.964 75.1299C85.124 74.6067 84.3639 74.4054 84.2039 74.8884Z" fill="white"/>
<path d="M87.204 86.4398C84.884 92.155 82.284 97.7093 80.1239 103.465C79.6839 104.632 81.5239 105.115 81.9639 103.988C84.244 98.313 86.524 92.5978 88.564 86.802C88.884 85.9568 87.564 85.6348 87.204 86.4398Z" fill="white"/>
<path d="M89.924 91.6318C89.284 93.5235 88.644 95.4151 88.004 97.3068C87.644 98.3935 89.324 98.8362 89.684 97.7898C90.324 95.8981 90.924 93.9662 91.564 92.0745C91.884 91.0281 90.244 90.6256 89.924 91.6318Z" fill="white"/>
<path d="M120.684 51.1016C119.324 58.95 117.084 66.557 115.404 74.2847C115.164 75.3714 116.684 75.7739 117.044 74.7274C119.684 67.2412 120.844 59.0708 121.724 51.2223C121.804 50.6186 120.764 50.4978 120.684 51.1016Z" fill="white"/>
<path d="M115.844 54.563C115.684 62.0894 111.604 68.5292 110.044 75.7337C109.844 76.7399 111.324 77.1424 111.564 76.1362C113.324 68.9719 116.964 62.0894 116.644 54.5227C116.604 54.08 115.844 54.0397 115.844 54.563Z" fill="white"/>
<path d="M107.764 62.2102C106.884 65.5105 105.844 68.7707 104.564 71.9101C104.164 72.9163 105.804 73.359 106.204 72.3528C107.484 69.1732 108.364 65.913 109.164 62.5724C109.324 61.6869 108.004 61.3247 107.764 62.2102Z" fill="white"/>
<path d="M102.604 63.8201C101.084 66.235 99.7641 68.6901 98.5641 71.266C98.1241 72.2723 99.5241 72.876 99.9241 71.8295C100.964 69.2536 102.124 66.718 103.364 64.2629C103.684 63.7799 102.924 63.3371 102.604 63.8201Z" fill="white"/>
<path d="M92.2841 67.523C91.244 69.2939 90.324 71.1051 89.404 72.9565C89.004 73.8017 90.284 74.5665 90.684 73.7212C91.5641 71.8698 92.4841 70.0183 93.4841 68.2474C93.8841 67.4425 92.7241 66.7583 92.2841 67.523Z" fill="white"/>
<path d="M35.9634 12.6643C31.7633 12.9058 28.2833 16.4477 25.3632 19.1846C21.1632 23.1289 17.8032 27.516 15.0831 32.5873C9.44308 43.1726 7.04302 54.563 8.40304 66.5168C9.68305 78.0681 13.9631 89.0156 20.8032 98.3533C23.9632 102.66 27.5633 106.604 31.8434 109.744C36.6834 113.285 42.4035 115.62 48.1235 117.27C54.8436 119.202 61.5237 119.806 68.4438 118.598C75.4439 117.351 81.9639 114.493 88.164 110.991C89.244 110.388 88.284 108.858 87.204 109.341C76.5238 114.251 64.9237 118.316 53.0836 115.741C42.2035 113.366 32.5633 108.496 25.3233 99.8424C11.8831 83.7833 6.00301 59.8355 13.8031 39.8723C16.1631 33.7948 19.1232 27.7978 23.4433 22.8874C26.5233 19.3858 31.0833 13.8718 35.9634 13.3486C36.3634 13.2681 36.3634 12.6241 35.9634 12.6643Z" fill="white"/>
<path d="M22.1232 74.8482C22.8432 80.0402 21.9232 85.2725 22.1632 90.5048C22.4032 95.2542 23.3632 100.003 25.0032 104.431C25.3632 105.397 26.8433 105.035 26.5633 103.988C25.1232 98.9973 23.8032 94.0467 23.6032 88.8144C23.4032 84.0651 23.8833 79.3158 22.8432 74.6469C22.7232 74.2042 22.0832 74.4055 22.1232 74.8482Z" fill="white"/>
<path d="M28.8833 86.3995C29.4033 93.9662 29.5233 101.855 32.7234 108.858C33.0834 109.623 34.3234 109.059 34.0434 108.295C31.7234 101.171 31.0034 93.8052 30.2433 86.3995C30.1633 85.5543 28.8433 85.5141 28.8833 86.3995Z" fill="white"/>
<path d="M36.7634 95.4151C37.4034 101.171 38.0034 106.966 39.9234 112.48C40.2434 113.446 41.8034 113.044 41.4834 112.038C39.5234 106.604 38.6434 100.929 37.5234 95.2944C37.4034 94.9321 36.6834 95.0126 36.7634 95.4151Z" fill="white"/>
<path d="M47.4435 106.805C48.7235 110.186 50.1235 113.366 52.3236 116.224C52.9236 116.988 54.2036 115.982 53.6436 115.177C51.7236 112.36 50.2036 109.301 48.8835 106.161C48.5635 105.357 47.1235 105.96 47.4435 106.805Z" fill="white"/>
<path d="M17.4432 67.6437C17.0432 72.9565 16.0031 78.2291 15.9631 83.5821C15.9631 84.3871 17.2032 84.3871 17.2432 83.5821C17.3232 78.2693 18.2032 72.9968 18.1232 67.6437C18.0832 67.201 17.4832 67.201 17.4432 67.6437Z" fill="white"/>
<path d="M11.9231 62.1699C11.9231 63.2566 12.0031 64.3031 12.2431 65.3496C12.3231 65.7923 13.0031 65.5911 12.9231 65.1483C12.7631 64.1421 12.7231 63.1761 12.7631 62.1699C12.7631 61.6467 11.9231 61.6064 11.9231 62.1699Z" fill="white"/>
<path d="M115.644 63.1359C115.924 79.5975 109.004 94.2882 98.2841 106.403C97.7641 107.007 98.6041 107.892 99.1641 107.288C110.524 95.2139 117.204 79.8792 116.284 63.1359C116.324 62.6932 115.644 62.6529 115.644 63.1359Z" fill="white"/>
<path d="M99.5241 16.2465C97.8041 12.0606 92.4041 9.48472 88.724 7.3113C82.644 3.68894 75.4439 2.28025 68.5638 1.07279C61.5637 -0.174907 54.4436 -0.617625 47.4835 1.3143C40.6835 3.16573 33.3234 5.33913 27.1633 8.92124C5.68303 21.4385 -2.87707 47.3585 0.842978 71.1856C4.68302 95.6164 25.0833 115.056 47.8436 122.502C61.8037 127.05 77.1639 124.998 90.524 119.484C102.564 114.493 113.404 105.437 118.204 92.96C119.524 89.5389 120.004 85.9567 120.564 82.3344C121.164 78.5108 122.444 74.9689 123.284 71.2258C124.804 64.4238 123.644 56.6962 122.204 49.9747C120.684 42.9312 119.044 35.9682 114.924 29.9712C111.444 24.8999 108.804 19.6676 103.804 15.8842C101.404 14.0328 98.7641 12.5436 96.0841 11.0947C94.7241 10.3702 93.5641 12.3826 94.8841 13.1473C99.7642 16.005 104.444 19.2248 107.724 23.9339C109.324 26.2281 110.644 28.7235 112.244 31.0579C114.444 34.2778 115.884 37.4574 116.764 41.281C118.284 47.8415 120.084 54.241 120.484 61.0027C120.684 64.3836 120.764 67.845 119.924 71.1453C119.004 74.7275 117.884 78.1486 117.324 81.8112C116.324 88.3314 114.724 94.0467 110.884 99.5205C107.244 104.713 102.444 109.14 97.0841 112.48C85.884 119.403 71.4038 122.824 58.3237 121.456C46.6035 120.208 35.2034 114.493 26.0833 107.127C17.2032 99.9632 9.84307 90.6256 6.00303 79.7585C-1.43706 58.8293 3.403 32.7081 19.9632 17.4942C25.3233 12.5838 31.4433 9.28347 38.3234 7.02956C45.7235 4.61465 52.7236 2.28024 60.6437 2.80347C67.9638 3.28645 75.8039 4.77565 82.644 7.43204C85.644 8.59925 88.364 10.2897 91.124 11.8996C93.3641 13.1876 96.5641 14.556 97.8841 16.9307C98.4041 17.7759 99.9241 17.2124 99.5241 16.2465Z" fill="white"/>
<path d="M103.524 21.197C103.164 26.3891 101.604 31.8226 98.2842 35.8877C94.3241 40.7578 88.884 41.8444 83.004 40.0735C80.0439 39.188 77.6839 37.3769 74.8839 36.2499C73.2439 35.6059 70.5238 35.1632 69.0038 36.3304C67.8838 37.2159 68.4038 38.4233 67.7638 39.4698C66.9238 40.798 64.8838 40.5565 63.5237 40.798C62.2837 41.0395 61.2437 41.5225 60.3637 42.4079C59.6437 43.1324 59.1237 44.1386 58.2437 44.7021C57.0037 45.5071 55.8836 45.1448 54.5636 45.1851C52.4436 45.1851 50.3236 46.6743 48.7236 48.0025C46.5235 49.8942 46.1635 53.8385 49.7236 54.2812C53.4836 54.724 56.9637 50.8601 60.5237 52.5908C63.0437 53.7983 64.8838 54.3617 67.7238 54.5227C70.8438 54.6837 74.4438 54.2812 77.2039 55.8912C77.9639 56.3339 78.6839 56.8571 79.3239 57.5011C79.4839 57.6621 80.5239 58.7086 80.3639 58.9098C80.2039 59.0708 79.4039 58.6683 79.2839 58.6281C76.9639 58.3463 75.6039 60.9222 73.2439 60.882C71.2839 60.8417 69.8838 58.9903 67.9238 59.272C66.7638 59.433 66.3238 60.1978 65.0438 59.4733C64.0438 58.9098 63.4037 57.9036 62.3237 57.4206C61.2037 56.9376 60.4437 57.1791 59.3237 57.0584C57.9237 56.9376 57.6837 56.1326 56.6036 55.5692C54.2436 54.3215 51.2436 55.5692 48.8836 56.1326C46.8436 56.6156 44.8035 57.0181 42.9635 58.0244C40.6435 59.3123 38.8835 61.4857 37.2435 63.5384C33.9634 67.6035 31.5634 72.393 32.2834 77.7461C32.8434 82.0929 35.8834 84.8701 39.9635 86.0373C44.2035 87.2045 51.0436 85.3128 54.3636 88.7339C57.9237 92.3965 58.2437 98.9167 60.2037 103.425C62.4037 108.456 67.2038 113.366 73.0839 112.802C76.0839 112.521 78.7239 110.951 81.1639 109.301C83.684 107.651 86.364 106.041 88.6441 104.069C92.8041 100.446 95.9641 94.4492 94.0441 88.8144C93.2041 86.3593 91.0841 85.0713 89.524 83.1393C87.044 80.0805 86.164 75.9751 84.724 72.393C84.044 70.7831 81.444 71.3868 82.044 73.1578C83.604 77.9473 87.004 82.7369 91.6841 84.87C95.1641 86.48 102.724 86.48 102.924 81.1269C103.124 75.6934 96.9642 76.9411 93.8441 75.0494C92.9241 74.4859 91.2441 72.876 93.1641 72.7955C94.2041 72.7553 95.2841 73.1175 96.2841 73.359C98.3242 73.9225 100.284 74.7274 102.244 75.3714C105.164 76.3776 108.124 76.8606 110.884 78.3095C113.764 79.839 116.324 82.2136 119.724 80.8452C121.564 80.1207 120.524 77.5448 118.684 78.3095C116.404 79.2755 114.084 77.0216 112.204 76.0556C110.804 75.3312 109.364 74.7677 107.884 74.2847C105.484 73.52 103.044 72.9968 100.644 72.1918C98.1242 71.3063 90.6041 68.167 89.6441 72.715C89.1241 75.1299 91.5641 77.0618 93.5241 77.907C95.0841 78.551 101.004 78.5108 100.164 81.3684C99.6442 83.2199 96.5241 83.3808 95.0441 83.1393C93.2041 82.8576 91.5241 81.8514 90.1241 80.6842C87.564 78.551 85.684 75.6129 84.724 72.393C83.844 72.6345 82.924 72.876 82.044 73.1578C83.004 75.7739 83.884 78.4303 85.044 80.966C86.244 83.5821 87.764 85.353 89.764 87.3252C94.0441 91.6318 90.964 98.1118 87.204 101.613C85.164 103.505 82.6839 104.914 80.4039 106.443C78.0839 107.973 75.3639 109.703 72.5238 109.703C66.5238 109.663 63.4437 103.425 61.8837 98.5143C60.5637 94.3284 59.4037 88.9351 55.8036 86.0775C52.3636 83.3004 47.4035 84.1053 43.3235 83.7431C38.2034 83.3003 34.6434 80.4427 34.8834 75.0092C35.0034 72.232 35.9634 69.7366 37.4435 67.4022C39.0435 64.9068 41.1235 61.8882 43.6435 60.2783C45.6035 58.9903 48.0035 58.6281 50.2036 58.0646C51.4836 57.7426 52.8036 57.2596 54.1236 57.2596C55.9237 57.2596 56.2837 58.6683 57.7237 59.1915C58.6037 59.5135 59.4437 59.1513 60.3237 59.1915C61.7237 59.272 62.4037 60.1173 63.3637 60.9222C64.0837 61.526 64.9238 62.0492 65.8838 62.1699C66.7638 62.2907 67.1238 61.8882 67.9238 61.687C69.5638 61.3247 71.4838 63.0956 73.3239 63.1761C74.1639 63.2164 74.9639 62.9749 75.7239 62.6529C76.9239 62.1699 78.0839 60.9625 79.4039 61.0832C80.7239 61.204 81.884 61.6064 82.524 59.9965C83.124 58.4268 82.004 56.9376 80.9239 55.8912C77.4839 52.631 73.5239 52.631 69.0438 52.5505C67.4438 52.5103 65.6438 52.6311 64.0438 52.1883C62.9238 51.8663 62.0037 51.1821 60.9237 50.7394C59.3237 50.0954 58.1637 50.1357 56.5636 50.6186C54.8436 51.1419 53.2436 51.9066 51.4836 52.2688C50.8436 52.3896 49.7636 52.6713 49.2036 52.148C47.8035 50.8198 50.5236 49.2099 51.4036 48.6867C52.6036 48.0025 53.6436 47.6402 55.0036 47.6805C55.8836 47.7207 56.7237 47.8012 57.6437 47.6C60.2037 47.0365 60.6837 44.9033 62.6837 43.6556C64.8038 42.3677 67.5238 43.4142 69.3638 41.3615C70.0438 40.5968 70.0438 39.8723 70.4038 39.0271C70.4438 38.9063 70.4038 38.5038 70.4838 38.3831C70.8038 37.9001 72.8438 38.2624 73.2038 38.3429C74.6839 38.7051 75.9239 39.7515 77.2839 40.476C78.6439 41.2005 80.0839 41.8445 81.5639 42.3275C84.204 43.2129 87.044 43.6959 89.8441 43.3739C99.9242 42.086 104.804 30.2127 104.484 21.1568C104.484 20.553 103.564 20.553 103.524 21.197Z" fill="white"/>
<path d="M58.0437 5.86237C59.4037 6.62709 57.6837 10.0482 57.4837 11.1752C57.1637 12.8254 57.0036 14.5963 58.1237 15.9647C59.4837 17.6954 61.7637 17.8564 63.7637 18.0174C65.7237 18.1784 68.2438 19.3053 67.6438 21.8007C67.2838 23.4107 65.2438 24.4571 63.8837 25.0206C61.2437 26.1073 57.8437 26.6708 55.0436 25.8256C52.6436 25.1011 51.4836 23.6924 53.2836 21.8007C55.6036 19.4261 57.4037 17.3734 54.6436 14.395C54.3636 14.1133 54.0036 14.1133 53.6436 14.2743C51.0436 15.4012 50.2036 17.5747 48.7635 19.8286C46.7235 22.968 42.3235 24.1352 38.9634 25.2621C37.2034 25.8658 35.4834 26.5098 33.6033 26.5098C31.7233 26.5098 29.8833 26.1073 27.9633 26.2281C24.6833 26.4293 22.0032 28.643 18.8032 28.965C17.4432 29.0857 15.4431 28.8845 14.1631 28.2808C12.1231 27.355 13.7232 25.1011 14.6432 23.7327C16.7632 20.6738 19.8832 18.4199 22.9232 16.3672C29.3633 12.0204 36.0034 8.11627 43.3635 5.50012C45.4835 4.77565 56.7637 0.589813 55.4436 5.50012C55.1236 6.74782 57.0836 7.27105 57.3236 6.02335C59.4437 -4.88398 34.9234 7.11007 32.3234 8.47852C28.7633 10.3702 25.3633 12.5436 21.9632 14.717C18.9232 16.6892 15.8431 18.8626 13.5631 21.7605C12.2431 23.4509 10.0031 26.5501 11.4831 28.7235C12.7631 30.6152 16.4832 30.7762 18.4432 30.6152C22.1233 30.2932 24.8833 27.5965 28.7233 27.7173C30.6033 27.7978 32.4434 28.2405 34.3234 28.16C36.2034 28.0795 38.0034 27.355 39.7634 26.7513C42.8035 25.7048 46.7235 24.5779 49.0035 22.1227C49.8835 21.1568 50.4836 19.9896 51.0836 18.8626C51.5636 18.0174 54.0436 14.395 54.4036 17.0917C54.8036 20.2713 48.4836 21.1165 50.8436 25.0206C53.6036 29.6089 61.4837 28.2807 65.4037 26.3086C67.8838 25.1011 70.3238 22.6862 69.2838 19.7078C68.0038 16.1257 65.2037 16.4074 62.1237 15.8842C55.0436 14.717 63.0837 6.62708 58.4036 4.8964C57.9236 4.8159 57.6037 5.62088 58.0437 5.86237Z" fill="white"/>
</g>
</svg>
