<svg width="420" height="351" viewBox="0 0 420 351" fill="none" xmlns="http://www.w3.org/2000/svg">
<g opacity="0.4">
<path d="M36.5203 62.281C39.4571 69.7831 49.1719 73.2077 56.5879 70.7713C64.5611 68.181 67.7594 59.9198 68.1955 52.2322C68.243 51.1861 66.4759 51.1208 66.3719 52.1405C65.6166 58.6801 63.3359 65.9561 56.6559 68.7355C49.4755 71.6952 41.0658 68.362 37.1995 61.9429C36.967 61.5589 36.3712 61.8669 36.5203 62.281Z" fill="white"/>
<path d="M24.8056 69.399C30.5908 75.782 36.7753 81.8341 42.9299 87.8034C50.7446 95.3734 58.6817 103.414 67.7148 109.656C69.038 110.583 73.2283 113.845 74.4881 111.193C74.8902 110.347 73.8023 109.289 73.0188 109.992C73.0873 109.92 73.0755 110.018 72.7804 109.984C72.3454 109.954 71.949 109.769 71.5527 109.584C70.152 108.966 68.9122 108.009 67.6605 107.15C63.8309 104.366 60.2187 101.27 56.6482 98.1589C48.4492 90.9612 40.5361 83.3799 32.6797 75.825C30.2476 73.5201 27.8007 71.1738 25.4789 68.7824C25.1481 68.387 24.4748 69.0036 24.8056 69.399Z" fill="white"/>
<path d="M78.943 62.5816C79.3593 71.4591 79.3555 80.3474 78.4399 89.1899C77.985 93.423 77.3484 97.6748 76.3869 101.81C75.616 105.034 74.9346 109.162 72.9478 111.888C72.4444 112.584 73.0555 113.627 73.9314 113.311C76.2823 112.512 76.6596 107.932 77.2461 105.897C78.5858 101.111 79.419 96.2276 79.9571 91.3097C80.9828 81.726 80.9149 72.115 80.2868 62.5187C80.1555 61.6305 78.8832 61.7612 78.943 62.5816Z" fill="white"/>
<path d="M76.71 94.724C74.9324 99.9947 70.9286 104.056 68.3999 108.942C67.8757 109.973 69.4462 110.67 69.9853 109.681C72.6272 104.847 76.3866 100.5 77.4431 94.9278C77.5056 94.5779 76.8559 94.3441 76.71 94.724Z" fill="white"/>
<path d="M71.3105 93.8618C70.1071 95.8854 69.0737 97.9882 67.8704 100.012C66.5449 102.22 64.8409 103.769 63.2144 105.664C62.6276 106.39 63.3787 107.429 64.2696 107.155C68.9295 105.571 70.8348 98.4298 72.8959 94.6006C73.3784 93.585 71.8645 92.914 71.3105 93.8618Z" fill="white"/>
<path d="M65.6902 91.8629C63.6469 95.218 61.1626 98.2641 59.1193 101.619C58.6993 102.285 59.7275 103.178 60.3322 102.632C63.3143 99.9216 65.2353 96.096 66.9925 92.4698C67.3379 91.5971 66.1638 91.0844 65.6902 91.8629Z" fill="white"/>
<path d="M60.2335 88.3552C58.0619 90.9613 56.0452 93.6051 54.2431 96.4524C53.7963 97.1745 55.0182 97.9507 55.5216 97.2549C57.5651 94.5546 59.3254 91.7224 61.0708 88.8488C61.3836 88.4088 60.5879 87.9001 60.2335 88.3552Z" fill="white"/>
<path d="M53.9792 89.4378C53.3447 90.555 52.6686 91.6871 52.1474 92.857C51.7871 93.6884 53.0894 94.2952 53.4498 93.4639C53.9709 92.294 54.6471 91.1619 55.2815 90.0447C55.6567 89.2548 54.411 88.6743 53.9792 89.4378Z" fill="white"/>
<path d="M44.2165 85.095C44.1629 85.2079 44.1092 85.3208 44.0556 85.4336C43.7459 86.0129 44.7234 86.5028 45.0182 85.8822C45.0718 85.7693 45.1254 85.6565 45.179 85.5436C45.3755 84.9116 44.4845 84.5308 44.2165 85.095Z" fill="white"/>
<path d="M16.9171 40.293C17.6129 34.2425 22.9842 29.2682 27.6019 25.7345C34.177 20.701 42.2693 17.7872 50.3948 16.405C57.4445 15.1763 64.7628 15.3477 70.9706 19.2398C77.9174 23.6142 79.2959 30.9759 79.7834 38.6115C79.8732 40.1695 82.1943 39.9418 82.2178 38.4366C82.3499 30.2972 80.5244 22.3481 73.345 17.5897C66.7766 13.2194 58.8206 12.7163 51.1987 14.0575C42.4327 15.6236 33.7445 18.8454 26.7613 24.4469C22.0096 28.2627 16.4805 33.7148 16.1006 40.1192C15.9875 40.7212 16.8457 40.88 16.9171 40.293Z" fill="white"/>
<path d="M75.2438 118.919C58.0689 108.125 41.9873 96.0476 28.9948 80.3792C18.2467 67.4107 4.44255 47.2636 15.7794 30.4591C20.7895 23.0423 29.4627 19.1243 37.8024 16.6359C45.8501 14.2527 54.9259 12.1074 63.3083 13.5327C84.7157 17.2374 84.7277 42.3973 84.2521 59.2668C83.9715 69.6113 83.5359 79.918 82.2452 90.2052C80.9753 100.158 78.9932 110.226 74.5645 119.258C73.68 121.12 76.5677 122.465 77.4522 120.603C86.0415 103.104 86.7248 82.231 87.3489 63.1565C87.9198 45.5044 89.4213 19.7059 69.2137 11.8741C60.7922 8.63871 51.5613 10.0915 42.986 12.0566C33.9788 14.1305 24.6291 17.2163 17.6759 23.5554C10.9014 29.7365 7.78976 38.7617 8.72758 47.7788C9.74899 57.4206 14.6737 66.1247 20.1672 73.9223C27.0915 83.7306 35.4101 92.5691 44.4645 100.441C53.5755 108.339 63.5117 115.52 74.818 119.962C75.4855 120.376 75.9114 119.334 75.2438 118.919Z" fill="white"/>
<path d="M49.1289 31.08C42.1015 26.2201 35.8784 32.6237 33.0462 39.0225C29.5588 46.8732 30.1122 55.6078 36.6214 61.7768C43.4019 68.1756 54.0307 68.5114 61.9498 64.0697C70.298 59.38 72.9921 49.1954 69.179 40.6992C64.6145 30.5089 53.9698 26.2031 43.2999 28.5015C41.682 28.8502 41.7214 31.315 43.4972 31.1433C51.3695 30.3668 58.7625 31.4 63.9072 37.9668C68.6196 43.9877 69.5306 53.0612 63.8258 58.8104C58.3683 64.3303 48.9495 65.5233 42.1876 61.9242C35.7237 58.4985 32.8078 51.3162 34.3943 44.337C35.7635 38.3247 40.892 27.3104 48.7208 31.6479C49.0755 31.8476 49.4419 31.2947 49.1289 31.08Z" fill="white"/>
</g>
<g opacity="0.4">
<path d="M143.042 270.398C145.744 270.314 147.945 268.366 150.632 268C151.044 267.96 150.953 267.288 150.549 267.3C147.767 267.454 145.726 269.6 143.002 269.986C142.75 270.009 142.797 270.392 143.042 270.398Z" fill="white"/>
<path d="M141.204 275.035C144.792 273.194 148.506 271.788 152.457 270.971C152.95 270.861 152.752 270.128 152.268 270.21C148.206 270.872 144.465 272.487 140.881 274.422C140.48 274.65 140.839 275.242 141.204 275.035Z" fill="white"/>
<path d="M142.284 279.586C147.122 277.567 152.215 276.296 157.078 274.407C157.529 274.224 157.34 273.463 156.889 273.646C151.939 275.511 146.885 276.978 142.056 279.185C141.801 279.329 142.036 279.703 142.284 279.586Z" fill="white"/>
<path d="M147.658 264.065C148.272 267.409 150.608 270.089 152.74 272.62C153.18 273.143 153.94 272.398 153.492 271.904C151.342 269.553 149.08 267.047 148.114 263.975C148.014 263.67 147.615 263.776 147.658 264.065Z" fill="white"/>
<path d="M136.511 238.947C141.901 250.946 150.26 261.673 159.079 271.294C163.667 276.293 168.611 280.897 173.547 285.53C178.919 290.591 183.995 295.941 189.063 301.319C191.587 303.99 194.029 306.73 196.723 309.232C199.29 311.638 201.901 313.994 203.848 316.967C204.45 317.904 205.94 317.084 205.382 316.098C204.005 313.621 201.882 311.616 199.828 309.692C197.508 307.509 195.282 305.321 193.087 303.018C188.011 297.669 182.95 292.262 177.66 287.131C172.707 282.339 167.531 277.794 162.711 272.854C158.03 268.076 153.572 263.052 149.503 257.735C144.833 251.697 140.792 245.278 136.957 238.67C136.731 238.484 136.366 238.691 136.511 238.947Z" fill="white"/>
<path d="M196.388 332.127C199.91 329.189 202.888 325.884 206.752 323.379C207.316 323.012 206.848 322.143 206.235 322.466C202.09 324.43 199.303 328.713 196.08 331.795C195.808 331.997 196.145 332.337 196.388 332.127Z" fill="white"/>
<path d="M194.339 337.415C196.751 335.71 198.94 333.696 201.31 331.918C203.708 330.148 206.19 328.524 208.666 326.806C209.201 326.43 208.763 325.569 208.15 325.892C205.573 327.305 203.26 329.099 200.976 330.901C198.602 332.802 196.112 334.793 194.096 337.07C193.983 337.254 194.149 337.547 194.339 337.415Z" fill="white"/>
<path d="M218.033 320.216C216.661 320.946 215.199 321.558 213.724 322.105C213.179 322.293 213.394 323.184 213.967 323.004C215.557 322.489 217.048 321.885 218.488 321.02C218.978 320.694 218.544 319.926 218.033 320.216Z" fill="white"/>
<path d="M170.305 287.899C172.832 289.337 175.77 289.288 178.526 289.897C179.048 290.011 179.299 289.217 178.756 289.067C176.031 288.344 173.166 288.352 170.489 287.456C170.224 287.414 170.064 287.77 170.305 287.899Z" fill="white"/>
<path d="M174.688 294.196C176.971 294.736 179.239 294.994 181.588 295.182C182.22 295.234 182.224 294.218 181.592 294.166C179.365 293.981 177.11 293.788 174.926 293.338C174.367 293.244 174.145 294.046 174.688 294.196Z" fill="white"/>
<path d="M179.419 298.68C182.239 300.169 185.426 299.665 188.429 300.496C189.086 300.678 189.372 299.648 188.714 299.466C185.724 298.7 182.55 299.269 179.611 298.209C179.346 298.166 179.178 298.551 179.419 298.68Z" fill="white"/>
<path d="M184.765 303.056C187.515 304.465 190.966 303.787 193.926 303.99C194.652 304.037 194.667 302.87 193.933 302.852C190.912 302.755 187.925 303.315 184.941 302.643C184.704 302.608 184.523 302.928 184.765 303.056Z" fill="white"/>
<path d="M188.019 306.422C191.708 307.444 195.585 307.562 199.286 308.648C199.972 308.838 200.266 307.779 199.579 307.589C195.829 306.458 191.941 306.491 188.089 305.949C187.795 305.898 187.733 306.343 188.019 306.422Z" fill="white"/>
<path d="M196.058 312.746C197.642 313.585 199.401 313.795 201.111 314.176C201.691 314.306 201.973 313.398 201.365 313.26C199.711 312.895 198.031 312.738 196.525 311.951C196.021 311.657 195.555 312.453 196.058 312.746Z" fill="white"/>
<path d="M200.091 317.529C200.991 317.501 201.855 317.494 202.74 317.523C203.38 317.546 203.376 316.559 202.736 316.536C201.851 316.507 200.959 316.506 200.066 316.506C199.447 316.519 199.435 317.563 200.091 317.529Z" fill="white"/>
<path d="M191.166 251.243C185.225 253.912 179.079 255.538 172.832 257.198C172.303 257.329 172.521 258.098 173.042 257.996C179.35 256.784 185.67 254.528 191.497 251.827C191.911 251.665 191.56 251.043 191.166 251.243Z" fill="white"/>
<path d="M192.1 243.089C187.284 244.806 182.199 245.494 177.227 246.552C172.783 247.478 167.494 248.572 163.849 251.507C163.496 251.779 163.937 252.301 164.294 252.123C166.534 250.925 168.652 249.724 171.099 248.892C173.408 248.114 175.784 247.539 178.172 247.029C182.884 246.022 187.691 245.227 192.205 243.488C192.453 243.371 192.368 243.009 192.1 243.089Z" fill="white"/>
<path d="M164.646 251.851C167.946 256.277 172.626 259.391 176.375 263.418C176.872 263.956 177.677 263.162 177.179 262.623C173.422 258.625 168.651 255.733 165.072 251.537C164.854 251.323 164.465 251.616 164.646 251.851Z" fill="white"/>
<path d="M139.649 230.725C135.212 229.959 133.959 236.823 134.253 239.986C134.298 240.491 135.089 240.525 135.08 239.999C134.931 237.092 135.772 231.162 139.603 231.113C139.819 231.111 139.885 230.76 139.649 230.725Z" fill="white"/>
<path d="M133.714 231.701C133.079 234.33 134.011 236.745 134.769 239.235C134.907 239.735 135.668 239.545 135.537 239.016C134.948 236.696 133.922 234.286 134.351 231.847C134.425 231.467 133.825 231.301 133.714 231.701Z" fill="white"/>
<path d="M128.522 226.104C134.729 222.03 141.619 229.391 145.524 233.523C148.216 236.363 150.856 239.282 153.451 242.25C156.725 245.991 159.757 249.943 162.994 253.705C166.211 257.43 169.626 260.995 172.673 264.889C175.713 268.812 178.598 272.846 181.41 276.921C187.13 285.284 192.833 293.704 198.18 302.302C204.121 311.866 208.983 321.994 214.53 331.757C215.171 332.89 216.7 331.926 216.246 330.784C207.985 311.364 195.933 293.514 184.086 276.152C181.178 271.865 178.153 267.669 174.982 263.556C171.831 259.479 168.276 255.752 164.854 251.878C161.44 247.974 158.306 243.84 154.811 240.007C152.052 236.963 149.199 233.924 146.278 231.02C141.882 226.66 134.039 219.743 128.072 225.394C127.696 225.752 128.112 226.36 128.522 226.104Z" fill="white"/>
<path d="M130.095 225.091C124.548 224.111 128.293 233.714 129.169 235.774C131.765 241.854 135.276 247.633 139.076 253.03C145.483 262.138 152.873 270.47 160.441 278.604C168.248 286.99 175.075 296.245 183.133 304.392C187.891 309.222 193.025 313.694 198.168 318.137C203.211 322.492 208.29 327.164 213.839 330.919C214.978 331.696 216.382 329.959 215.356 328.997C211.226 325.234 206.675 321.879 202.419 318.236C198.135 314.585 193.969 310.843 189.826 307.015C181.921 299.65 175.171 291.341 168.136 283.169C161.241 275.159 153.793 267.704 147.149 259.456C142.18 253.273 137.543 246.782 133.644 239.848C132.516 237.81 125.827 227.053 130.061 225.883C130.459 225.778 130.503 225.174 130.095 225.091Z" fill="white"/>
<path d="M165.349 252.538C165.299 252.494 165.258 252.421 165.209 252.376C165.048 252.178 164.79 252.445 164.95 252.644C164.999 252.688 165.041 252.761 165.09 252.806C165.222 252.996 165.509 252.737 165.349 252.538Z" fill="white"/>
<path d="M163.076 250.738C164.524 249.845 166.235 249.671 167.853 249.164C169.833 248.572 171.808 247.886 173.809 247.331C178.014 246.153 182.232 245.041 186.424 243.798C190.718 242.521 195.032 241.281 199.305 239.968C203.44 238.71 207.515 237.003 211.696 235.911C214.522 235.152 217.697 234.583 220.604 235.203C221.649 235.431 223.315 235.861 223.195 237.184C223.042 238.959 220.68 240.154 219.329 240.92C215.787 242.929 212.361 245.185 208.901 247.339C205.405 249.515 201.793 251.442 198.165 253.427C193.961 255.714 189.814 258.017 185.507 260.122C183.655 261.027 181.771 261.83 179.899 262.698C179.119 263.068 178.331 263.466 177.531 263.799C177.044 264.003 176.058 264.562 175.527 264.477C173.944 264.193 173.27 266.626 174.862 266.881C177.543 267.315 180.785 264.947 183.123 263.838C187.647 261.731 192.034 259.34 196.363 256.934C200.547 254.61 204.792 252.396 208.844 249.881C212.851 247.416 216.739 244.826 220.821 242.535C223.049 241.272 226.495 238.498 224.943 235.541C223.714 233.198 220.124 232.821 217.777 232.849C213.86 232.874 210.133 234.215 206.451 235.506C201.578 237.208 196.601 238.727 191.633 240.217C186.127 241.867 180.671 243.561 175.124 245.138C172.485 245.886 169.929 246.781 167.344 247.667C165.608 248.265 163.764 248.587 162.356 249.892C162.05 250.331 162.557 251.057 163.076 250.738Z" fill="white"/>
<path d="M146.577 262.41C144.589 262.476 142.788 265.644 141.674 267C138.638 270.627 135.885 274.456 133.308 278.427C128.194 286.224 123.317 294.057 118.649 302.132C116.925 305.137 114.74 308.692 114.671 312.278C114.639 314.95 116.218 318.807 119.49 318.111C120.93 317.801 122.059 316.727 123.07 315.743C124.708 314.163 126.387 312.656 128.017 311.104C131.593 307.749 135.1 304.314 138.549 300.862C142.398 296.966 146.001 292.849 149.94 289.071C153.674 285.482 157.744 282.233 161.267 278.402C162.326 277.246 160.649 275.519 159.591 276.674C156.859 279.646 153.783 282.308 150.784 285.021C147.778 287.763 145.018 290.728 142.2 293.676C136.291 299.898 130.144 305.869 123.828 311.67C122.671 312.736 121.555 313.875 120.299 314.853C119.748 315.286 118.991 315.908 118.267 315.523C117.591 315.182 117.341 313.972 117.222 313.292C116.691 310.095 118.946 306.621 120.424 303.948C124.346 296.899 128.428 290.048 132.69 283.217C135.197 279.165 137.675 275.106 140.493 271.264C141.59 269.75 142.764 268.287 143.804 266.757C144.424 265.85 145.433 263.541 146.625 263.348C147.17 263.159 147.046 262.385 146.577 262.41Z" fill="white"/>
<path d="M201.332 237.54C200.17 232.843 195.271 231.857 191.375 233.921C190.295 234.485 188.463 235.21 187.901 236.349C187.106 237.885 188.98 239.791 189.707 240.947C190.239 241.803 191.857 241.296 191.445 240.227C191.175 239.536 189.547 237.852 189.693 237.215C189.764 236.957 191.339 236.161 191.814 235.892C193.238 235.084 194.81 234.41 196.472 234.747C198.37 235.118 199.413 236.578 200.521 238.025C200.821 238.385 201.437 237.939 201.332 237.54Z" fill="white"/>
<path d="M180 244.207C180.66 243.157 179.601 241.755 178.7 241.228C177.374 240.46 175.611 240.712 174.225 241.16C172.838 241.608 171.365 242.371 170.507 243.582C169.813 244.53 169.411 246.206 170.675 246.864C171.158 247.121 171.914 246.837 171.88 246.181C171.808 245.329 171.549 245.041 172.179 244.322C172.846 243.582 173.881 243.068 174.796 242.766C175.71 242.465 176.716 242.281 177.675 242.485C178.871 242.724 178.894 243.531 179.646 244.263C179.773 244.36 179.932 244.342 180 244.207Z" fill="white"/>
<path d="M139.285 270.96C139.547 269.677 138.38 268.892 137.182 268.991C135.61 269.111 134.111 270.298 133.048 271.36C131.511 272.907 130.202 274.855 129.91 277.024C129.695 278.69 130.278 279.807 131.348 281.058C132.097 281.912 133.608 280.79 132.94 279.866C132.433 279.14 131.785 278.59 131.729 277.681C131.618 276.079 132.791 274.401 133.756 273.251C134.402 272.474 135.126 271.75 135.981 271.217C137.129 270.517 137.72 270.496 138.85 271.086C139.062 271.207 139.266 271.14 139.285 270.96Z" fill="white"/>
<path d="M127.235 289.687C127.065 288.747 126.538 287.091 125.569 286.699C124.265 286.184 122.806 287.783 122.03 288.585C120.878 289.745 119.522 290.972 119.099 292.612C118.652 294.337 119.479 295.798 120.541 297.078C121.323 298.034 122.746 296.672 121.928 295.737C119.843 293.372 121.447 291.69 123.201 289.803C123.771 289.191 124.606 288.066 125.387 288.467C125.977 288.784 126.127 289.689 126.802 290.03C127.051 290.129 127.286 289.948 127.235 289.687Z" fill="white"/>
<path d="M152.128 285.948C151.034 288.233 152.719 291.042 151.861 293.362C150.943 295.789 146.577 292.546 144.894 293.066C144.451 293.221 144.076 293.795 144.41 294.257C145.21 295.372 147.368 295.692 148.629 295.918C149.919 296.152 151.633 296.411 152.709 295.415C155.052 293.29 152.716 288.607 152.5 286.051C152.483 285.892 152.241 285.763 152.128 285.948Z" fill="white"/>
<path d="M135.239 302.811C135.555 303.669 135.689 304.631 135.81 305.527C135.948 306.366 136.385 308.121 135.89 308.908C135.741 309.113 136.078 308.898 135.875 308.965C135.708 309.012 135.401 308.896 135.23 308.848C134.658 308.69 134.081 308.438 133.533 308.194C132.608 307.753 131.723 307.169 130.731 306.863C129.852 306.589 128.97 307.886 129.745 308.532C130.881 309.432 132.333 310.08 133.695 310.611C134.836 311.05 136.559 311.497 137.368 310.242C138.065 309.171 137.718 307.534 137.423 306.374C137.103 305.084 136.627 303.689 135.82 302.602C135.634 302.274 135.097 302.433 135.239 302.811Z" fill="white"/>
<path d="M188.748 260.31C188.531 261.206 188.803 262.113 188.933 262.981C189.057 263.755 189.258 264.92 188.143 264.611C187.17 264.342 186.187 263.669 185.323 263.121C184.643 262.687 184.042 261.966 183.175 262.095C182.886 262.139 182.713 262.43 182.621 262.651C182.174 263.821 184.101 264.755 184.838 265.206C185.866 265.829 187.226 266.699 188.493 266.68C189.854 266.656 190.811 265.535 190.78 264.201C190.773 262.782 189.859 261.635 189.649 260.282C189.58 259.863 188.839 259.873 188.748 260.31Z" fill="white"/>
<path d="M208.552 249.492C208.516 251.177 208.779 254.454 206.294 254.198C204.5 254.009 202.877 252.975 201.186 252.414C200.029 252.032 199.53 253.835 200.678 254.246C202.804 255.019 205.565 256.831 207.888 255.779C210.211 254.728 209.903 251.284 209.088 249.333C208.98 249.056 208.566 249.219 208.552 249.492Z" fill="white"/>
<path d="M201.533 319.993C198.924 324.633 195.649 328.903 192.721 333.361C191.067 335.892 186.572 341.674 192.129 342.842C195.672 343.608 198.396 340.109 200.357 337.694C201.427 336.388 202.39 335.021 203.558 333.804C205.576 331.743 207.823 329.962 210.059 328.116C211.213 327.172 209.619 325.59 208.452 326.469C205.369 328.82 202.389 331.354 199.98 334.385C198.984 335.65 198.016 336.922 196.9 338.062C196.027 338.991 194.835 340.294 193.484 340.506C190.796 340.871 192.136 338.592 192.851 337.342C194.177 334.997 195.581 332.705 196.928 330.397C197.937 328.643 199.102 326.993 200.132 325.275C201.041 323.77 202.131 321.946 202.019 320.128C202.025 319.883 201.69 319.759 201.533 319.993Z" fill="white"/>
<path d="M207.725 314.528C208.106 316.266 212.446 315.157 213.508 314.989C216.443 314.507 219.355 313.772 222.223 313.087C224.171 312.61 226.054 311.59 228.075 311.41C229.496 311.28 230.221 312.775 229.305 313.969C228.688 314.754 227.2 315.235 226.345 315.769C223.801 317.283 221.307 318.842 218.764 320.357C217.579 321.077 216.325 321.715 215.169 322.443C214.159 323.088 213.099 324.027 211.873 324.119C210.452 324.249 210.424 326.461 211.866 326.367C214.355 326.162 216.63 324.173 218.719 322.964C221.758 321.217 224.685 319.315 227.704 317.532C229.691 316.356 231.902 315.489 231.848 312.793C231.803 310.84 230.641 309.255 228.591 309.211C226.39 309.156 224.251 310.321 222.198 310.954C220.783 311.394 219.314 311.696 217.879 312.1C215.914 312.635 213.95 313.17 211.944 313.631C210.895 313.864 209.07 314.561 207.984 314.26C207.849 314.192 207.687 314.332 207.725 314.528Z" fill="white"/>
<path d="M143.958 233.397C142.2 231.74 139.513 232.66 137.742 233.833C136.051 234.937 133.349 237.578 134.248 239.892C134.573 240.721 135.713 240.605 135.815 239.679C136.024 237.703 136.576 236.376 138.179 235.033C139.657 233.809 141.813 232.803 143.683 233.722C143.896 233.842 144.155 233.575 143.958 233.397Z" fill="white"/>
<path d="M135.34 239.393C134.088 238.245 133.409 236.362 132.989 234.767C132.543 233.041 132.073 230.847 133.525 229.492C134.978 228.138 136.863 228.444 138.476 229.291C140.117 230.146 140.915 231.6 142.305 232.693C142.912 233.169 144.002 232.793 143.73 231.886C143.082 229.888 140.505 228.189 138.668 227.372C136.497 226.432 134.047 226.494 132.284 228.193C130.484 229.914 130.625 232.295 131.295 234.545C131.894 236.498 133.039 239.033 135.123 239.733C135.315 239.817 135.488 239.526 135.34 239.393Z" fill="white"/>
<path d="M208.25 244.355C208.229 244.318 208.229 244.318 208.25 244.355C208.127 244.352 208.013 244.32 207.891 244.317C207.605 244.793 208.451 245.52 208.73 245.844C209.142 246.358 209.59 246.852 210.01 247.338C210.59 248.023 211.601 247.039 211.021 246.355C210.651 245.913 210.199 245.542 209.748 245.17C209.297 244.799 208.861 244.37 208.305 244.155C208.199 244.094 208.024 244.169 207.943 244.239C207.943 244.239 207.943 244.239 207.935 244.268C207.891 244.317 207.867 244.403 207.88 244.468C207.893 244.533 207.942 244.578 207.991 244.622C208.131 244.784 208.382 244.546 208.25 244.355Z" fill="white"/>
<path d="M208.45 244.965C205.834 247.076 202.512 248.067 199.411 249.149C196.07 250.32 192.829 251.795 189.576 253.206C186.038 254.753 182.493 256.329 178.901 257.738C176.662 258.598 174.002 259.31 172.169 260.928C171.242 261.719 172.652 263.188 173.488 262.279C175.226 260.45 178.089 259.671 180.36 258.697C184.064 257.103 187.743 255.379 191.406 253.712C194.712 252.224 198.01 250.764 201.382 249.479C204.064 248.465 206.721 247.321 208.824 245.284C209.03 245.095 208.693 244.755 208.45 244.965Z" fill="white"/>
<path d="M128.165 309.235C127.215 308.663 126.733 307.513 126.042 306.675C125.996 307.062 125.922 307.442 125.868 307.859C128.892 305.831 131.174 302.703 133.553 300.003C136.243 296.957 139.069 293.98 141.808 290.979C144.414 288.126 146.893 285.176 149.598 282.412C152.08 279.895 155.023 277.382 156.751 274.255C157.233 273.402 156.022 272.327 155.36 273.161C153.137 275.966 150.826 278.531 148.336 281.077C145.631 283.841 143.173 286.827 140.567 289.68C135.42 295.374 130.244 301.059 124.97 306.655C124.614 307.05 124.724 307.542 125.106 307.833C126.016 308.547 126.768 309.834 128.083 309.643C128.299 309.641 128.321 309.339 128.165 309.235Z" fill="white"/>
<path d="M184.502 292.106C185.875 295.044 187.985 297.538 190.067 300.025C192.582 303.063 194.971 306.221 197.397 309.357C202.375 315.727 207.742 321.805 212.874 328.063C213.517 328.857 214.588 327.767 214.003 326.989C209.23 320.768 203.731 315.055 198.751 309.024C196.327 306.103 193.976 303.141 191.472 300.291C189.135 297.61 186.592 295.119 184.917 291.943C184.759 291.623 184.386 291.858 184.502 292.106Z" fill="white"/>
</g>
<g opacity="0.4">
<path d="M339.412 156.306C335.261 160.333 330.393 163.374 325.284 166.029C324.456 166.457 325.238 167.666 326.04 167.268C331.295 164.748 336.054 161.119 339.939 156.792C340.264 156.441 339.736 155.954 339.412 156.306Z" fill="white"/>
<path d="M339.767 150.455C333.137 155.934 325.242 159.433 318.011 163.977C317.076 164.578 317.982 166.064 318.917 165.463C326.232 160.888 334.032 157.139 340.567 151.41C341.112 150.937 340.341 150.009 339.767 150.455Z" fill="white"/>
<path d="M332.887 148.387C324.599 152.606 315.941 156.051 307.747 160.52C306.919 160.948 307.701 162.157 308.502 161.759C316.761 157.513 325.264 153.708 333.431 149.268C334.009 148.934 333.468 148.11 332.887 148.387Z" fill="white"/>
<path d="M320.513 147.805C312.283 151.374 303.8 154.276 295.847 158.425C294.908 158.914 295.781 160.261 296.692 159.802C304.654 155.877 312.955 152.644 321.009 148.913C321.676 148.661 321.179 147.553 320.513 147.805Z" fill="white"/>
<path d="M302.758 148.057C297.457 150.156 292.096 152.145 286.542 153.577C285.678 153.809 286.095 155.061 286.962 154.886C292.549 153.593 297.882 151.577 303.148 149.339C303.923 148.97 303.562 147.715 302.758 148.057Z" fill="white"/>
<path d="M277.046 103.677C272.799 117.155 264.31 128.939 260.806 142.669C260.586 143.495 261.836 143.728 262.115 142.955C266.45 129.559 273.966 117.419 277.787 103.874C277.879 103.363 277.17 103.25 277.046 103.677Z" fill="white"/>
<path d="M261.395 143.971C279.522 149.428 297.37 155.658 315.466 161.032C316.293 161.253 316.551 159.974 315.751 159.724C297.755 154.007 279.778 148.093 261.509 143.318C261.14 143.248 261.023 143.844 261.395 143.971Z" fill="white"/>
<path d="M288.221 110.143C285.345 118.491 291.247 127.731 297.518 132.869C305.1 139.054 314.858 140.472 324.315 139.336C325.326 139.24 325.289 137.634 324.251 137.76C315.517 138.641 306.309 137.568 299.098 132.214C292.731 127.475 286.561 118.584 288.82 110.317C288.942 109.833 288.347 109.772 288.221 110.143Z" fill="white"/>
<path d="M307.68 92.1162C305.355 91.1086 308.57 89.0357 309.482 88.5766C310.973 87.7845 312.707 87.4338 314.367 87.3399C317.517 87.1588 320.784 87.7344 323.784 88.7153C328.702 90.3816 333.055 94.1286 334.031 99.4192C335.735 108.741 328.882 118.459 323.291 125.222C322.726 125.893 323.693 126.785 324.316 126.168C330.603 119.885 336.65 110.453 336.021 101.201C335.272 90.3752 323.467 85.0622 313.76 86.2924C311.262 86.5887 308.79 87.5043 307.091 89.4044C305.931 90.7192 305.756 91.9668 307.559 92.6004C307.759 92.677 307.91 92.2199 307.68 92.1162Z" fill="white"/>
<path d="M337.728 177.351C325.631 174.587 314.282 170.074 302.763 165.567C290.959 160.959 278.974 156.781 267.268 151.831C266.322 151.445 265.616 152.798 266.537 153.27C278.268 158.839 290.694 162.774 302.836 167.369C314.15 171.686 325.428 176.513 337.559 178.063C338.041 178.128 338.183 177.446 337.728 177.351Z" fill="white"/>
<path d="M303.594 46.9932C303.507 44.8536 304.026 41.6469 306.122 40.4924C307.556 39.7024 309.39 40.4194 310.739 41.0145C313.296 42.1821 315.509 43.8991 317.933 45.2694C318.772 45.7719 319.478 44.4187 318.64 43.9161C315.407 42.0704 312.096 39.0151 308.222 38.7455C303.869 38.4668 302.493 43.4839 303.002 46.9885C303.02 47.4389 303.61 47.3873 303.594 46.9932Z" fill="white"/>
<path d="M253.243 154.332C264.293 154.937 275.184 157.185 285.969 159.606C286.566 159.723 286.782 158.784 286.185 158.667C275.336 156.079 264.423 153.974 253.215 153.656C252.792 153.645 252.817 154.264 253.243 154.332Z" fill="white"/>
<path d="M266.942 163.94C280.624 163.399 294.227 165.764 307.773 167.427C308.483 167.54 308.748 166.43 308.012 166.346C294.375 164.546 280.72 162.295 266.917 163.321C266.552 163.364 266.548 163.956 266.942 163.94Z" fill="white"/>
<path d="M377.328 84.4241C368.92 104.467 356.506 122.384 345.994 141.298C345.548 142.133 346.844 142.787 347.319 141.979C357.946 123.117 370.272 105.118 378.394 84.974C378.618 84.2602 377.609 83.708 377.328 84.4241Z" fill="white"/>
<path d="M303.011 36.104C298.722 42.2798 296.483 49.6434 293.518 56.4999C290.45 63.5861 286.836 70.4401 283.423 77.3707C276.602 91.3446 270.27 105.553 263.478 119.554C259.602 127.574 255.782 135.593 252.28 143.796C251.611 145.401 254.002 146.632 254.699 145.053C260.851 130.57 267.981 116.556 274.622 102.307C277.864 95.3269 280.875 88.243 284.146 81.2897C287.471 74.2779 291.139 67.3654 294.29 60.2477C297.752 52.441 300.185 44.2803 304.163 36.6787C304.527 35.9311 303.493 35.4646 303.011 36.104Z" fill="white"/>
<path d="M381.686 63.2446C381.818 63.042 381.953 62.8956 382.086 62.693C382.521 62.281 381.818 61.6321 381.412 62.0711C379.249 64.3562 378.138 67.5582 376.987 70.4518C375.579 73.9758 374.027 77.4209 372.562 80.9471C369.636 88.0559 366.566 95.0858 363.466 102.089C357.16 116.268 350.684 130.397 345.154 144.912C342.046 153.1 338.964 161.258 335.685 169.396C335.044 170.972 337.38 172.261 338.075 170.626C344.111 156.74 348.627 142.265 354.548 128.327C360.648 113.958 367.408 99.8741 373.022 85.3277C374.527 81.4051 376.144 77.478 377.619 73.5284C379.047 69.8062 380.282 66.1763 382.14 62.6345C381.854 62.533 381.568 62.4315 381.282 62.3301C381.131 62.7872 381.156 62.7016 381.147 63.1813C381.213 63.4043 381.584 63.5306 381.686 63.2446Z" fill="white"/>
<path d="M303.865 36.2957C305.279 34.9991 308.775 37.0882 310.098 37.7126C311.939 38.5984 313.752 39.5135 315.645 40.2845C323.214 43.3685 330.86 46.252 338.533 49.1063C351.959 54.0732 366.26 56.2703 378.969 63.0138C380.238 63.6967 381.149 61.8278 379.961 61.0571C373.538 57.0254 365.841 54.9616 358.598 52.9926C350.473 50.8048 342.564 48.3828 334.666 45.5374C327.426 42.9198 319.913 40.5385 312.956 37.2611C311.059 36.3775 304.654 32.7963 303.14 35.7887C302.962 36.2751 303.539 36.5906 303.865 36.2957Z" fill="white"/>
<path d="M254.251 144.423C253.99 146.35 258.937 147.339 260.108 147.715C263.821 148.865 267.61 149.815 271.372 150.794C278.695 152.675 285.843 155.099 293.02 157.55C300.055 159.979 307.135 162.123 314.324 164.151C318.545 165.337 322.769 166.58 326.891 168.108C330.728 169.536 334.519 171.246 338.457 172.388C339.912 172.809 340.357 170.564 338.956 170.084C334.583 168.65 330.366 166.871 326.018 165.351C321.9 163.935 317.735 162.747 313.543 161.588C305.073 159.244 296.808 156.385 288.437 153.7C281.55 151.463 274.567 149.624 267.532 147.901C265.282 147.341 262.975 146.784 260.722 146.168C259.553 145.848 258.441 145.526 257.296 145.12C256.839 144.969 256.382 144.818 255.951 144.637C255.636 144.509 255.456 144.234 255.469 144.572C255.44 143.84 254.363 143.713 254.251 144.423Z" fill="white"/>
<path d="M254.437 144.161C250.744 149.045 258.596 150.059 261.739 151.063C270.11 153.748 278.321 156.666 286.793 159.066C295.209 161.468 303.447 164.356 311.688 167.3C319.814 170.193 328.077 173.701 336.504 175.679C337.671 175.943 338.386 174.11 337.212 173.678C330.053 170.972 322.664 168.868 315.453 166.277C308.301 163.741 301.175 161.175 293.922 158.924C286.668 156.674 279.347 154.849 272.114 152.4C268.511 151.189 264.936 149.949 261.283 148.853C259.999 148.481 258.717 148.165 257.435 147.849C255.782 147.407 254.322 146.873 255.312 144.86C255.654 144.254 254.811 143.639 254.437 144.161Z" fill="white"/>
<path d="M260.761 151.299C274.063 158.047 288.626 162.546 302.467 168.004C309.602 170.795 316.815 173.442 323.822 176.548C328.53 178.618 333.453 181.806 338.764 182.047C340.233 182.102 340.141 179.85 338.673 179.795C333.305 179.556 328.024 175.874 323.12 173.841C316.064 170.906 308.878 168.23 301.77 165.409C288.359 160.132 274.798 155.311 261.36 150.063C260.555 149.7 259.925 150.853 260.761 151.299Z" fill="white"/>
<path d="M381.364 76.1717C377.589 83.9062 373.323 91.35 370.01 99.3482C366.669 107.376 363.273 115.405 359.847 123.408C356.448 131.381 352.876 139.249 349.418 147.168C347.767 150.956 346.143 154.714 344.348 158.422C342.58 162.102 340.503 165.821 339.424 169.812C339.08 171.066 341.056 171.805 341.598 170.571C348.499 155.1 355.487 139.653 361.985 123.972C365.273 116.059 368.535 108.176 371.652 100.214C374.794 92.1658 378.857 84.5891 382.258 76.672C382.515 76.0415 381.65 75.5682 381.364 76.1717Z" fill="white"/>
<path d="M380.102 91.6455C376.503 98.8373 373.534 106.286 370.078 113.557C366.596 120.857 362.654 127.949 359.056 135.198C355.459 142.446 352.177 149.822 348.895 157.199C345.613 164.576 342.301 171.925 339.506 179.48C339 180.91 341.102 181.983 341.608 180.553C344.345 172.944 347.627 165.567 350.853 158.193C354.105 150.789 357.331 143.415 360.899 136.14C364.467 128.865 368.265 121.693 371.603 114.314C374.915 106.965 377.625 99.3851 380.85 92.0107C381.113 91.5491 380.363 91.1276 380.102 91.6455Z" fill="white"/>
<path d="M381.812 75.3926C381.268 73.8069 380.053 72.3605 378.877 71.1664C378.23 70.5153 377.307 71.3978 377.704 72.1434C378.072 72.862 378.826 73.396 379.439 73.9075C380.023 74.3919 380.976 74.9464 381.368 75.5794C381.519 75.8271 381.906 75.6426 381.812 75.3926Z" fill="white"/>
<path d="M381.954 84.4665C381.321 84.1532 380.74 83.725 380.158 83.2969C379.633 82.8665 379.189 82.3484 378.534 82.1769C377.878 82.0055 377.485 82.726 377.76 83.2509C378.125 83.9132 378.9 84.249 379.562 84.5894C380.225 84.9297 380.912 85.1845 381.621 85.2974C382.162 85.417 382.443 84.7009 381.954 84.4665Z" fill="white"/>
<path d="M381.959 84.5791C378.926 86.2782 378.163 91.102 377.214 94.1284C376.937 94.9571 378.246 95.2436 378.552 94.442C379.582 91.3277 380.138 87.6683 382.376 85.1265C382.644 84.7776 382.29 84.3968 381.959 84.5791Z" fill="white"/>
<path d="M334.917 87.8797C334.054 82.5846 328.532 79.9271 323.776 78.7901C317.798 77.3914 311.618 77.9744 306.027 80.5644C294.316 85.9062 285.855 99.7758 287.481 112.767C289.051 125.055 300.766 134.404 312.673 135.963C324.663 137.49 336.434 130.144 341.612 119.477C344.686 113.209 345.659 105.219 343.779 98.4975C342.887 95.2902 341.291 92.0825 339.598 89.2734C338.114 86.7662 336.291 84.216 333.381 83.3726C332.439 83.0997 332.07 84.4395 332.823 84.9173C336.964 87.6013 339.562 93.2506 341.154 97.7555C343.097 103.233 342.684 109.735 340.903 115.191C337.586 125.192 327.926 133.131 317.323 133.805C306.832 134.474 295.078 127.636 291.068 117.757C286.654 106.963 292.174 93.5761 300.679 86.3592C305.668 82.1295 312.027 79.7065 318.579 79.9546C324.538 80.198 331.607 82.0611 334.162 88.0505C334.345 88.3817 334.991 88.3279 334.917 87.8797Z" fill="white"/>
<path d="M326.269 81.1446C326.462 81.0524 326.656 80.9601 326.85 80.8678C326.669 80.593 326.489 80.3182 326.306 79.987C322.851 83.0846 320.114 87.2251 317.621 91.1023C314.995 95.182 312.772 99.4715 310.808 103.892C306.93 112.561 303.748 121.71 301.298 130.83C300.934 132.282 303.094 132.704 303.546 131.333C306.478 122.278 309.043 113.21 312.919 104.485C314.752 100.324 316.842 96.2368 319.137 92.3393C321.565 88.2392 324.545 84.5401 327.147 80.5459C327.518 79.9673 326.452 79.4173 326.174 80.1897C326.097 80.3901 326.021 80.5905 325.944 80.7909C325.897 81.0183 326.102 81.2076 326.269 81.1446Z" fill="white"/>
<path d="M313.677 77.9775C312.29 79.9498 310.194 81.1043 308.544 82.8333C307.058 84.443 305.692 86.2171 304.47 88.0701C301.837 91.9809 299.752 96.1803 298.07 100.589C295.162 108.149 292.986 116.384 293.317 124.548C293.376 126.012 295.629 125.922 295.569 124.459C295.261 116.153 297.508 107.604 300.524 99.9282C302.213 95.6881 304.218 91.5765 306.743 87.7827C308.044 85.7856 309.459 83.8403 311.197 82.1925C312.473 80.9859 313.698 79.8941 314.193 78.1827C314.348 77.8381 313.836 77.7456 313.677 77.9775Z" fill="white"/>
<path d="M333.023 84.2891C333.274 87.0142 332.377 89.9259 331.75 92.5448C330.946 95.6502 330.168 98.7263 329.021 101.732C327.065 107.026 324.565 112.144 322.093 117.233C320.477 120.512 318.803 123.736 317.015 126.909C316.092 128.496 315.17 130.083 314.159 131.59C313.813 132.083 312.588 133.879 312.165 133.868C310.809 133.809 310.803 135.755 311.945 136.104C314.486 136.878 316.954 131.676 317.877 130.089C320.042 126.45 322.001 122.622 323.848 118.799C326.451 113.451 329.052 108.047 331.024 102.443C332.187 99.1257 332.921 95.6848 333.487 92.2505C333.918 89.6675 334.533 86.767 333.807 84.1452C333.705 83.7263 333.005 83.8386 333.023 84.2891Z" fill="white"/>
<path d="M291.15 98.9176C295.212 101.041 300.03 101.64 304.299 103.303C308.827 105.098 313.249 107.066 317.851 108.604C322.424 110.114 327.123 111.254 331.723 112.735C335.267 113.892 338.99 114.619 342.329 116.291C343.106 116.683 343.917 115.805 343.491 115.033C342.124 112.633 337.379 112.427 335.038 111.73C330.127 110.232 325.221 108.848 320.313 107.406C315.318 105.941 310.554 103.873 305.661 102.122C300.968 100.446 296.163 99.4805 291.325 98.375C291.041 98.3298 290.861 98.7599 291.15 98.9176Z" fill="white"/>
<path d="M289.354 115.146C296.693 116.716 304.029 117.525 311.103 120.206C314.453 121.455 317.758 122.988 320.847 124.755C322.839 125.888 324.785 127.306 326.075 129.2C326.764 130.216 327.15 131.385 328.061 132.28C329.088 133.282 330.684 131.612 329.6 130.612C328.399 129.503 327.792 127.751 326.643 126.527C325.435 125.25 323.984 124.236 322.511 123.364C319.187 121.38 315.486 119.807 311.852 118.513C304.844 116.055 296.904 114.255 289.46 114.267C288.924 114.261 288.87 115.024 289.354 115.146Z" fill="white"/>
<path d="M301.584 85.7312C306.732 92.3793 315.776 94.277 323.498 96.2552C329.197 97.7214 336.699 101.231 342.457 98.5781C343.729 97.9638 342.55 96.0084 341.28 96.6791C338.409 98.2026 334.476 97.1741 331.516 96.5017C328.84 95.8746 326.213 95.0763 323.567 94.4761C316.135 92.7119 307.639 91.1027 302.241 85.254C301.89 84.9296 301.316 85.3753 301.584 85.7312Z" fill="white"/>
</g>
</svg>
