<svg width="100" height="68" viewBox="0 0 100 68" fill="none" xmlns="http://www.w3.org/2000/svg">
<g opacity="0.25">
<path d="M91.346 0H8.65402C3.88184 0 0 3.92174 0 8.74299V59.257C0 64.0775 3.88184 68 8.65402 68H91.346C96.1182 68 100 64.0775 100 59.257V8.74299C100 3.92174 96.1182 0 91.346 0ZM8.65402 5.82866H91.346C92.9367 5.82866 94.2307 7.13591 94.2307 8.74299V13.5997H5.76935V8.74299C5.76935 7.13591 7.06329 5.82866 8.65402 5.82866ZM94.2307 25.257H5.76935V19.4284H94.2307V25.257ZM91.346 62.1713H8.65402C7.06329 62.1713 5.76935 60.8641 5.76935 59.257V31.0857H94.2307V59.257C94.2307 60.8641 92.9367 62.1713 91.346 62.1713Z" fill="white"/>
<path d="M78.846 38.8567C76.6312 38.8567 74.6094 39.703 73.0766 41.0904C71.5446 39.703 69.5229 38.8567 67.308 38.8567C62.5359 38.8567 58.654 42.7792 58.654 47.5997C58.654 52.4202 62.5359 56.3427 67.308 56.3427C69.5229 56.3427 71.5446 55.4964 73.0766 54.109C74.6094 55.4971 76.6312 56.3427 78.846 56.3427C83.6182 56.3427 87.5 52.4202 87.5 47.5997C87.5 42.7792 83.6182 38.8567 78.846 38.8567ZM67.308 50.514C65.7173 50.514 64.4234 49.2068 64.4234 47.5997C64.4234 45.9926 65.7173 44.6854 67.308 44.6854C68.898 44.6854 70.192 45.9926 70.192 47.5997C70.192 49.2068 68.898 50.514 67.308 50.514ZM78.846 50.514C77.2552 50.514 75.9613 49.2068 75.9613 47.5997C75.9613 45.9926 77.2552 44.6854 78.846 44.6854C80.4367 44.6854 81.7307 45.9926 81.7307 47.5997C81.7307 49.2068 80.4367 50.514 78.846 50.514Z" fill="white"/>
<path d="M26.9234 44.6854H15.3847C13.7917 44.6854 12.5 45.9903 12.5 47.5997C12.5 49.2091 13.7917 50.514 15.3847 50.514H26.9234C28.5164 50.514 29.808 49.2091 29.808 47.5997C29.808 45.9903 28.5164 44.6854 26.9234 44.6854Z" fill="white"/>
</g>
</svg>
