<svg width="75" height="75" viewBox="0 0 75 75" fill="none" xmlns="http://www.w3.org/2000/svg">
<g clip-path="url(#clip0)">
<path d="M68.5095 40.3845V31.0095C68.5095 27.4309 65.5981 24.519 62.019 24.519H58.9411L62.649 12.1599C62.8189 11.594 62.7497 10.9823 62.4573 10.4685C62.1649 9.95464 61.6751 9.58271 61.1017 9.43966L51.202 6.96487V2.16351C51.202 0.968742 50.2333 0 49.0385 0H11.5385C10.3437 0 9.375 0.968742 9.375 2.16351V24.519H6.49052C2.91138 24.519 0 27.4309 0 31.0095V68.5095C0 72.0886 2.91138 75 6.49052 75H62.019C65.5981 75 68.5095 72.0886 68.5095 68.5095V59.1345C72.0886 59.1345 75 56.2231 75 52.644V46.875C75 43.2964 72.0886 40.3845 68.5095 40.3845ZM57.8533 13.0875L54.6404 23.798H51.202V11.4246L57.8533 13.0875ZM13.702 4.32701H46.875V24.519H13.702V4.32701ZM64.1825 68.5095C64.1825 69.7025 63.212 70.673 62.019 70.673H6.49052C5.29747 70.673 4.32701 69.7025 4.32701 68.5095V31.0095C4.32701 29.8164 5.29747 28.846 6.49052 28.846H62.019C63.212 28.846 64.1825 29.8164 64.1825 31.0095V40.3845H56.25C52.6714 40.3845 49.7595 43.2964 49.7595 46.875V52.644C49.7595 56.2231 52.6714 59.1345 56.25 59.1345H64.1825V68.5095ZM70.673 52.644C70.673 53.837 69.7025 54.8075 68.5095 54.8075H56.25C55.057 54.8075 54.0865 53.837 54.0865 52.644V46.875C54.0865 45.682 55.057 44.7115 56.25 44.7115H68.5095C69.7025 44.7115 70.673 45.682 70.673 46.875V52.644Z" fill="#53AFE6"/>
<path d="M63.4614 47.5961H62.7405C61.5457 47.5961 60.577 48.5648 60.577 49.7596C60.577 50.9543 61.5457 51.9231 62.7405 51.9231H63.4614C64.6562 51.9231 65.625 50.9543 65.625 49.7596C65.625 48.5648 64.6562 47.5961 63.4614 47.5961Z" fill="#53AFE6"/>
<path d="M41.827 11.5384H39.6635C39.2658 11.5384 38.9426 11.2151 38.9426 10.8175V9.37493C38.9426 8.18017 37.9738 7.21143 36.779 7.21143C35.5843 7.21143 34.6155 8.18017 34.6155 9.37493V10.8175C34.6155 13.6007 36.8798 15.8654 39.6635 15.8654H41.827C43.0218 15.8654 43.9905 14.8967 43.9905 13.7019C43.9905 12.5072 43.0218 11.5384 41.827 11.5384Z" fill="#53AFE6"/>
<path d="M23.798 7.21143C22.6032 7.21143 21.6345 8.18017 21.6345 9.37493V10.8175C21.6345 11.2151 21.3112 11.5384 20.9135 11.5384H18.75C17.5552 11.5384 16.5865 12.5072 16.5865 13.7019C16.5865 14.8967 17.5552 15.8654 18.75 15.8654H20.9135C23.6967 15.8654 25.9615 13.6007 25.9615 10.8175V9.37493C25.9615 8.18017 24.9927 7.21143 23.798 7.21143Z" fill="#53AFE6"/>
</g>
<defs>
<clipPath id="clip0">
<rect width="75" height="75" fill="white"/>
</clipPath>
</defs>
</svg>
