<svg width="75" height="75" viewBox="0 0 75 75" fill="none" xmlns="http://www.w3.org/2000/svg">
<path d="M68.5095 61.3077V36.5141C72.3318 34.7609 75 30.8538 75 26.322C75 26.2442 74.9971 26.1675 74.9954 26.0902C75.0229 25.6319 74.9039 25.1696 74.6452 24.7747C74.6441 24.773 74.6429 24.7713 74.6418 24.7696L69.615 17.0357C69.6047 17.0197 69.5944 17.0031 69.5841 16.987L65.625 10.8971V6.49052C65.625 2.91138 62.7136 0 59.1345 0H15.8655C12.2864 0 9.375 2.91138 9.375 6.49052V10.8971L0.3582 24.7696C0.357056 24.7719 0.355911 24.7742 0.354767 24.7759C0.102425 25.161 -0.0143051 25.6084 0.00514983 26.0525C0.00286102 26.1423 0 26.2316 0 26.322C0 30.8538 2.66819 34.7609 6.49052 36.5141V61.3077C2.87991 61.496 0 64.4926 0 68.149C0 71.9267 3.07331 75 6.85101 75H68.149C71.9267 75 75 71.9267 75 68.149C75 64.4926 72.1201 61.496 68.5095 61.3077ZM65.752 32.9327C65.6124 32.9716 65.4722 33.0059 65.3315 33.0351C65.3286 33.0357 65.3252 33.0362 65.3223 33.0374C65.0436 33.0952 64.7621 33.1335 64.4794 33.1541C64.4554 33.1558 64.4302 33.1575 64.4062 33.1593C64.2717 33.1673 64.1373 33.173 64.0022 33.173C63.8958 33.173 63.7899 33.1696 63.6847 33.165C63.6509 33.1633 63.6177 33.1604 63.5839 33.1581C63.5118 33.1535 63.4403 33.1484 63.3688 33.1409C63.3305 33.1375 63.2921 33.1329 63.2538 33.1289C63.1868 33.1209 63.1199 33.1123 63.0535 33.1026C63.0152 33.0969 62.9774 33.0912 62.9396 33.0849C62.8704 33.0734 62.8012 33.0608 62.7325 33.0471C62.6999 33.0408 62.6667 33.0345 62.6347 33.0276C62.538 33.007 62.443 32.9847 62.348 32.9596C62.344 32.9584 62.34 32.9578 62.336 32.9567C62.237 32.9304 62.1391 32.9018 62.0424 32.8709C62.0121 32.8611 61.9829 32.8508 61.9532 32.8405C61.8856 32.8188 61.8193 32.7959 61.7529 32.7713C61.7186 32.7581 61.6842 32.745 61.6499 32.7318C61.5887 32.7078 61.5274 32.6832 61.4668 32.6574C61.4325 32.6431 61.3987 32.6288 61.3649 32.6134C61.3014 32.5859 61.2391 32.5562 61.1773 32.5264C61.1481 32.5121 61.1189 32.4989 61.0903 32.4846C61.0067 32.4423 60.9238 32.3994 60.8425 32.3542C60.8362 32.3507 60.8299 32.3473 60.8236 32.3439C60.7355 32.2947 60.6491 32.2432 60.5639 32.1905C60.5387 32.1745 60.5135 32.1579 60.4883 32.1419C60.4288 32.1035 60.3693 32.0652 60.3109 32.0246C60.2812 32.0045 60.252 31.9839 60.2228 31.9628C60.169 31.925 60.1158 31.8861 60.0626 31.846C60.034 31.8243 60.0048 31.8026 59.9762 31.7802C59.9224 31.7379 59.8686 31.6944 59.816 31.6509C59.7914 31.6303 59.7662 31.6097 59.7416 31.5891C59.6729 31.5302 59.6054 31.4701 59.539 31.4089C59.5322 31.402 59.5242 31.3957 59.5173 31.3889C59.4435 31.3202 59.3719 31.2492 59.3016 31.1777C59.2815 31.1571 59.2621 31.1359 59.2421 31.1153C59.1923 31.0627 59.1431 31.0101 59.095 30.9563C59.071 30.9299 59.0475 30.9025 59.024 30.8756C58.9811 30.8258 58.9382 30.7749 58.8959 30.724C58.8724 30.6953 58.8495 30.6673 58.8266 30.6381C58.7843 30.5849 58.7425 30.53 58.7019 30.475C58.6819 30.4487 58.6618 30.4224 58.6424 30.3955C58.5915 30.3246 58.5417 30.2525 58.493 30.1798C58.4856 30.1683 58.4776 30.1575 58.4696 30.146C58.4141 30.0613 58.3603 29.9749 58.3082 29.8874C58.2933 29.8628 58.2796 29.8376 58.2653 29.8124C58.2287 29.7495 58.1926 29.686 58.1583 29.6213C58.1406 29.5893 58.124 29.5561 58.1074 29.5235C58.0765 29.4645 58.0467 29.4056 58.0181 29.3455C58.0015 29.3112 57.9855 29.2763 57.9695 29.2419C57.9409 29.1801 57.9134 29.1178 57.8865 29.0548C57.8728 29.0222 57.8585 28.9902 57.8453 28.9576C57.8138 28.8792 57.7835 28.8002 57.7543 28.7212C57.748 28.7035 57.7412 28.6863 57.7349 28.6686C57.7005 28.5719 57.6679 28.4735 57.6376 28.3751C57.629 28.3459 57.621 28.3167 57.6124 28.2875C57.597 28.2337 57.5821 28.1794 57.5678 28.1256H70.439C69.8187 30.4579 68.0243 32.2975 65.752 32.9327ZM52.6989 28.3745C52.6686 28.4735 52.636 28.5713 52.6016 28.6686C52.5953 28.6863 52.5885 28.7029 52.5822 28.7207C52.553 28.8002 52.5227 28.8792 52.4912 28.957C52.478 28.9902 52.4637 29.0222 52.45 29.0548C52.4231 29.1172 52.3956 29.1796 52.3676 29.2414C52.3516 29.2763 52.335 29.3106 52.3184 29.3449C52.2898 29.405 52.26 29.4645 52.2297 29.5235C52.2125 29.5561 52.1959 29.5887 52.1782 29.6213C52.1439 29.686 52.1078 29.7489 52.0712 29.8124C52.0569 29.837 52.0432 29.8628 52.0283 29.8874C51.9762 29.9744 51.9224 30.0608 51.8669 30.1455C51.8589 30.1569 51.8509 30.1683 51.8435 30.1798C51.7948 30.2525 51.745 30.3246 51.6941 30.3949C51.6747 30.4218 51.6546 30.4482 51.6346 30.475C51.594 30.53 51.5522 30.5843 51.5099 30.6381C51.487 30.6667 51.4641 30.6953 51.4406 30.7234C51.3983 30.7749 51.3559 30.8252 51.3124 30.8756C51.289 30.9025 51.2655 30.9294 51.2415 30.9563C51.1934 31.0101 51.1442 31.0627 51.0944 31.1148C51.0744 31.1359 51.055 31.1571 51.0349 31.1771C50.9645 31.2492 50.893 31.3202 50.8192 31.3889C50.8123 31.3951 50.8043 31.402 50.7975 31.4083C50.7311 31.4701 50.6636 31.5296 50.5949 31.5886C50.5703 31.6097 50.5451 31.6298 50.5205 31.6504C50.4679 31.6944 50.4141 31.7373 50.3603 31.7797C50.3317 31.802 50.3025 31.8243 50.2739 31.846C50.2213 31.8855 50.168 31.9244 50.1143 31.9628C50.0845 31.9834 50.0553 32.004 50.0256 32.0246C49.9672 32.0646 49.9077 32.1035 49.8482 32.1419C49.823 32.1579 49.7984 32.1745 49.7726 32.1899C49.6874 32.2432 49.601 32.2947 49.5129 32.3439C49.5066 32.3473 49.5003 32.3502 49.494 32.3536C49.4127 32.3988 49.3298 32.4423 49.2462 32.4841C49.2176 32.4984 49.1884 32.5121 49.1592 32.5258C49.0974 32.5562 49.0351 32.5853 48.9716 32.6134C48.9378 32.6283 48.904 32.6426 48.8697 32.6574C48.8091 32.6826 48.7484 32.7072 48.6866 32.7312C48.6523 32.745 48.6179 32.7581 48.5836 32.7707C48.5172 32.7953 48.4509 32.8182 48.3839 32.8405C48.3536 32.8503 48.3244 32.8611 48.2941 32.8703C48.1974 32.9012 48.0995 32.9298 48.0005 32.9561C47.9965 32.9573 47.9925 32.9584 47.9885 32.9596C47.8935 32.9842 47.798 33.0065 47.7024 33.0276C47.6698 33.0345 47.6366 33.0402 47.604 33.0465C47.5353 33.0603 47.4661 33.0734 47.3969 33.0849C47.3591 33.0912 47.3213 33.0969 47.283 33.102C47.2166 33.1118 47.1497 33.1203 47.0827 33.1284C47.0444 33.1329 47.0066 33.1369 46.9677 33.1409C46.8967 33.1478 46.8246 33.153 46.7525 33.1575C46.7188 33.1598 46.6856 33.1627 46.6518 33.1644C46.5466 33.1696 46.4407 33.1724 46.3343 33.1724C46.2273 33.1724 46.1214 33.1696 46.0161 33.1644C45.9824 33.1627 45.9492 33.1598 45.916 33.1575C45.8439 33.153 45.7718 33.1478 45.7003 33.1409C45.6619 33.1369 45.6236 33.1329 45.5858 33.1284C45.5183 33.1203 45.4514 33.1118 45.385 33.102C45.3472 33.0963 45.3094 33.0912 45.2717 33.0849C45.2019 33.0734 45.1332 33.0603 45.064 33.0465C45.0314 33.0402 44.9987 33.0345 44.9661 33.0276C44.87 33.007 44.7744 32.9842 44.68 32.9596C44.676 32.9584 44.672 32.9573 44.6674 32.9561C44.569 32.9298 44.4712 32.9012 44.3739 32.8703C44.3441 32.8611 44.3144 32.8503 44.2846 32.8405C44.2177 32.8182 44.1507 32.7953 44.0849 32.7707C44.05 32.7581 44.0157 32.745 43.9814 32.7312C43.9201 32.7072 43.8589 32.6826 43.7983 32.6574C43.7645 32.6426 43.7302 32.6283 43.6964 32.6134C43.6335 32.5853 43.5711 32.5562 43.5087 32.5258C43.4795 32.5121 43.4504 32.4984 43.4217 32.4841C43.3382 32.4423 43.2558 32.3988 43.174 32.3536C43.1683 32.3502 43.1614 32.3473 43.1551 32.3439C43.0676 32.2947 42.9811 32.2432 42.8953 32.1899C42.8701 32.1745 42.8455 32.1579 42.8204 32.1419C42.7603 32.1035 42.7013 32.0646 42.6424 32.0246C42.6126 32.004 42.5835 31.9834 42.5543 31.9628C42.5005 31.9244 42.4473 31.8855 42.3946 31.846C42.3655 31.8243 42.3368 31.802 42.3082 31.7797C42.2539 31.7373 42.2007 31.6944 42.148 31.6504C42.1228 31.6298 42.0977 31.6097 42.0736 31.5886C42.005 31.5302 41.9374 31.4701 41.8711 31.4083C41.8636 31.402 41.8562 31.3951 41.8488 31.3889C41.7755 31.3196 41.7034 31.2492 41.633 31.1771C41.613 31.1565 41.5936 31.1354 41.5741 31.1148C41.5243 31.0627 41.4745 31.0101 41.4265 30.9563C41.403 30.9294 41.3795 30.9025 41.3561 30.8756C41.3126 30.8252 41.2697 30.7749 41.2279 30.7234C41.2045 30.6953 41.1816 30.6667 41.1587 30.6381C41.1158 30.5843 41.0746 30.53 41.0334 30.475C41.0139 30.4482 40.9939 30.4218 40.9744 30.3949C40.9229 30.3246 40.8731 30.2525 40.8251 30.1798C40.8171 30.1683 40.8091 30.1569 40.8016 30.1455C40.7461 30.0608 40.6923 29.9744 40.6403 29.8874C40.6254 29.8628 40.6116 29.837 40.5973 29.8124C40.5602 29.7489 40.5247 29.6854 40.4898 29.6213C40.4726 29.5887 40.4554 29.5561 40.4388 29.5235C40.4085 29.4645 40.3788 29.405 40.3496 29.3449C40.333 29.3106 40.317 29.2763 40.3009 29.2414C40.2723 29.1801 40.2449 29.1172 40.2185 29.0548C40.2048 29.0222 40.1905 28.9902 40.1773 28.957C40.1453 28.8792 40.115 28.8002 40.0864 28.7207C40.0801 28.7035 40.0726 28.6863 40.0663 28.6686C40.032 28.5713 40 28.4735 39.9696 28.3745C39.9605 28.3453 39.953 28.3161 39.9445 28.2869C39.9284 28.2337 39.9141 28.1794 39.8998 28.125H52.7687C52.7544 28.1794 52.7395 28.2331 52.7241 28.2869C52.7155 28.3161 52.7075 28.3453 52.6989 28.3745ZM35.0304 28.3745C35 28.4735 34.968 28.5713 34.9337 28.6686C34.9274 28.6863 34.9199 28.7029 34.9136 28.7207C34.885 28.8002 34.8547 28.8792 34.8227 28.957C34.8095 28.9902 34.7952 29.0222 34.7815 29.0548C34.7551 29.1172 34.7277 29.1796 34.6991 29.2414C34.683 29.2763 34.667 29.3106 34.6504 29.3449C34.6212 29.405 34.5915 29.4645 34.5612 29.5235C34.5446 29.5561 34.5274 29.5887 34.5102 29.6213C34.4753 29.686 34.4398 29.7489 34.4027 29.8124C34.3884 29.837 34.3746 29.8628 34.3597 29.8874C34.3077 29.9744 34.2545 30.0608 34.1984 30.1455C34.1909 30.1569 34.1829 30.1683 34.1749 30.1798C34.1269 30.2525 34.0771 30.3246 34.0256 30.3949C34.0067 30.4218 33.9861 30.4482 33.9666 30.475C33.9254 30.53 33.8842 30.5843 33.8413 30.6381C33.8184 30.6667 33.7955 30.6953 33.7721 30.7234C33.7303 30.7749 33.6874 30.8252 33.6439 30.8756C33.6205 30.9025 33.597 30.9294 33.5735 30.9563C33.5255 31.0101 33.4757 31.0627 33.4259 31.1148C33.4064 31.1359 33.387 31.1571 33.367 31.1771C33.2966 31.2492 33.2245 31.3202 33.1512 31.3889C33.1438 31.3951 33.1364 31.402 33.1289 31.4083C33.0626 31.4701 32.995 31.5296 32.9264 31.5886C32.9023 31.6097 32.8772 31.6298 32.852 31.6504C32.7993 31.6944 32.7461 31.7373 32.6918 31.7797C32.6632 31.802 32.6345 31.8243 32.6054 31.846C32.5527 31.8855 32.4995 31.9244 32.4457 31.9628C32.4165 31.9834 32.3874 32.004 32.3576 32.0246C32.2987 32.0646 32.2397 32.1035 32.1796 32.1419C32.1545 32.1579 32.1299 32.1745 32.1047 32.1899C32.0189 32.2432 31.9324 32.2947 31.8449 32.3439C31.8386 32.3473 31.8317 32.3502 31.826 32.3536C31.7442 32.3988 31.6618 32.4423 31.5783 32.4841C31.5496 32.4984 31.5205 32.5121 31.4913 32.5258C31.4289 32.5562 31.3665 32.5853 31.3036 32.6134C31.2698 32.6283 31.2355 32.6426 31.2017 32.6574C31.1411 32.6826 31.0799 32.7072 31.0186 32.7312C30.9843 32.745 30.95 32.7581 30.9151 32.7707C30.8493 32.7953 30.7823 32.8182 30.7154 32.8405C30.6856 32.8503 30.6559 32.8611 30.6261 32.8703C30.5288 32.9012 30.431 32.9298 30.3326 32.9561C30.328 32.9573 30.324 32.9584 30.32 32.9596C30.2256 32.9842 30.13 33.0065 30.0339 33.0276C30.0013 33.0345 29.9686 33.0402 29.936 33.0465C29.8668 33.0603 29.7981 33.0734 29.7283 33.0849C29.6906 33.0912 29.6528 33.0969 29.615 33.102C29.5486 33.1118 29.4817 33.1203 29.4142 33.1284C29.3764 33.1329 29.3381 33.1369 29.2997 33.1409C29.2282 33.1478 29.1561 33.153 29.084 33.1575C29.0508 33.1598 29.0176 33.1627 28.9839 33.1644C28.8786 33.1696 28.7727 33.1724 28.6657 33.1724C28.5593 33.1724 28.4534 33.1696 28.3482 33.1644C28.3144 33.1627 28.2812 33.1598 28.2475 33.1575C28.1754 33.153 28.1038 33.1478 28.0323 33.1409C27.994 33.1369 27.9556 33.1329 27.9173 33.1284C27.8503 33.1203 27.7834 33.1118 27.717 33.102C27.6787 33.0963 27.6409 33.0912 27.6031 33.0849C27.5339 33.0734 27.4647 33.0603 27.396 33.0465C27.3634 33.0402 27.3302 33.0345 27.2976 33.0276C27.2015 33.007 27.1059 32.9842 27.0115 32.9596C27.0075 32.9584 27.0035 32.9573 26.9995 32.9561C26.9005 32.9298 26.8026 32.9012 26.7059 32.8703C26.6756 32.8611 26.6464 32.8503 26.6161 32.8405C26.5491 32.8182 26.4828 32.7953 26.4164 32.7707C26.3821 32.7581 26.3477 32.745 26.3134 32.7312C26.2516 32.7072 26.1909 32.6826 26.1303 32.6574C26.096 32.6426 26.0622 32.6283 26.0284 32.6134C25.9649 32.5853 25.9026 32.5562 25.8408 32.5258C25.8116 32.5121 25.7824 32.4984 25.7538 32.4841C25.6702 32.4423 25.5873 32.3988 25.506 32.3536C25.4997 32.3502 25.4934 32.3473 25.4871 32.3439C25.399 32.2947 25.3126 32.2432 25.2274 32.1899C25.2016 32.1745 25.177 32.1579 25.1518 32.1419C25.0923 32.1035 25.0328 32.0646 24.9744 32.0246C24.9447 32.004 24.9155 31.9834 24.8857 31.9628C24.832 31.9244 24.7787 31.8855 24.7261 31.846C24.6975 31.8243 24.6683 31.802 24.6397 31.7797C24.5859 31.7373 24.5321 31.6944 24.4795 31.6504C24.4549 31.6298 24.4297 31.6097 24.4051 31.5886C24.3364 31.5302 24.2689 31.4701 24.2025 31.4083C24.1957 31.402 24.1877 31.3951 24.1808 31.3889C24.107 31.3196 24.0355 31.2492 23.9651 31.1771C23.945 31.1565 23.9256 31.1354 23.9056 31.1148C23.8558 31.0627 23.8066 31.0101 23.7585 30.9563C23.7345 30.9294 23.711 30.9025 23.6876 30.8756C23.6441 30.8252 23.6017 30.7749 23.5594 30.7234C23.5359 30.6953 23.513 30.6667 23.4901 30.6381C23.4478 30.5843 23.406 30.53 23.3654 30.475C23.3454 30.4482 23.3253 30.4218 23.3059 30.3949C23.255 30.3246 23.2052 30.2525 23.1565 30.1798C23.1491 30.1683 23.1411 30.1569 23.1331 30.1455C23.0776 30.0608 23.0238 29.9744 22.9717 29.8874C22.9568 29.8628 22.9431 29.837 22.9288 29.8124C22.8922 29.7489 22.8561 29.6854 22.8218 29.6213C22.8041 29.5887 22.7875 29.5561 22.7703 29.5235C22.74 29.4645 22.7102 29.405 22.6816 29.3449C22.665 29.3106 22.6484 29.2763 22.6324 29.2414C22.6044 29.1801 22.5769 29.1172 22.55 29.0548C22.5363 29.0222 22.522 28.9902 22.5088 28.957C22.4773 28.8792 22.447 28.8002 22.4178 28.7207C22.4115 28.7035 22.4047 28.6863 22.3984 28.6686C22.364 28.5713 22.3314 28.4735 22.3011 28.3745C22.2925 28.3453 22.2845 28.3161 22.2759 28.2869C22.2605 28.2337 22.2456 28.1794 22.2313 28.125H35.1002C35.0859 28.1794 35.071 28.2331 35.0555 28.2869C35.047 28.3161 35.0395 28.3453 35.0304 28.3745ZM13.3524 12.7178C13.5807 12.3665 13.702 11.9568 13.702 11.5385V6.49052C13.702 5.29747 14.6725 4.32701 15.8655 4.32701H59.1345C60.3275 4.32701 61.298 5.29747 61.298 6.49052V11.5385C61.298 11.9568 61.4193 12.3665 61.6476 12.7178L68.8494 23.798H6.15005L13.3524 12.7178ZM4.56104 28.125H17.4322C17.4179 28.1794 17.403 28.2331 17.3876 28.2869C17.379 28.3161 17.371 28.3453 17.3624 28.3745C17.3321 28.4735 17.2995 28.5713 17.2651 28.6686C17.2588 28.6863 17.252 28.7029 17.2457 28.7207C17.2165 28.8002 17.1862 28.8792 17.1547 28.957C17.1415 28.9902 17.1272 29.0222 17.1135 29.0548C17.0866 29.1172 17.0591 29.1796 17.0305 29.2414C17.0145 29.2763 16.9985 29.3106 16.9819 29.3449C16.9533 29.405 16.9235 29.4645 16.8926 29.5235C16.876 29.5561 16.8589 29.5887 16.8417 29.6213C16.8074 29.686 16.7713 29.7489 16.7347 29.8124C16.7204 29.837 16.7067 29.8628 16.6918 29.8874C16.6397 29.9744 16.5859 30.0608 16.5304 30.1455C16.5224 30.1569 16.5144 30.1683 16.507 30.1798C16.4583 30.2525 16.4085 30.3246 16.3576 30.3949C16.3382 30.4218 16.3181 30.4482 16.2981 30.475C16.2575 30.53 16.2157 30.5843 16.1734 30.6381C16.1505 30.6667 16.1276 30.6953 16.1041 30.7234C16.0618 30.7749 16.0194 30.8252 15.976 30.8756C15.9525 30.9025 15.929 30.9294 15.905 30.9563C15.8569 31.0101 15.8077 31.0627 15.7579 31.1148C15.7379 31.1359 15.7185 31.1571 15.6984 31.1771C15.6281 31.2492 15.5565 31.3202 15.4827 31.3889C15.4753 31.3951 15.4678 31.402 15.461 31.4083C15.3946 31.4701 15.3271 31.5296 15.2584 31.5886C15.2338 31.6097 15.2086 31.6298 15.184 31.6504C15.1314 31.6944 15.0776 31.7373 15.0238 31.7797C14.9952 31.802 14.966 31.8243 14.9374 31.846C14.8842 31.8855 14.831 31.9244 14.7772 31.9628C14.748 31.9834 14.7188 32.004 14.6891 32.0246C14.6307 32.0646 14.5712 32.1035 14.5117 32.1419C14.4865 32.1579 14.4619 32.1745 14.4361 32.1899C14.3509 32.2432 14.2645 32.2947 14.1764 32.3439C14.1701 32.3473 14.1638 32.3502 14.1575 32.3536C14.0762 32.3988 13.9933 32.4423 13.9097 32.4841C13.8811 32.4984 13.8519 32.5121 13.8227 32.5258C13.7609 32.5562 13.6986 32.5853 13.6351 32.6134C13.6013 32.6283 13.5675 32.6426 13.5332 32.6574C13.4726 32.6826 13.4119 32.7072 13.3501 32.7312C13.3158 32.745 13.2814 32.7581 13.2471 32.7707C13.1807 32.7953 13.1138 32.8182 13.0468 32.8405C13.0171 32.8503 12.9879 32.8611 12.9576 32.8703C12.8609 32.9012 12.763 32.9298 12.664 32.9561C12.66 32.9573 12.656 32.9584 12.652 32.9596C12.557 32.9842 12.4615 33.0065 12.3653 33.0276C12.3333 33.0345 12.3001 33.0402 12.2675 33.0465C12.1988 33.0603 12.1296 33.0734 12.0604 33.0849C12.0226 33.0912 11.9848 33.0969 11.9465 33.102C11.8801 33.1118 11.8132 33.1203 11.7462 33.1284C11.7079 33.1329 11.6701 33.1369 11.6312 33.1409C11.5597 33.1478 11.4882 33.153 11.4161 33.1575C11.3823 33.1598 11.3491 33.1627 11.3153 33.1644C11.2101 33.1701 11.1042 33.173 10.9978 33.173C10.8633 33.173 10.7283 33.1678 10.5938 33.1593C10.5692 33.1575 10.5446 33.1564 10.5206 33.1547C10.2379 33.1335 9.95636 33.0952 9.6777 33.0374C9.67484 33.0368 9.6714 33.0362 9.66854 33.0357C9.52778 33.0059 9.38759 32.9716 9.24797 32.9327C6.97575 32.2975 5.18131 30.4579 4.56104 28.125ZM11.507 37.4868C11.5379 37.4857 11.5683 37.4846 11.5992 37.4828C11.7611 37.4737 11.9219 37.4611 12.0821 37.4451C12.113 37.4422 12.1439 37.4388 12.1754 37.4353C12.3396 37.417 12.5032 37.397 12.6657 37.3713C12.672 37.3707 12.6789 37.369 12.6852 37.3684C12.8437 37.3432 13.0011 37.314 13.1578 37.282C13.1859 37.2763 13.2145 37.2711 13.2431 37.2648C13.3976 37.2322 13.5504 37.1962 13.7026 37.1572C13.7335 37.1492 13.7638 37.1407 13.7947 37.1326C13.9498 37.0909 14.1037 37.0474 14.2559 36.9993C14.2673 36.9953 14.2788 36.9913 14.2902 36.9879C14.4361 36.941 14.5809 36.8906 14.724 36.838C14.7503 36.8282 14.7766 36.8196 14.8024 36.8093C14.9477 36.755 15.0908 36.6972 15.2332 36.6365C15.263 36.624 15.2927 36.6108 15.3231 36.5976C15.4667 36.5347 15.6092 36.47 15.7494 36.4014C15.7642 36.3939 15.7785 36.3865 15.7928 36.3791C15.9267 36.3132 16.0583 36.2446 16.1888 36.1731C16.2117 36.1605 16.2352 36.1479 16.258 36.1353C16.3925 36.0609 16.5247 35.9831 16.6557 35.903C16.6838 35.8858 16.7118 35.8681 16.7398 35.8503C16.8709 35.7685 17.0008 35.6844 17.1284 35.5974C17.1444 35.586 17.1604 35.5745 17.1764 35.5637C17.2966 35.4801 17.4156 35.3937 17.5323 35.3056C17.5524 35.2907 17.5724 35.2764 17.5919 35.2615C17.7137 35.1683 17.8333 35.0727 17.9512 34.9743C17.9764 34.9531 18.0016 34.9319 18.0267 34.9108C18.1446 34.8112 18.2602 34.7099 18.3735 34.6052C18.3901 34.5903 18.4055 34.5755 18.4216 34.5606C18.5286 34.4604 18.6344 34.3586 18.7374 34.2539C18.7529 34.2384 18.7689 34.2236 18.7838 34.2081C18.8919 34.0977 18.9978 33.9849 19.1013 33.8699C19.1231 33.8459 19.1442 33.8219 19.166 33.7973C19.2684 33.6823 19.3686 33.5649 19.4664 33.4454C19.4813 33.427 19.4956 33.4082 19.5105 33.3899C19.6037 33.2737 19.6953 33.1564 19.784 33.0362C19.7948 33.0219 19.8057 33.0076 19.8166 32.9933C19.8217 32.9865 19.8269 32.9796 19.832 32.9727C19.8372 32.9796 19.8423 32.9859 19.8475 32.9933C19.8584 33.0076 19.8692 33.0219 19.8801 33.0362C19.9688 33.1564 20.0603 33.2743 20.1536 33.3899C20.1685 33.4082 20.1828 33.427 20.1977 33.4454C20.2955 33.5649 20.3957 33.6823 20.4981 33.7973C20.5198 33.8219 20.541 33.8459 20.5627 33.8699C20.6663 33.9849 20.7722 34.0977 20.8803 34.2081C20.8952 34.2236 20.9112 34.2384 20.9267 34.2539C21.0297 34.3586 21.1349 34.4604 21.2425 34.5606C21.2585 34.5755 21.2746 34.5903 21.2906 34.6052C21.4039 34.7099 21.5195 34.8112 21.6373 34.9108C21.6619 34.9319 21.6871 34.9531 21.7129 34.9743C21.8307 35.0727 21.9503 35.1683 22.0722 35.2615C22.0917 35.2764 22.1117 35.2907 22.1317 35.3056C22.2485 35.3937 22.3669 35.4801 22.4876 35.5637C22.5037 35.5745 22.5197 35.586 22.5357 35.5974C22.6633 35.6844 22.7932 35.7685 22.9242 35.8503C22.9523 35.8681 22.9803 35.8858 23.0083 35.903C23.1394 35.9831 23.2716 36.0609 23.406 36.1353C23.4289 36.1479 23.4524 36.1605 23.4753 36.1731C23.6057 36.2446 23.7373 36.3132 23.8707 36.3791C23.8855 36.3865 23.8998 36.3939 23.9147 36.4014C24.0549 36.47 24.1974 36.5347 24.341 36.5976C24.3713 36.6108 24.4011 36.624 24.4308 36.6365C24.5728 36.6972 24.7164 36.755 24.8617 36.8093C24.8875 36.8196 24.9138 36.8288 24.9401 36.838C25.0832 36.8906 25.2279 36.941 25.3738 36.9879C25.3853 36.9913 25.3967 36.9953 25.4082 36.9993C25.5604 37.0474 25.7143 37.0909 25.8694 37.1326C25.8997 37.1407 25.9306 37.1492 25.9615 37.1572C26.1137 37.1962 26.2665 37.2322 26.421 37.2648C26.4496 37.2711 26.4776 37.2763 26.5062 37.282C26.663 37.314 26.8198 37.3432 26.9789 37.3684C26.9852 37.369 26.992 37.3707 26.9983 37.3713C27.1608 37.397 27.3245 37.417 27.4887 37.4353C27.5202 37.4382 27.5511 37.4422 27.582 37.4451C27.7422 37.4611 27.903 37.4737 28.0649 37.4828C28.0958 37.4846 28.1261 37.4857 28.157 37.4868C28.3258 37.4949 28.4958 37.5 28.6663 37.5C28.8374 37.5 29.0068 37.4949 29.1761 37.4868C29.2065 37.4857 29.2374 37.4846 29.2677 37.4828C29.4296 37.4737 29.5904 37.4611 29.7506 37.4451C29.7821 37.4422 29.813 37.4388 29.8439 37.4353C30.0087 37.417 30.1723 37.397 30.3349 37.3713C30.3411 37.3707 30.3474 37.369 30.3543 37.3684C30.5128 37.3432 30.6702 37.314 30.8264 37.282C30.855 37.2763 30.8836 37.2711 30.9116 37.2648C31.0661 37.2322 31.2195 37.1962 31.3711 37.1572C31.402 37.1492 31.4329 37.1407 31.4638 37.1326C31.6189 37.0909 31.7728 37.0474 31.925 36.9993C31.9365 36.9953 31.9473 36.9913 31.9588 36.9879C32.1053 36.941 32.2495 36.8906 32.3931 36.838C32.4188 36.8282 32.4451 36.8196 32.4715 36.8093C32.6162 36.755 32.7599 36.6972 32.9018 36.6365C32.9321 36.624 32.9618 36.6108 32.9916 36.5976C33.1352 36.5347 33.2777 36.47 33.4185 36.4014C33.4328 36.3939 33.4476 36.3865 33.462 36.3791C33.5953 36.3132 33.7269 36.2446 33.8573 36.1731C33.8808 36.1605 33.9043 36.1479 33.9272 36.1353C34.0611 36.0609 34.1932 35.9831 34.3243 35.903C34.3529 35.8858 34.3803 35.8681 34.409 35.8503C34.54 35.7685 34.6699 35.6844 34.7975 35.5974C34.8135 35.586 34.8295 35.5745 34.8455 35.5637C34.9657 35.4801 35.0842 35.3937 35.2015 35.3056C35.2209 35.2907 35.2409 35.2764 35.2604 35.2615C35.3823 35.1683 35.5019 35.0727 35.6203 34.9743C35.6455 34.9531 35.6707 34.9319 35.6958 34.9108C35.8131 34.8112 35.9293 34.7099 36.0426 34.6052C36.0586 34.5903 36.0741 34.5755 36.0901 34.5606C36.1977 34.4604 36.3029 34.3586 36.4065 34.2539C36.422 34.2384 36.4374 34.2236 36.4529 34.2081C36.561 34.0977 36.6663 33.9849 36.7699 33.8699C36.7916 33.8459 36.8134 33.8219 36.8345 33.7973C36.937 33.6823 37.0377 33.5649 37.1355 33.4454C37.1498 33.427 37.1647 33.4082 37.179 33.3899C37.2723 33.2737 37.3638 33.1564 37.4525 33.0362C37.4634 33.0219 37.4748 33.0076 37.4851 32.9933C37.4903 32.9865 37.496 32.9796 37.5011 32.9727C37.5057 32.9796 37.5114 32.9859 37.5166 32.9933C37.5269 33.0076 37.5383 33.0219 37.5492 33.0362C37.6379 33.1564 37.7289 33.2743 37.8227 33.3899C37.837 33.4082 37.8519 33.427 37.8662 33.4454C37.9641 33.5649 38.0648 33.6823 38.1672 33.7973C38.1884 33.8219 38.2101 33.8459 38.2318 33.8699C38.3354 33.9849 38.4407 34.0977 38.5489 34.2081C38.5643 34.2236 38.5798 34.2384 38.5952 34.2539C38.6988 34.3586 38.8041 34.4604 38.9116 34.5606C38.9277 34.5755 38.9431 34.5903 38.9591 34.6052C39.0724 34.7099 39.1886 34.8112 39.3059 34.9108L39.3814 34.9743C39.4993 35.0727 39.6194 35.1683 39.7413 35.2615C39.7608 35.2764 39.7808 35.2907 39.8003 35.3056C39.9176 35.3937 40.036 35.4801 40.1562 35.5637C40.1728 35.5745 40.1882 35.586 40.2042 35.5974C40.3318 35.6844 40.4617 35.7685 40.5928 35.8503C40.6214 35.8681 40.6494 35.8858 40.6775 35.903C40.8079 35.9831 40.9401 36.0609 41.0746 36.1353C41.0975 36.1479 41.1209 36.1605 41.1444 36.1731C41.2748 36.2446 41.4064 36.3132 41.5398 36.3791C41.5541 36.3865 41.5689 36.3939 41.5833 36.4014C41.724 36.47 41.8665 36.5347 42.0101 36.5976C42.0399 36.6108 42.0696 36.624 42.1 36.6365C42.2419 36.6972 42.3855 36.755 42.5303 36.8093C42.5566 36.8196 42.5829 36.8288 42.6086 36.838C42.7523 36.8906 42.8965 36.941 43.0429 36.9879C43.0544 36.9913 43.0658 36.9953 43.0767 36.9993C43.2289 37.0474 43.3828 37.0909 43.5379 37.1326C43.5688 37.1407 43.5991 37.1492 43.6306 37.1572C43.7822 37.1962 43.9356 37.2322 44.0901 37.2648C44.1181 37.2711 44.1467 37.2763 44.1753 37.282C44.3316 37.314 44.4889 37.3432 44.6474 37.3684C44.6543 37.369 44.6606 37.3707 44.6669 37.3713C44.8294 37.397 44.993 37.417 45.1578 37.4353C45.1887 37.4382 45.2196 37.4422 45.2511 37.4451C45.4113 37.4611 45.5721 37.4737 45.734 37.4828C45.7644 37.4846 45.7952 37.4857 45.8256 37.4868C45.9949 37.4949 46.1643 37.5 46.3354 37.5C46.5059 37.5 46.6759 37.4949 46.8447 37.4868C46.8756 37.4857 46.9059 37.4846 46.9368 37.4828C47.0987 37.4737 47.2595 37.4611 47.4197 37.4451C47.4506 37.4422 47.4815 37.4388 47.513 37.4353C47.6772 37.417 47.8415 37.397 48.0034 37.3713C48.0097 37.3707 48.0165 37.369 48.0228 37.3684C48.1813 37.3432 48.3387 37.314 48.4955 37.282C48.5241 37.2763 48.5521 37.2711 48.5807 37.2648C48.7352 37.2322 48.8886 37.1962 49.0402 37.1572C49.0711 37.1492 49.102 37.1407 49.1329 37.1326C49.2874 37.0909 49.4413 37.0474 49.5935 36.9993C49.605 36.9953 49.6164 36.9913 49.6279 36.9879C49.7738 36.941 49.9186 36.8906 50.0616 36.838C50.0879 36.8282 50.1143 36.8196 50.14 36.8093C50.2853 36.755 50.429 36.6972 50.5709 36.6365C50.6006 36.624 50.6304 36.6108 50.6607 36.5976C50.8043 36.5347 50.9468 36.47 51.087 36.4014C51.1019 36.3939 51.1162 36.3865 51.1311 36.3791C51.2644 36.3132 51.396 36.2446 51.5265 36.1731C51.5493 36.1605 51.5728 36.1479 51.5957 36.1353C51.7302 36.0609 51.8623 35.9831 51.9934 35.903C52.0214 35.8858 52.0494 35.8681 52.0775 35.8503C52.2085 35.7685 52.3384 35.6844 52.466 35.5974C52.482 35.586 52.4981 35.5745 52.5141 35.5637C52.6348 35.4801 52.7533 35.3937 52.87 35.3056C52.89 35.2907 52.91 35.2764 52.9295 35.2615C53.0514 35.1683 53.171 35.0727 53.2888 34.9743C53.3146 34.9531 53.3392 34.9319 53.3649 34.9108C53.4822 34.8112 53.5978 34.7099 53.7111 34.6052C53.7277 34.5903 53.7432 34.5755 53.7592 34.5606C53.8662 34.4604 53.9721 34.3586 54.0751 34.2539C54.0905 34.2384 54.1065 34.2236 54.1214 34.2081C54.2295 34.0977 54.3354 33.9849 54.439 33.8699C54.4607 33.8459 54.4819 33.8219 54.5036 33.7973C54.6061 33.6823 54.7062 33.5649 54.804 33.4454C54.8189 33.427 54.8332 33.4082 54.8481 33.3899C54.9414 33.2737 55.0329 33.1564 55.1216 33.0362C55.1325 33.0219 55.1434 33.0076 55.1542 32.9933C55.1594 32.9865 55.1645 32.9796 55.1697 32.9727C55.1748 32.9796 55.18 32.9859 55.1851 32.9933C55.196 33.0076 55.2069 33.0219 55.2177 33.0362C55.307 33.1564 55.398 33.2743 55.4913 33.3899C55.5061 33.4082 55.5204 33.427 55.5353 33.4454C55.6332 33.5649 55.7333 33.6823 55.8357 33.7973C55.8575 33.8219 55.8786 33.8459 55.901 33.8699C56.004 33.9849 56.1098 34.0977 56.218 34.2081C56.2334 34.2236 56.2489 34.2384 56.2643 34.2539C56.3673 34.3586 56.4726 34.4604 56.5802 34.5606C56.5962 34.5755 56.6122 34.5903 56.6282 34.6052C56.7415 34.7099 56.8571 34.8112 56.975 34.9108C56.9996 34.9319 57.0253 34.9531 57.0505 34.9743C57.1684 35.0727 57.288 35.1683 57.4099 35.2615C57.4293 35.2764 57.4493 35.2907 57.4694 35.3056C57.5861 35.3937 57.7051 35.4801 57.8253 35.5637C57.8413 35.5745 57.8573 35.586 57.8733 35.5974C58.0009 35.6844 58.1308 35.7685 58.2619 35.8503C58.2899 35.8681 58.3179 35.8858 58.346 35.903C58.477 35.9831 58.6092 36.0609 58.7437 36.1353C58.7666 36.1479 58.79 36.1605 58.8129 36.1731C58.9434 36.2446 59.075 36.3132 59.2089 36.3791C59.2232 36.3865 59.2375 36.3939 59.2524 36.4014C59.3925 36.47 59.535 36.5347 59.6792 36.5976C59.709 36.6108 59.7387 36.624 59.7685 36.6365C59.911 36.6972 60.054 36.755 60.1994 36.8093C60.2251 36.8196 60.2514 36.8288 60.2777 36.838C60.4208 36.8906 60.5656 36.941 60.7115 36.9879C60.7229 36.9913 60.7344 36.9953 60.7458 36.9993C60.898 37.0474 61.0519 37.0909 61.207 37.1326C61.2379 37.1407 61.2682 37.1492 61.2991 37.1572C61.4513 37.1962 61.6047 37.2322 61.7586 37.2648C61.7872 37.2711 61.8158 37.2763 61.8439 37.282C62.0007 37.314 62.1574 37.3432 62.3165 37.3684C62.3228 37.369 62.3297 37.3707 62.336 37.3713C62.4985 37.397 62.6621 37.417 62.8269 37.4353C62.8578 37.4382 62.8887 37.4422 62.9196 37.4451C63.0798 37.4611 63.2406 37.4737 63.4026 37.4828C63.4335 37.4846 63.4638 37.4857 63.4947 37.4868C63.6635 37.4949 63.8334 37.5 64.0039 37.5C64.064 37.5 64.1241 37.4994 64.1842 37.4983V61.298H35.3365V47.596C35.3365 44.0174 32.4251 41.106 28.846 41.106H23.077C19.4979 41.106 16.5865 44.0174 16.5865 47.596V61.298H10.8175V37.4983C10.8776 37.4994 10.9377 37.5 10.9978 37.5C11.1683 37.5 11.3382 37.4949 11.507 37.4868ZM31.0095 61.298H20.9135V47.596C20.9135 46.4035 21.884 45.4325 23.077 45.4325H28.846C30.039 45.4325 31.0095 46.4035 31.0095 47.596V61.298ZM68.149 70.673H6.85101C5.4594 70.673 4.32701 69.5406 4.32701 68.149C4.32701 66.7574 5.4594 65.625 6.85101 65.625H68.149C69.5406 65.625 70.673 66.7574 70.673 68.149C70.673 69.5406 69.5406 70.673 68.149 70.673Z" fill="white"/>
<path d="M46.154 54.0865H51.923C55.5021 54.0865 58.4135 51.1751 58.4135 47.596C58.4135 44.0174 55.5021 41.106 51.923 41.106H46.154C42.5749 41.106 39.6635 44.0174 39.6635 47.596C39.6635 51.1751 42.5749 54.0865 46.154 54.0865ZM46.154 45.4325H51.923C53.116 45.4325 54.0865 46.4035 54.0865 47.596C54.0865 48.789 53.116 49.7595 51.923 49.7595H46.154C44.961 49.7595 43.9905 48.789 43.9905 47.596C43.9905 46.4035 44.961 45.4325 46.154 45.4325Z" fill="white"/>
<path d="M58.4135 11.5385C58.4135 10.3437 57.4448 9.375 56.25 9.375H18.75C17.5552 9.375 16.5865 10.3437 16.5865 11.5385C16.5865 12.7333 17.5552 13.702 18.75 13.702H56.25C57.4448 13.702 58.4135 12.7333 58.4135 11.5385Z" fill="white"/>
</svg>
