<svg width="358" height="291" viewBox="0 0 358 291" fill="none" xmlns="http://www.w3.org/2000/svg">
<path d="M34.5726 138.193C43.4066 140.917 50.6225 148.548 57.944 153.985C66.2197 160.157 74.658 166.077 83.0963 171.997C99.4688 183.511 116.112 194.606 133.274 205.082C168.466 226.715 204.743 246.667 240.206 267.88C242.866 269.476 245.414 265.527 242.809 263.846C206.987 240.975 169.081 221.519 132.826 199.319C115.077 188.463 97.7907 177.074 80.5834 165.378C72.0909 159.542 63.5984 153.706 55.1601 147.786C48.8523 143.36 42.9132 137.624 35.0442 136.356C33.8787 136.318 33.5697 137.903 34.5726 138.193Z" fill="#D9F6FF"/>
<path d="M287.04 224.43C279.141 226.713 271.055 225.78 262.967 226.513C253.797 227.261 244.751 228.923 235.576 229.31C233.136 229.403 232.944 233.206 235.384 233.113C244.619 233.002 253.52 231.01 262.601 229.847C270.99 228.833 279.54 229.231 287.422 225.867C288.39 225.658 287.924 224.167 287.04 224.43Z" fill="#D9F6FF"/>
<path d="M284.641 210.625C263.433 213.247 241.856 217.177 220.629 213.003C218.431 212.537 217.26 215.828 219.572 216.487C240.965 222.433 263.986 216.817 285.058 212.56C286.303 212.292 285.831 210.441 284.641 210.625Z" fill="#D9F6FF"/>
<path d="M270.464 197.552C243.699 203.253 216.333 202.139 189.164 201.272C186.695 201.226 186.611 204.861 188.972 205.076C216.078 207.33 244.504 206.985 270.887 199.848C272.294 199.327 271.846 197.254 270.464 197.552Z" fill="#D9F6FF"/>
<path d="M226.958 189.358C207.645 190.703 188.145 188.833 169.146 185.264C166.725 184.773 165.56 188.424 167.98 188.915C187.483 192.81 207.339 194.314 227.229 192.627C229.086 192.516 228.815 189.247 226.958 189.358Z" fill="#D9F6FF"/>
<path d="M133.446 150.213C138.632 172.243 162.86 185.969 180.338 197.245C208.404 215.351 236.633 233.206 264.754 251.228C266.686 252.475 268.53 249.618 266.705 248.203C252.626 237.93 237.625 229.085 222.787 219.989C210.356 212.326 198.25 204.159 185.927 196.328C176.378 190.287 166.72 184.413 157.766 177.447C148.393 170.209 138.746 161.367 135.213 149.687C134.866 148.75 133.207 149.107 133.446 150.213Z" fill="#D9F6FF"/>
<path d="M280.253 256.348C275.041 265.719 260.723 261.718 253.038 257.951C250.439 256.631 248.636 260.347 251.29 261.583C260.338 265.635 277.312 269.207 281.706 257.047C282.026 256.183 280.711 255.454 280.253 256.348Z" fill="#D9F6FF"/>
<path d="M169.831 136.795C158.652 160.763 192.79 173.147 210.754 174.263C213.337 174.502 213.47 170.422 210.971 170.238C194.563 169.292 162.848 159.424 171.752 137.321C172.289 136.12 170.367 135.594 169.831 136.795Z" fill="#D9F6FF"/>
<path d="M91.2477 50.159C77.2884 77.3306 58.3171 101.388 43.1814 127.801C41.7476 130.208 45.3609 132.539 46.7948 130.132C62.4346 104.044 80.3678 79.1982 93.6846 51.7311C94.5466 50.0261 92.1097 48.454 91.2477 50.159Z" fill="#D9F6FF"/>
<path d="M46.4761 48.1704C59.5793 48.8885 72.5198 46.1694 85.5119 45.0307C87.4228 44.8355 87.1517 41.5665 85.2109 41.6235C72.2622 41.9571 59.609 45.3375 46.5655 44.8959C44.5406 44.8986 44.3672 48.1189 46.4761 48.1704Z" fill="#D9F6FF"/>
<path d="M37.4934 70.5793C49.778 68.5082 62.003 66.1605 73.9351 62.7909C75.8407 62.2352 75.2686 59.2482 73.279 59.7497C61.2872 62.8427 49.1816 65.7433 37.1058 68.7821C35.8616 69.0505 36.3035 70.7636 37.4934 70.5793Z" fill="#D9F6FF"/>
<path d="M24.5181 94.9346C33.3521 93.9694 42.0857 91.8685 50.7353 89.7134C52.3102 89.3014 51.8575 86.8672 50.1986 87.225C41.4297 88.8272 32.6065 90.5134 24.1603 93.2757C23.0543 93.5143 23.3824 95.0349 24.5181 94.9346Z" fill="#D9F6FF"/>
<path d="M14.4949 132.976C25.8063 130.753 37.3346 128.194 48.9903 128.573C51.1832 128.679 51.2727 125.404 49.134 125.215C37.0228 124.065 25.4457 127.069 13.9527 130.127C12.1013 130.599 12.6977 133.363 14.4949 132.976Z" fill="#D9F6FF"/>
<path d="M16.6286 154.94C36.5165 154.918 56.334 153.898 76.2138 155.18C79.0735 155.359 79.3092 150.751 76.3953 150.656C56.4911 149.597 36.5706 151.145 16.7885 152.663C15.3762 152.823 15.1865 154.962 16.6286 154.94Z" fill="#D9F6FF"/>
<path d="M49.4466 173.613C59.278 172.577 69.2043 172.317 78.9111 170.368C81.4835 169.885 80.6187 165.876 78.0463 166.359C68.3396 168.308 58.4729 168.845 48.6712 170.019C46.2913 170.387 47.1209 173.898 49.4466 173.613Z" fill="#D9F6FF"/>
<path d="M1.45791 50.0686C4.32065 67.029 1.19834 84.4123 0.624007 101.535C0.00631493 119.464 0.470139 137.375 2.92901 155.146C3.27331 157.749 7.36638 156.938 6.93805 154.282C4.18642 135.489 3.62228 116.441 4.08545 97.4612C4.42941 81.6176 6.73857 65.4947 3.06266 49.7947C2.82411 48.6888 1.30338 49.0169 1.45791 50.0686Z" fill="#D9F6FF"/>
<path d="M22.4948 176.099C60.6145 182.127 99.1787 180.825 137.629 183.02C139.906 183.18 140.02 179.683 137.743 179.523C99.3711 177.022 60.7636 179.129 22.5273 174.573C21.5542 174.421 21.5216 175.947 22.4948 176.099Z" fill="#D9F6FF"/>
<path d="M284.994 114.341C274.731 103.317 259.866 96.1067 247.207 88.059C232.616 78.7645 218.054 69.6083 203.354 60.4818C201.506 59.2892 199.662 62.1463 201.511 63.3389C215.485 72.1157 229.512 80.8084 243.594 89.4171C250.341 93.5317 256.95 97.6762 263.751 101.707C270.774 105.762 277.851 109.733 283.899 115.3C284.631 116.01 285.726 115.051 284.994 114.341Z" fill="#D9F6FF"/>
<path d="M106.161 1.58699C101.065 16.8642 89.6345 29.6016 81.099 43.0167C72.8887 55.9276 64.5157 69.0907 55.2971 81.351C49.2335 89.4587 42.8338 97.3495 37.3883 105.975C34.3525 110.681 26.416 121.507 31.6286 126.893C33.2903 128.56 36.3073 128.126 37.0201 125.73C41.9315 109.263 53.9746 96.6824 63.6106 82.6682C72.7588 69.4104 81.1751 55.4423 89.2308 41.4797C96.3948 29.0838 105.554 16.5469 108.419 2.32958C108.673 0.827879 106.638 0.109686 106.161 1.58699Z" fill="#D9F6FF"/>
<path d="M105.838 4.116C124.379 19.6476 146.17 31.8017 166.422 44.8666C187.177 58.2567 208.017 71.7011 228.772 85.0912C269.947 111.655 310.827 138.861 352.52 164.806C355.935 166.89 359.188 161.849 355.881 159.596C315.194 132.276 273.555 106.247 232.242 79.7132C211.822 66.5399 191.319 53.3124 170.899 40.1391C150.312 26.8574 129.974 11.7135 107.79 1.09092C105.64 0.180184 104.068 2.61705 105.838 4.116Z" fill="#D9F6FF"/>
<path d="M32.5341 128.072C39.6469 136.231 50.2483 142.118 59.3236 147.973C69.2393 154.37 79.1548 160.767 89.0163 167.248C108.793 180.126 128.516 193.087 148.293 205.965C168.07 218.843 187.956 231.553 207.733 244.431C227.48 257.17 246.804 271.303 267.497 282.392C271.105 284.363 274.195 279.573 270.967 277.014C252.334 262.732 231.407 250.898 211.744 238.213C191.913 225.419 172.082 212.625 152.196 199.915C132.311 187.205 112.425 174.496 92.4858 161.87C82.5159 155.557 72.6003 149.16 62.6847 142.763C53.6094 136.908 43.8754 129.676 33.5099 126.559C32.6154 126.101 31.8564 127.278 32.5341 128.072Z" fill="#D9F6FF"/>
<path d="M352.132 166.698C352.433 166.416 352.734 166.134 353.035 165.852C352.766 164.608 352.528 163.502 352.26 162.258C343.057 168.222 338.257 179.167 333.267 188.562C327.089 200.167 319.622 210.82 312.268 221.665C304.914 232.51 298.035 243.543 291.437 254.876C288.383 260.164 284.992 265.236 280.958 270.012C277.009 274.843 272.862 279.427 270.341 285.179C268.707 289.003 274.103 291.89 276.895 289.407C277.744 288.645 278.316 287.943 278.966 286.935C281.297 283.322 276.581 279.565 273.374 282.137C273.043 282.281 272.659 282.509 272.328 282.652C274.049 284.596 275.854 286.593 277.576 288.537C283.745 278.236 292.188 269.76 298.274 259.405C304.654 248.408 311.233 237.658 318.172 226.902C324.815 216.788 331.345 206.482 336.842 195.748C342.339 185.014 347.763 174.947 354.574 164.941C355.713 163.177 353.211 160.968 351.736 162.515C351.435 162.797 351.273 163.049 350.972 163.331C350.671 163.613 350.43 164.172 350.519 164.586C350.5 165.169 350.536 165.668 350.517 166.251C350.503 167.194 351.758 167.647 352.132 166.698Z" fill="#D9F6FF"/>
<path d="M23.2349 33.6526C34.1208 34.4872 44.8929 35.1295 55.6216 36.5767C66.4045 37.94 77.2959 39.1352 88.1953 39.0266C92.2992 38.9371 92.5918 32.5806 88.4879 32.6701C66.9709 33.1883 44.1852 26.8187 23.0451 32.1021C22.2156 32.281 22.3458 33.555 23.2349 33.6526Z" fill="#D9F6FF"/>
<path d="M160.526 34.6367C182.07 39.6103 204.387 42.4642 226.27 45.9903C248.82 49.5896 271.388 52.6062 294.223 54.842C298.362 55.2512 298.571 48.8406 294.515 48.4856C272.264 46.2687 249.953 43.7753 227.696 41.1979C205.438 38.6205 183.298 34.5712 160.938 32.5224C159.742 32.3462 159.301 34.3223 160.526 34.6367Z" fill="#D9F6FF"/>
<path d="M293.431 53.8554C295.277 56.7124 294.253 62.3586 294.163 65.633C293.998 71.2386 293.749 76.7901 293.085 82.4309C292.646 86.4318 292.068 90.4626 291.797 94.5719C291.527 98.6812 291.616 102.785 291.345 106.894C291.05 111.226 289.475 115.327 289.901 119.648C290.101 121.919 293.668 123.031 295.113 121.345C300.952 114.877 298.832 103.037 298.959 94.9078C299.076 89.7467 299.552 84.5803 299.891 79.4436C300.249 73.7242 303.398 54.4542 294.442 52.8416C293.884 52.6003 293.06 53.1398 293.431 53.8554Z" fill="#D9F6FF"/>
<path d="M18.3123 30.9528C12.9049 45.7909 13.0353 61.8216 11.8564 77.4837C10.8185 91.4516 10.6941 105.295 10.407 119.39C10.2364 128.324 9.26072 137.215 9.17414 146.204C9.14171 151.419 8.06036 162.503 14.3897 164.682C17.7347 165.769 20.9683 161.31 18.2929 158.632C15.6175 155.954 16.8208 143.759 16.9237 139.541C17.0076 132.217 17.7285 124.828 17.3976 117.593C16.8309 103.899 17.3511 90.5488 18.3104 76.8872C19.3321 61.8378 19.5188 46.6067 20.0959 31.5085C20.2423 30.1748 18.7406 29.9201 18.3123 30.9528Z" fill="#D9F6FF"/>
<path d="M13.5278 162.698C18.4802 165.536 24.7038 166.219 30.2661 167.189C37.33 168.414 44.4726 169.333 51.6449 170.39C67.1552 172.542 82.5869 175 97.9942 177.681C101.748 178.318 102.87 171.782 99.1162 171.145C84.1237 168.375 68.8655 166.386 53.6913 164.451C46.4647 163.478 39.2924 162.421 31.9872 161.754C26.0699 161.15 19.5888 159.944 13.7284 161.28C13.0914 161.345 12.9396 162.318 13.5278 162.698Z" fill="#D9F6FF"/>
<path d="M217.475 112.195C205.681 97.0889 180.862 95.7151 165.428 105.989C149.5 116.658 143.274 136.085 150.781 153.78C158.059 171.09 176.535 182.296 194.501 185.437C213.608 188.838 231.268 180.833 239.234 162.767C248.919 140.93 236.355 122.59 221.557 106.974C218.738 103.966 213.948 108.254 216.822 111.179C226.857 121.818 238.174 134.712 235.721 150.504C233.171 167.185 219.704 179.205 202.725 178.961C173.122 178.547 138.474 147.031 161.113 117.842C173.329 102.042 202.311 96.2243 216.296 113.1C217.003 114.033 218.069 112.935 217.475 112.195Z" fill="#D9F6FF"/>
<path d="M205.544 58.5627C207.548 57.1179 214.669 60.2837 216.62 60.9478C221.803 62.5063 226.932 64.1489 232.06 65.7914C241.092 68.7621 250.286 71.4807 259.318 74.4514C258.882 73.0988 258.307 71.776 257.871 70.4234C253.669 78.7804 263.119 83.6864 269.971 85.6081C269.234 84.5374 268.581 83.5209 267.789 82.5343C266.648 89.6524 266.732 97.0851 267.977 104.195C268.554 107.543 274.263 107.179 274.016 103.688C273.577 96.6214 272.921 89.8909 274.007 82.8568C274.238 81.5773 273.051 80.0973 271.825 79.7829C268.762 78.9969 261.411 77.1105 262.65 72.7925C263.205 71.0089 261.88 69.5586 260.24 69.3336C255.819 68.6235 251.382 66.8319 247.063 65.5932C240.601 63.8043 234.139 62.0155 227.623 60.3106C222.415 58.9744 217.154 57.7221 211.82 57.1367C209.957 56.8873 206.257 56.1664 204.699 57.66C204.097 58.2238 204.913 58.9883 205.544 58.5627Z" fill="#D9F6FF"/>
<path d="M43.3129 53.6269C50.9597 54.8709 58.7012 56.8902 66.4211 57.4675C68.2535 57.5786 68.9014 54.5453 67.0093 54.1577C59.2731 52.4989 51.2388 53.1469 43.3997 52.0167C42.3425 51.8107 42.3398 53.4751 43.3129 53.6269Z" fill="#D9F6FF"/>
<path d="M44.7957 54.4644C48.5689 54.5185 43.8742 63.2712 42.9228 64.5615C40.3992 68.2887 37.2847 69.6115 33.0941 67.622C30.6924 66.5486 28.8195 69.2674 29.0445 71.3166C30.2292 81.8393 29.4378 91.9202 26.9578 102.221C25.936 106.203 32.0675 108.135 33.0053 104.099C35.8838 92.6275 36.7185 81.7416 35.2654 69.9747C33.8694 71.2162 32.5575 72.512 31.2157 73.6695C43.1941 78.8981 52.0685 64.0354 48.8047 53.5996C48.6013 52.9924 48.0972 52.6671 47.4602 52.7322C46.6009 52.7729 45.6874 52.8975 44.8281 52.9382C43.9147 53.0629 43.8524 54.4508 44.7957 54.4644Z" fill="#D9F6FF"/>
<path d="M104.868 42.8807C107.739 58.5373 131.62 60.2582 135.485 44.306C136.507 40.3241 130.375 38.3915 129.438 42.4276C126.589 54.0373 112.868 49.1124 108.097 41.7504C107.048 40.2406 104.505 40.8613 104.868 42.8807Z" fill="#D9F6FF"/>
<path d="M104.429 43.1925C102.182 46.86 100.632 50.739 98.1626 54.3821C94.9045 59.0635 92.091 63.7936 89.5891 68.9628C85.9299 76.4795 82.3249 83.9121 77.6031 90.8623C72.8271 97.8965 67.1809 104.25 61.7029 110.712C59.1143 113.803 63.1803 118.568 65.9912 115.502C78.4083 101.973 88.2016 87.3463 95.8832 70.6433C98.4338 65.0295 101.627 59.7112 104.232 54.0134C105.468 51.3596 108.547 45.8489 105.871 43.1708C105.476 42.6775 104.755 42.6883 104.429 43.1925Z" fill="#D9F6FF"/>
<path d="M66.6688 112.607C67.707 113.396 69.6776 113.477 70.9625 114.068C73.1961 115.033 75.2128 116.334 77.2296 117.635C78.9102 118.719 81.0651 119.991 82.1738 121.777C83.8517 124.525 83.8681 129.296 80.3877 130.264C77.0455 131.202 77.1268 136.61 80.9543 136.58C91.7697 136.417 91.8183 121.216 84.9955 115.743C82.8893 114.027 67.4439 105.134 66.1727 110.978C65.9613 111.675 66.2188 112.198 66.6688 112.607Z" fill="#D9F6FF"/>
<path d="M85.0447 137.433C95.4971 146.319 107.532 153.488 118.99 160.999C130.478 168.648 141.99 176.075 153.532 183.64C164.738 190.989 175.998 198.253 187.12 205.547C198.83 213.221 210.503 222.06 222.996 228.335C226.154 229.896 228.702 225.947 225.978 223.713C215.447 215.134 202.918 208.36 191.436 201.072C179.785 193.675 168.273 186.248 156.622 178.851C145.308 171.67 134.048 164.406 122.818 157.28C110.861 149.804 99.0859 141.494 86.2916 135.501C84.9769 134.772 83.8927 136.452 85.0447 137.433Z" fill="#D9F6FF"/>
<path d="M221.079 224.48C225.441 235.982 242.995 241.237 253.269 245.604C255.502 246.569 257.988 244.007 257.372 241.825C255.163 233.259 272.443 233.221 272.671 240.984C272.815 245.004 278.282 245.199 278.89 241.307C281.193 224.823 246.074 224.659 251.013 243.197C252.409 241.955 253.805 240.714 255.117 239.418C243.757 234.707 233.773 229.338 223.926 221.913C222.24 220.469 220.361 222.827 221.079 224.48Z" fill="#D9F6FF"/>
<path d="M312.701 180.412C311.733 184.31 308.039 187.638 305.558 190.561C301.989 194.803 299.037 199.563 296.001 204.268C289.225 214.772 284.381 226.523 277.353 236.864C275.046 240.255 280.424 243.725 282.73 240.334C286.718 234.338 289.42 227.751 292.849 221.514C296.386 215.108 300.398 208.89 304.187 202.647C306.976 198.139 310.096 193.488 312.717 188.872C314.23 186.158 315.352 183.312 314.143 180.39C313.91 179.645 312.858 179.799 312.701 180.412Z" fill="#D9F6FF"/>
<path d="M311.185 151.587C302.766 152.463 300.248 163.929 301.541 170.594C303.222 179.057 309.773 184.95 318.553 184.068C322.652 183.618 321.31 177.398 317.211 177.848C311.478 178.433 308.133 173.657 307.306 168.482C306.355 162.394 308.542 158.45 312.359 154.01C313.34 152.858 312.597 151.427 311.185 151.587Z" fill="#D9F6FF"/>
<path d="M135.74 46.4935C162.649 66.9474 192.23 84.3654 220.633 102.689C234.75 111.796 248.867 120.904 262.9 129.957C277.269 139.227 291.349 149.5 306.284 157.708C309.724 159.57 312.706 154.948 309.537 152.666C295.902 142.442 280.739 133.849 266.37 124.579C252.252 115.472 238.135 106.364 224.102 97.3109C195.7 78.9875 167.636 59.2166 137.908 43.1323C135.645 42.0291 133.748 44.9702 135.74 46.4935Z" fill="#D9F6FF"/>
</svg>
