<svg width="75" height="53" viewBox="0 0 75 53" fill="none" xmlns="http://www.w3.org/2000/svg">
<rect x="22" y="7" width="30" height="38" fill="white"/>
<path d="M74.3596 12.4226C73.9423 7.45946 70.9656 1.20068 64.8481 0.97692C47.7659 -0.164892 27.5288 -0.477069 10.1372 0.97692C4.74153 1.5781 1.04294 8.11182 0.639834 13.075C-0.213278 23.5 -0.213278 29.4326 0.639834 39.8576C1.04766 44.8208 4.65259 51.3919 10.1466 52.0815C27.7444 53.2233 47.8831 53.3863 64.8575 52.0815C70.1828 51.1634 73.9565 44.8208 74.3643 39.8576C75.2127 29.4279 75.2127 22.8476 74.3596 12.4226ZM28.1194 39.6899V12.9631L51.5581 26.3288L28.1194 39.6899Z" fill="#53AFE6"/>
</svg>
