<svg width="516" height="348" viewBox="0 0 516 348" fill="none" xmlns="http://www.w3.org/2000/svg">
<path d="M101.05 347.753C124.56 337.819 144.02 320.043 164.827 305.618C187.649 289.803 211.266 275.202 235.162 261.167C282.108 233.412 329.811 206.789 378.148 181.461C391.521 174.496 404.815 167.168 418.387 160.608C429.22 155.391 441.768 152.041 450.413 143.385C452.352 141.43 449.719 138.509 447.58 140.261C438.383 147.383 427.398 151.069 416.968 156.088C405.33 161.7 394.009 167.958 382.569 173.974C358.401 186.639 334.311 199.465 310.46 212.776C264.047 238.766 217.468 265.438 173.521 295.433C149.047 312.159 126.719 332.647 100.335 346.499C99.4895 346.813 100.164 348.188 101.05 347.753Z" fill="#D9F6FF"/>
<path d="M287.874 229.478C296.009 225.486 301.434 218.008 307.975 211.989C316.374 204.257 325.33 197.253 333.768 189.601C335.343 188.126 333.19 185.572 331.495 187.005C323.501 194.138 315.349 200.948 307.556 208.284C300.731 214.743 295.341 223.106 287.28 228.065C286.313 228.539 286.988 229.913 287.874 229.478Z" fill="#D9F6FF"/>
<path d="M325.141 208.68C337.289 198.405 349.117 187.885 361.505 177.893C362.876 176.819 361.08 174.992 359.71 175.866C346.566 184.724 334.374 195.723 323.982 207.744C323.497 208.384 324.496 209.197 325.141 208.68Z" fill="#D9F6FF"/>
<path d="M356.412 190.122C369.927 179.577 383.601 169.356 397.355 159.094C398.968 157.901 397.138 154.988 395.365 156.059C380.654 165.185 367.536 176.538 354.378 187.811C352.724 189.124 354.839 191.396 356.412 190.122Z" fill="#D9F6FF"/>
<path d="M393.783 172.182C405.472 164.84 415.687 155.513 427.057 147.726C428.468 146.733 426.837 144.223 425.305 145.176C413.696 152.679 403.521 162.086 392.827 170.845C392.101 171.402 392.937 172.697 393.783 172.182Z" fill="#D9F6FF"/>
<path d="M435.482 149.008C443.545 143.646 449.973 136.379 457.518 130.369C459.091 129.095 457.016 126.904 455.483 128.057C447.78 133.744 441.713 141.135 434.328 147.267C433.4 148.024 434.514 149.683 435.482 149.008Z" fill="#D9F6FF"/>
<path d="M422.296 70.8233C422.534 71.3082 422.772 71.7932 423.09 72.2387C423.528 72.9266 424.494 72.4523 424.218 71.6852C424.06 71.1607 423.822 70.6757 423.584 70.1907C423.188 69.3824 421.899 70.0149 422.296 70.8233Z" fill="#D9F6FF"/>
<path d="M394.432 49.8938C401.628 55.3898 406.564 62.5962 411.941 69.887C418.434 78.6363 424.927 87.3856 431.258 96.4152C442.485 112.57 452.016 130.361 464.252 145.72C465.263 144.521 466.314 143.404 467.245 142.245C460.201 138.28 452.259 143.481 445.62 145.837C443.326 146.662 444.628 150.537 447.001 149.874C451.787 148.628 459.969 143.509 464.732 146.086C467.014 147.273 469.559 144.72 467.724 142.611C454.767 127.004 444.555 108.846 432.567 92.3623C426.234 83.7352 419.699 75.3074 413.124 66.7988C408.023 60.2751 402.768 52.6231 395.121 48.8536C394.441 48.4854 393.793 49.4053 394.432 49.8938Z" fill="#D9F6FF"/>
<path d="M267.79 170.026C283.204 157.446 300.569 147.619 317.696 137.508C319.308 136.516 318.079 133.809 316.347 134.759C298.899 144.827 281.692 155.179 266.713 168.85C265.946 169.527 267.023 170.703 267.79 170.026Z" fill="#D9F6FF"/>
<path d="M98.6074 245.639C103.955 257.96 102.257 273.236 98.5693 285.679C94.8391 298.443 88.2152 311.624 75.6524 317.388C73.8804 318.258 75.1908 320.724 76.9616 320.056C90.4428 315.144 97.8842 299.556 101.415 286.589C104.947 273.421 106.488 257.419 99.9767 244.967C99.4189 244.238 98.2107 244.831 98.6074 245.639Z" fill="#D9F6FF"/>
<path d="M103.407 322.824C111.369 320.922 117.904 315.909 124.716 311.663C133.1 306.345 141.363 300.985 149.628 295.424C167.368 283.508 184.708 271.186 202.168 258.905C236.968 234.503 272.126 210.426 308 187.603C327.953 174.902 348.104 162.604 368.533 150.672C370.468 149.522 368.921 146.369 366.986 147.519C295.626 188.661 229.004 236.606 161.784 283.942C151.622 291.136 141.3 298.208 130.899 305.118C122.231 310.877 113.471 318.687 103.295 321.374C102.25 321.687 102.522 323.058 103.407 322.824Z" fill="#D9F6FF"/>
<path d="M297.67 88.3577C307.475 100.597 317.685 112.437 327.046 124.995C336.726 137.997 345.801 151.397 354.755 164.957C355.87 166.616 358.648 165.353 357.575 163.573C349.101 150.179 340.063 137.262 330.421 124.743C320.579 111.819 310.216 98.8504 298.478 87.56C298.039 87.0732 297.192 87.7901 297.67 88.3577Z" fill="#D9F6FF"/>
<path d="M388.835 72.7016C405.484 88.7033 418.018 107.928 431.077 126.796C432.231 128.536 434.653 126.344 433.499 124.604C420.763 105.578 407.182 86.8672 390.047 71.5051C389.328 70.8549 388.037 71.8898 388.835 72.7016Z" fill="#D9F6FF"/>
<path d="M367.028 153.918C378.938 149.878 390.691 145.313 402.404 140.668C407.918 138.463 413.432 136.258 418.987 134.134C425.104 131.733 431.701 129.9 437.462 126.772C439.033 125.9 438.326 123.238 436.436 123.664C424.616 126.055 412.972 132.673 402.021 137.445C390.145 142.572 378.389 147.74 366.314 152.463C365.308 152.857 366.103 154.272 367.028 153.918Z" fill="#D9F6FF"/>
<path d="M365.585 113.101C362.289 127.156 357.911 140.84 352.851 154.357C352.035 156.563 355.521 157.76 356.337 155.554C361.398 141.836 365.256 127.906 367.912 113.564C368.161 112.238 365.834 111.775 365.585 113.101Z" fill="#D9F6FF"/>
<path d="M347.453 123.605C345.033 132.115 342.292 140.582 339.151 148.844C336.173 156.624 333.43 165.493 328.571 172.292C327.559 173.691 329.636 175.48 330.848 174.283C336.663 168.822 338.843 160.028 341.537 152.688C344.925 143.502 347.712 134.11 350.258 124.636C350.711 122.708 348.026 121.719 347.453 123.605Z" fill="#D9F6FF"/>
<path d="M333.509 132.053C324.202 150.764 314.855 169.394 304.428 187.451C303.657 188.732 305.577 189.997 306.347 188.716C317.376 170.865 326.243 151.869 334.87 132.79C335.237 131.908 333.915 131.252 333.509 132.053Z" fill="#D9F6FF"/>
<path d="M303.421 160.964C301.352 164.487 299.283 168.01 297.335 171.574C296.766 172.655 298.326 173.595 298.854 172.634C300.763 168.988 302.751 165.505 304.781 161.901C305.308 160.94 303.949 160.002 303.421 160.964Z" fill="#D9F6FF"/>
<path d="M164.48 316.521C180.651 305.073 200.249 297.962 218.048 289.427C236.089 280.773 254.091 272.038 272.29 263.707C308.005 247.483 343.958 231.542 380.701 217.821C402.272 209.842 424.2 202.59 446.322 196.346C448.414 195.721 447.791 192.416 445.66 192.96C407.173 202.722 370.026 216.842 333.473 232.375C295.51 248.499 258.183 265.917 221.251 284.344C211.061 289.446 200.952 294.508 190.723 299.528C181.218 304.193 171.754 308.939 163.362 315.465C162.837 316.023 163.754 317.078 164.48 316.521Z" fill="#D9F6FF"/>
<path d="M492.06 142.303C493.664 149.439 493.861 156.765 495.626 163.823C496.959 169.187 499.491 175.567 494.367 179.586C486.944 185.437 475.419 185.577 466.494 187.349C464.765 187.696 465.231 190.276 467 190.009C476.885 188.769 490.939 188.892 498.493 181.273C502.291 177.403 501.317 172.364 499.94 167.523C497.582 159.051 496.147 150.427 493.628 142.035C493.352 141.067 491.865 141.295 492.06 142.303Z" fill="#D9F6FF"/>
<path d="M148.52 339.801C237.045 295.55 328.701 258.087 418.892 217.232C444.46 205.586 469.828 193.737 495.039 181.363C496.811 180.493 495.423 177.664 493.651 178.534C404.174 220.845 312.438 258.145 223.161 300.659C197.792 312.709 172.7 325.325 147.966 338.468C147.08 338.903 147.634 340.235 148.52 339.801Z" fill="#D9F6FF"/>
<path d="M2.13944 228.089C39.2577 191.917 83.6708 164.703 126.049 135.378C171.088 104.144 217.243 74.3699 265.107 47.6686C292.1 32.6146 319.766 19.337 347.355 5.49547C350.415 3.99325 348.113 -0.493811 345.054 0.807216C319.691 11.6503 295.116 25.116 270.984 38.4648C246.771 51.8532 222.994 66.1308 199.576 80.9346C154.714 109.272 111.405 139.957 67.9764 170.399C44.1048 187.131 20.2681 204.748 0.783369 226.548C-0.266127 227.465 1.12962 229.086 2.13944 228.089Z" fill="#D9F6FF"/>
<path d="M0.926454 229.487C4.89853 236.765 11.7318 242.339 16.9132 248.823C22.8917 256.32 28.3064 264.094 34.0433 271.71C44.7994 286.091 54.9904 300.949 67.1986 314.215C73.0233 320.585 80.139 325.919 85.5597 332.687C88.35 336.132 90.4022 342.146 95.1328 343.435C97.4182 344.019 99.552 343.072 101.366 341.88C104.874 339.457 108.025 336.305 111.493 333.801C119.358 328.035 127.541 322.714 135.604 317.353C167.734 296.066 199.307 274.051 231.238 252.561C263.693 230.714 297.061 210.726 331.425 191.955C350.279 181.698 369.332 171.644 388.306 161.429C407.28 151.214 426.295 140.878 446.736 133.654C450.398 132.358 447.701 126.862 444.039 128.157C426.614 134.402 410.06 142.828 393.785 151.618C377.671 160.33 361.478 168.879 345.364 177.59C312.653 195.25 280.099 213.434 248.938 233.844C218.139 253.975 188.057 275.159 157.617 295.816C142.458 306.065 126.899 315.908 111.938 326.561C108.389 329.105 104.801 331.569 101.491 334.397C99.9979 335.631 99.1877 336.831 97.2185 337.095C94.7673 337.396 94.1758 335.58 92.9027 333.597C89.1614 328.01 84.45 323.502 79.5788 318.872C65.3641 305.386 53.6919 289.75 41.7782 274.233C35.6422 266.211 29.5867 258.15 23.1682 250.367C19.9391 246.435 16.6295 242.543 13.1179 238.85C9.72526 235.4 6.00929 232.308 3.2226 228.26C2.3486 226.683 0.29169 228.194 0.926454 229.487Z" fill="#D9F6FF"/>
<path d="M349.177 2.89581C348.214 2.76661 347.773 2.68225 347.006 3.35961C346.521 3.798 346.316 4.601 346.674 5.12729C348.859 9.17065 352.77 13.0683 355.842 16.4756C360.43 21.5462 365.3 26.3778 369.807 31.4879C379.019 42.1123 388.191 52.857 397.242 63.5604C406.094 74.0609 414.301 84.8776 422.427 95.935C426.609 101.606 430.831 107.357 434.812 113.227C438.513 118.733 443.456 124.933 444.782 131.504C445.68 135.778 452.353 134.508 451.455 130.235C450.166 124.147 446.383 118.882 442.96 113.742C439.458 108.439 435.715 103.255 431.93 98.1917C423.166 86.4446 414.361 74.8177 404.871 63.6276C395.541 52.5595 385.807 41.8903 376.234 31.1421C373.96 28.5466 349.046 4.66528 349.693 3.94663C350.016 3.58731 349.618 2.98018 349.177 2.89581Z" fill="#D9F6FF"/>
<path d="M265.792 47.232C265.194 46.4219 264.758 45.5327 264.523 44.4442C263.718 44.8395 262.912 45.2348 262.026 45.6697C271.846 55.4945 282.11 64.8002 291.567 74.9036C301.422 85.4129 310.874 96.321 320.124 107.429C328.895 117.969 337.706 128.589 346.073 139.528C353.524 149.212 359.361 160.289 368.184 168.898C370.898 171.578 375.379 167.674 372.544 164.952C363.721 156.344 357.804 145.306 350.353 135.622C341.786 124.48 332.775 113.657 323.684 102.872C305.982 81.6703 286.883 59.0475 263.766 43.5119C262.606 42.7774 260.952 44.0908 261.667 45.3446C262.462 46.76 263.101 47.2485 264.461 48.186C265.262 48.5955 266.229 47.9199 265.792 47.232Z" fill="#D9F6FF"/>
<path d="M303.308 58.7092C305.894 62.7561 316.262 54.7589 318.76 53.3322C327.624 48.38 336.643 44.1536 346.849 43.157C349.139 42.9357 349.281 39.3554 347.157 38.6929C339.099 36.3282 328.859 43.1595 322.211 46.9239C319.149 48.6273 316.167 50.4924 313.184 52.3575C311.894 53.1912 305.963 58.0082 304.441 57.3509C303.76 56.9828 302.871 58.0212 303.308 58.7092Z" fill="#D9F6FF"/>
<path d="M317.697 69.9022C323.112 64.2357 330.683 60.5196 337.888 57.6857C341.832 56.151 345.896 54.8588 350.116 54.0911C353.131 53.5141 356.903 54.0704 359.641 52.7263C360.849 52.1333 360.981 50.3639 359.82 49.6293C357.101 47.7543 352.878 48.9243 349.863 49.5014C345.32 50.4272 340.974 51.9584 336.747 53.732C328.977 57.0439 321.08 61.5216 315.82 68.3163C315.05 69.396 316.768 70.8599 317.697 69.9022Z" fill="#D9F6FF"/>
<path d="M331.173 79.4374C333.745 78.9771 335.963 77.387 338.179 76.1993C340.838 74.6935 344.298 73.5972 346.518 71.6047C347.972 70.2896 346.782 67.8646 344.852 68.2098C342.079 68.6683 339.333 71.2195 337.034 72.8492C334.816 74.4393 332.478 75.9881 330.34 77.7399C329.493 78.2556 330.248 79.5902 331.173 79.4374Z" fill="#D9F6FF"/>
<path d="M91.2965 198.975C109.85 185.255 128.321 171.776 147.749 159.432C157.06 153.558 166.452 147.645 175.881 142.014C185.714 136.185 196.023 131.326 206.093 125.982C208.792 124.557 206.767 120.837 204.07 121.859C193.486 125.75 183.49 132.06 173.858 137.891C163.824 143.92 154.068 150.312 144.312 156.705C125.447 168.974 106.176 181.842 90.2194 197.799C89.4524 198.476 90.4093 199.611 91.2965 198.975Z" fill="#D9F6FF"/>
<path d="M107.216 209.417C118.728 198.05 133.51 190.494 146.018 180.342C152.515 175.047 158.932 169.591 165.747 164.741C173.087 159.534 180.735 156.382 188.669 152.388C190.683 151.399 189.576 148.533 187.526 148.836C179.851 149.694 172.674 154.621 166.465 158.872C158.844 164.117 151.741 170.211 144.678 176.185C132.086 186.779 116.095 195.129 106.138 208.442C105.571 209.121 106.61 210.015 107.216 209.417Z" fill="#D9F6FF"/>
<path d="M113.918 223.48C135.412 214.937 152.146 196.493 171.613 184.431C181.729 178.162 192.204 172.419 202.52 166.353C212.231 160.684 224.071 154.873 231.95 146.692C233.809 144.777 231.823 141.138 229.204 142.523C224.088 145.335 219.446 149.319 214.528 152.535C209.529 155.791 204.371 158.924 199.293 162.019C189.017 168.165 178.622 174.07 168.585 180.501C149.115 192.965 132.554 209.318 113.006 221.621C111.837 222.295 112.67 223.992 113.918 223.48Z" fill="#D9F6FF"/>
<path d="M130.088 232.395C134.894 227.729 140.896 224.482 146.539 220.91C152.182 217.338 157.507 213.321 162.83 209.504C175.372 200.44 188.351 192.264 201.41 184.049C203.385 182.779 201.998 179.749 199.784 180.735C185.615 186.486 173.026 196.677 160.964 205.906C155.075 210.402 149.306 214.938 143.257 219.111C137.935 222.726 132.695 226.1 128.569 231.134C127.882 231.973 129.28 233.193 130.088 232.395Z" fill="#D9F6FF"/>
<path d="M143.615 239.999C150.466 235.834 157.437 231.71 164.288 227.545C170.696 223.698 177.784 220.219 183.675 215.523C185.611 213.97 183.422 210.732 181.207 211.92C174.157 215.68 167.581 220.814 160.889 225.302C154.559 229.512 148.47 233.804 142.499 238.54C141.773 239.097 142.768 240.515 143.615 239.999Z" fill="#D9F6FF"/>
<path d="M29.4881 254.487C42.5893 239.23 70.5207 228.53 87.2083 244.814C96.5506 253.87 97.6687 268.367 94.0647 280.166C91.9754 287.11 88.4025 293.678 83.5518 299.068C78.6602 304.578 72.9426 307.183 66.5783 310.508C63.96 311.893 65.3425 315.728 68.1953 315.431C80.0091 314.046 90.3225 301.662 95.481 291.808C101.128 280.913 103.613 268.057 100.031 256.074C94.0078 235.86 73.5346 228.155 54.2661 233.9C43.5258 237.065 33.7678 243.861 27.7678 253.426C27.1186 254.547 28.679 255.486 29.4881 254.487Z" fill="#D9F6FF"/>
<path d="M47.8144 285.514C53.9599 278.485 59.6221 271.694 66.7654 265.68C73.7476 259.746 80.8513 253.652 88.3913 248.446C91.214 246.459 87.1458 241.836 84.8412 244.471C78.3736 251.658 70.0281 257.258 62.8812 263.876C56.7032 269.616 49.4746 276.474 46.3345 284.535C46.129 285.338 47.2482 286.193 47.8144 285.514Z" fill="#D9F6FF"/>
<path d="M38.2546 272.552C52.0135 268.206 63.8765 251.852 65.4464 237.741C65.7842 234.968 61.7292 234.851 61.2724 237.383C58.5388 251.363 50.0731 263.642 37.7424 270.898C36.8961 271.413 37.2087 272.865 38.2546 272.552Z" fill="#D9F6FF"/>
<path d="M65.6694 308.045C64.1955 299.34 69.3864 290.774 74.5654 284.22C79.38 278.146 87.1785 270.005 95.6479 270.563C99.0597 270.794 99.4936 265.365 96.0409 265.254C85.7226 265.002 77.0381 273.578 71.4901 281.416C66.4687 288.495 60.4988 299.75 64.1403 308.595C64.3759 309.482 65.8245 308.972 65.6694 308.045Z" fill="#D9F6FF"/>
<path d="M36.766 246.1C43.6522 256.262 51.9077 265.751 59.6414 275.195C66.7764 284.031 74.6652 294.402 84.2647 300.724C86.7448 302.315 89.8969 298.962 87.7017 296.73C83.4712 292.387 78.6744 288.723 74.4439 284.38C70.0535 279.915 65.9047 275.331 61.8365 270.707C54.2591 261.989 46.9702 252.025 37.8179 244.782C37.0581 244.252 36.3284 245.412 36.766 246.1Z" fill="#D9F6FF"/>
<path d="M55.984 235.364C56.56 246.516 65.6966 256.375 73.4435 263.606C77.1174 267.019 81.0342 270.112 85.0314 273.165C88.5887 275.933 93.5454 279.719 98.2892 278.795C100.581 278.373 101.206 274.555 98.6389 274.009C90.2164 272.326 83.1031 266.589 76.5908 261.059C68.5999 254.349 60.0992 245.582 57.5108 235.217C57.3954 234.371 55.99 234.358 55.984 235.364Z" fill="#D9F6FF"/>
<path d="M258.173 173.241C265.172 164.49 275.405 158.866 285.272 154.124C293.044 150.409 303.417 148.127 309.12 141.215C310.941 139.018 307.425 135.928 305.285 137.881C290.829 151.396 266.004 152.948 256.892 172.667C256.526 173.347 257.648 173.8 258.173 173.241Z" fill="#D9F6FF"/>
<path d="M256.897 171.862C255.321 173.538 254.629 174.981 254.776 177.316C254.849 178.484 255.687 179.376 256.893 179.186C267.304 177.386 276.374 171.43 285.677 166.964C294.093 162.934 303.349 159.595 310.294 153.177C312.757 150.865 309.247 146.971 306.864 149.243C300.2 155.623 291.828 158.93 283.814 162.964C274.671 167.551 266.127 172.748 256.311 175.76C256.952 176.047 257.633 176.415 258.193 176.742C257.599 175.329 257.568 173.839 257.978 172.435C257.981 171.831 257.22 171.502 256.897 171.862Z" fill="#D9F6FF"/>
<path d="M307.072 141.318C309.772 139.692 310.671 137.044 311.211 134.07C312.039 129.852 312.456 127.24 317.24 126.397C316.32 125.745 315.4 125.093 314.4 124.481C315.159 131.932 313.33 142.258 309.397 148.702C308.14 150.824 310.775 153.342 312.713 151.589C316.185 148.48 317.101 143.016 317.93 138.596C318.923 133.696 319.677 128.511 319.144 123.557C318.991 122.227 317.51 121.45 316.304 121.64C312.204 122.449 309.142 124.153 308.233 128.41C307.325 132.467 307.865 136.214 305.874 140.1C305.59 140.741 306.226 141.833 307.072 141.318Z" fill="#D9F6FF"/>
<path d="M290.389 164.551C295.773 164.115 300.577 166.572 305.668 167.985C308.795 168.858 315.45 170.607 316.881 166.394C317.33 165.07 316.373 163.935 315.089 163.762C313.124 163.423 310.99 164.37 308.863 164.11C305.975 163.722 303.209 162.773 300.363 162.063C297.195 161.311 291.782 160.056 289.514 163.175C288.908 163.773 289.707 164.585 290.389 164.551Z" fill="#D9F6FF"/>
<path d="M303.494 155.411C304.2 158.274 308.009 159.314 310.575 159.86C314.145 160.615 317.799 160.527 321.288 161.322C320.772 160.271 320.256 159.22 319.741 158.17C318.921 160.979 317.024 162.613 315.204 164.81C313.707 166.648 316.223 168.923 318.115 168.095C321.417 166.675 323.606 163.194 324.429 159.78C324.84 158.174 323.925 156.718 322.2 156.461C319.231 156.113 316.218 156.288 313.248 156.141C311.722 156.087 310.076 155.992 308.552 155.737C307.189 155.403 305.988 154.789 304.624 154.455C304.104 154.209 303.338 154.685 303.494 155.411Z" fill="#D9F6FF"/>
<path d="M282.956 151.85C284.414 149.73 285.593 147.446 287.051 145.326C288.225 143.647 290.537 139.804 292.947 139.624C292.429 138.975 291.831 138.367 291.312 137.718C291.016 140.371 290.519 142.822 290.663 145.559C290.734 147.13 293.139 147.956 293.671 146.19C294.33 143.459 294.828 140.807 294.844 137.991C294.852 136.784 293.973 136.011 292.727 136.121C289.674 136.416 287.488 139.294 285.828 141.614C283.965 144.334 281.897 147.655 281.114 150.948C280.947 152.033 282.308 152.77 282.956 151.85Z" fill="#D9F6FF"/>
<path d="M268.687 174.501C269.236 176.638 271.359 177.502 273.45 177.078C275.822 176.616 277.679 174.902 278.615 172.737C279.47 170.813 276.586 169.621 275.452 171.18C274.238 172.779 272.54 174.816 270.501 173.309C269.66 172.819 268.411 173.533 268.687 174.501Z" fill="#D9F6FF"/>
<path d="M262.926 170.909C265.064 169.157 267.88 168.377 270.297 166.99C272.473 165.721 269.922 162.56 268.263 164.678C266.524 166.836 263.747 167.898 261.927 170.095C261.401 170.654 262.361 171.387 262.926 170.909Z" fill="#D9F6FF"/>
<path d="M278.44 161.79C279.523 161.96 280.688 161.89 281.654 161.416C282.379 161.06 282.706 160.097 282.349 159.37C281.952 158.561 281.07 158.392 280.305 158.667C279.541 158.942 279.058 159.18 278.334 159.334C277.691 159.449 277.286 160.049 277.282 160.653C277.359 161.217 277.798 161.704 278.44 161.79Z" fill="#D9F6FF"/>
<path d="M288.791 156.609C289.313 156.453 289.517 156.052 289.84 155.693C290.528 154.854 289.774 153.318 288.689 153.349C288.207 153.385 287.725 153.421 287.323 153.619C286.557 154.095 286.11 155.016 286.587 155.785C287.144 156.716 287.945 156.924 288.791 156.609Z" fill="#D9F6FF"/>
<path d="M336.13 204.189C344.966 197.144 356.351 193.663 367.129 190.981C375.252 189 385.534 188.568 392.351 183.316C394.61 181.605 391.983 177.679 389.485 179.106C372.481 189.056 348.122 186.468 335.011 203.334C334.566 203.853 335.526 204.586 336.13 204.189Z" fill="#D9F6FF"/>
<path d="M335.176 202.652C333.16 204.042 332.43 205.203 332.014 207.614C331.848 208.497 332.726 209.471 333.649 209.519C343.847 209.73 353.628 205.832 363.361 203.262C372.651 200.808 382.739 199.368 391.121 194.452C393.982 192.747 391.681 188.059 388.819 189.764C380.437 194.881 370.95 196.528 361.659 199.182C352.287 201.877 343.194 204.734 333.429 206.016C334.149 206.465 334.789 206.954 335.509 207.403C335.277 205.912 335.486 204.505 336.176 203.264C336.38 202.662 335.539 202.373 335.176 202.652Z" fill="#D9F6FF"/>
<path d="M390.708 182.819C393.605 181.798 395.025 179.396 396.245 176.791C397.914 173.063 398.971 170.94 403.548 170.899C402.831 170.048 402.113 169.197 401.275 168.304C400.389 175.459 396.4 184.438 391.35 189.625C389.693 191.341 391.481 194.576 393.858 193.309C397.886 191.131 399.923 186.32 401.754 182.312C403.747 178.024 405.581 173.412 406.132 168.628C406.259 167.463 405.144 166.004 403.859 166.033C399.602 166.116 396.344 167.013 394.432 171.061C392.724 174.708 392.261 178.245 389.672 181.522C388.944 182.28 389.943 183.094 390.708 182.819Z" fill="#D9F6FF"/>
<path d="M369.355 201.423C374.451 202.032 378.451 204.682 383.015 206.855C385.778 208.208 392.625 211.568 394.776 207.603C395.386 206.401 395.032 205.07 393.791 204.576C392.028 203.836 389.856 204.501 387.891 203.961C385.326 203.214 382.804 201.944 380.28 200.876C377.237 199.561 371.71 197.058 368.762 199.808C368.197 200.286 368.593 201.296 369.355 201.423Z" fill="#D9F6FF"/>
<path d="M384.048 195.315C384.232 198.134 387.997 199.696 390.241 200.601C393.605 201.959 397.256 202.474 400.582 203.751C400.148 202.459 399.753 201.248 399.319 199.957C397.859 202.479 395.684 203.546 393.585 205.379C391.89 206.813 393.399 209.683 395.489 209.259C398.947 208.565 401.895 205.814 403.479 202.73C404.21 201.368 403.86 199.433 402.217 198.936C399.33 198.146 396.361 197.798 393.473 197.209C390.385 196.619 388.144 195.311 385.3 194.2C384.578 193.952 384.052 194.712 384.048 195.315Z" fill="#D9F6FF"/>
<path d="M364.854 188.587C366.832 186.914 368.491 184.796 370.428 183.042C372.164 181.488 374.992 178.696 377.56 179.041C377.082 178.272 376.485 177.462 376.008 176.693C375.149 179.221 374.172 181.506 373.674 184.158C373.385 185.604 375.789 186.43 376.439 185.107C377.658 182.704 378.636 180.419 379.334 177.769C379.621 176.725 379.026 175.513 377.782 175.421C374.691 175.233 372.109 177.303 369.889 179.295C367.466 181.487 364.719 184.24 363.256 187.164C362.888 188.248 363.845 189.383 364.854 188.587Z" fill="#D9F6FF"/>
<path d="M346.191 207.175C346.339 209.309 348.422 210.293 350.309 210.27C352.598 210.25 354.774 208.981 356.109 207.222C357.365 205.503 354.926 203.59 353.433 204.824C352.101 205.98 349.721 207.85 348.125 206.226C347.287 205.334 346.077 206.128 346.191 207.175Z" fill="#D9F6FF"/>
<path d="M341.238 202.785C343.735 201.56 346.588 201.263 349.203 200.481C351.818 199.699 349.871 196.141 347.854 197.733C345.676 199.404 342.741 199.941 340.522 201.733C339.957 202.211 340.594 203.102 341.238 202.785Z" fill="#D9F6FF"/>
<path d="M358.339 196.9C359.382 197.191 360.505 197.442 361.55 197.129C362.355 196.935 362.881 196.175 362.766 195.329C362.57 194.523 361.81 193.993 360.966 194.106C360.242 194.261 359.558 194.496 358.836 194.449C357.431 194.437 356.856 196.525 358.339 196.9Z" fill="#D9F6FF"/>
<path d="M369.399 193.979C369.962 193.904 370.245 193.665 370.688 193.347C371.092 192.948 371.257 192.265 371.099 191.74C370.902 191.135 370.423 190.769 369.781 190.683C369.259 190.638 368.857 190.634 368.374 190.871C367.609 191.146 367.322 192.19 367.559 192.876C367.835 193.643 368.676 194.134 369.399 193.979Z" fill="#D9F6FF"/>
<path d="M366.048 123.004C369.709 128.63 374.212 134.343 379.852 138.095C381.172 138.952 382.708 137.195 381.631 136.018C377.082 131.23 372.211 126.599 367.499 122.091C366.861 121.401 365.492 122.073 366.048 123.004Z" fill="#D9F6FF"/>
<path d="M369.562 119.574C374.548 125.252 379.574 130.809 383.873 137.125C384.869 138.542 386.966 136.91 386.292 135.536C383.283 128.387 376.688 123.299 371.257 118.14C370.22 117.045 368.605 118.439 369.562 119.574Z" fill="#D9F6FF"/>
<path d="M374.157 116.717C380.311 121.721 383.761 128.955 389.472 134.277C390.43 135.211 392.524 134.183 391.649 132.807C387.713 126.213 381.774 118.796 374.727 115.435C373.926 115.025 373.517 116.229 374.157 116.717Z" fill="#D9F6FF"/>
<path d="M378.99 114.345C382.593 116.188 385.259 120.195 387.73 123.396C390.121 126.435 392.542 131.165 396.105 132.927C397.306 133.541 399.361 132.432 398.406 130.894C395.982 126.769 391.788 122.909 388.557 119.379C386.282 116.985 383.094 112.933 379.4 112.94C378.797 112.935 378.309 113.977 378.99 114.345Z" fill="#D9F6FF"/>
<path d="M381.901 110.91C385.091 114.761 388.482 118.413 391.913 122.145C394.866 125.31 397.815 129.078 401.455 131.404C403.775 132.873 406.122 129.916 404.528 127.89C401.818 124.405 397.859 121.634 394.545 118.547C391.07 115.337 387.596 112.127 384.122 108.918C382.724 107.698 380.666 109.41 381.901 110.91Z" fill="#D9F6FF"/>
<path d="M391.62 110.754C390.858 110.627 391.978 111.281 392.097 111.523C392.576 112.091 393.174 112.7 393.733 113.228C395.01 114.607 396.326 116.067 397.643 117.528C399.677 119.839 401.903 123.561 404.95 124.473C406.593 124.971 407.807 123.372 407.254 121.838C405.991 118.245 400.95 115.102 398.274 112.704C396.676 111.282 393.845 107.957 391.351 108.78C390.224 109.132 390.737 110.586 391.62 110.754Z" fill="#D9F6FF"/>
<path d="M396.307 105.846C398.939 108.968 406.991 125.578 412.634 122.006C413.48 121.49 414.21 120.329 413.533 119.358C412.737 118.143 411.776 117.813 410.656 116.958C409.017 115.857 407.621 114.235 406.385 112.735C403.833 109.775 401.523 106.495 398.608 103.814C397.129 102.634 395.071 104.346 396.307 105.846Z" fill="#D9F6FF"/>
<path d="M404.007 107.483C407.278 111.093 410.105 115.223 413.699 118.474C415.017 119.733 417.675 118.428 416.561 116.567C414.019 111.998 409.863 108.621 405.745 105.527C404.547 104.51 403.05 106.348 404.007 107.483Z" fill="#D9F6FF"/>
<path d="M366.384 120.633C366.101 120.872 365.698 121.069 365.416 121.308C364.971 121.828 365.046 122.794 365.767 123.042C367.972 123.665 369.671 121.627 371.444 120.557C375.071 118.375 378.818 116.235 382.644 114.257C389.372 110.654 397.741 107.75 403.594 102.771C404.643 101.855 403.732 99.7946 402.364 100.265C395.886 102.341 389.677 106.592 383.795 109.881C380.652 111.624 377.55 113.447 374.486 115.352C372.431 116.662 368.23 120.729 365.899 121.071C366.258 121.597 366.616 122.124 366.934 122.569C367.097 122.289 367.46 122.01 367.582 121.649C367.908 120.888 367.031 119.914 366.384 120.633Z" fill="#D9F6FF"/>
<path d="M383.575 139.979C395.426 132.357 407.873 125.746 418.848 116.95C420.865 115.358 418.074 112.114 416.136 113.868C405.88 123.314 393.235 129.521 382.461 138.319C381.493 138.995 382.527 140.694 383.575 139.979Z" fill="#D9F6FF"/>
<path d="M405.545 105.525C409.54 108.98 412.687 113.153 416.076 117.207C417.432 118.748 419.652 116.756 418.457 115.135C415.191 110.72 411.36 106.783 406.76 103.725C405.56 102.909 404.506 104.63 405.545 105.525Z" fill="#D9F6FF"/>
<path d="M150.604 253.018C156.967 256.616 158.765 264.961 164.077 269.676C165.475 270.896 167.573 269.264 166.298 267.684C161.912 262.414 158.553 253.33 151.336 251.455C150.414 251.206 149.644 252.487 150.604 253.018Z" fill="#D9F6FF"/>
<path d="M154.718 249.996C161.318 254.28 162.148 263.301 168.507 267.502C170.147 268.603 171.887 266.445 170.69 265.026C167.94 261.662 165.633 257.98 163.004 254.455C161.012 251.822 158.7 248.945 155.209 248.552C154.486 248.505 154.118 249.588 154.718 249.996Z" fill="#D9F6FF"/>
<path d="M159.15 247.419C162.85 253.327 167.27 259.483 172.18 264.395C173.537 265.735 176.277 264.19 175.123 262.449C171.303 256.5 165.43 251.66 160.723 246.347C160.045 245.576 158.554 246.408 159.15 247.419Z" fill="#D9F6FF"/>
<path d="M163.624 244.722C166.962 250.506 171.697 257.912 177.337 261.463C179.217 262.646 181.601 260.172 179.965 258.468C177.531 255.952 174.853 253.755 172.5 251.199C170.146 248.643 168.074 245.848 165.64 243.332C164.682 242.398 162.869 243.388 163.624 244.722Z" fill="#D9F6FF"/>
<path d="M168.619 242.07C170.932 244.747 173.488 247.103 175.558 250.099C177.469 252.772 179.177 256.046 182.058 257.641C183.579 258.5 185.555 257.028 184.803 255.291C183.216 252.058 180.141 249.254 177.707 246.537C175.513 244.103 172.96 241.344 169.793 240.39C168.751 240.1 167.941 241.3 168.619 242.07Z" fill="#D9F6FF"/>
<path d="M174.941 239.068C179.012 243.289 181.497 250.795 186.902 253.459C188.343 254.155 190.081 252.199 189.206 250.823C187.535 248.233 185.059 246.038 183.105 243.687C181.112 241.255 179.117 239.024 176.477 237.31C175.317 236.576 173.943 238.053 174.941 239.068Z" fill="#D9F6FF"/>
<path d="M178.128 236.601C181.637 240.696 184.569 247.281 189.494 249.779C191.335 250.681 192.993 248.764 191.798 247.144C190.166 244.835 187.968 243.005 186.133 240.896C184.259 238.707 182.264 236.677 180.227 234.768C178.869 233.629 176.972 235.263 178.128 236.601Z" fill="#D9F6FF"/>
<path d="M183.636 235.402C186.272 237.92 188.745 240.718 191.703 242.877C194.022 244.547 196.333 240.906 194.094 239.196C191.336 237.039 188.579 234.882 185.86 232.806C184.301 231.665 182.279 234.062 183.636 235.402Z" fill="#D9F6FF"/>
<path d="M150.685 252.979C158.848 251.079 166.793 245.273 173.767 240.747C181.224 235.984 188.242 230.734 196.256 226.901C198.753 225.676 196.847 221.997 194.351 223.021C186.621 226.414 180.005 231.668 173.03 236.395C165.53 241.48 156.833 245.548 149.891 251.362C149.205 252 149.8 253.212 150.685 252.979Z" fill="#D9F6FF"/>
<path d="M168.777 269.476C177.67 266.214 184.662 258.67 191.764 252.777C198.019 247.601 206.311 244.334 211.409 237.819C213.27 235.502 209.435 232.168 207.414 234.364C202.078 240.393 194.668 244.03 188.813 249.411C181.828 255.748 175.125 262.047 167.622 267.736C166.614 268.531 167.77 269.87 168.777 269.476Z" fill="#D9F6FF"/>
<path d="M197.019 226.827C196.887 228.798 199.926 230.917 201.163 232.216C202.999 234.123 204.785 237.56 207.229 238.467C208.832 239.084 210.005 237.606 209.893 236.156C209.629 233.377 205.908 231.091 203.95 229.544C202.471 228.364 199.878 225.525 197.868 225.909C197.386 225.945 196.982 226.344 197.019 226.827Z" fill="#D9F6FF"/>
<path d="M191.305 228.829C193.89 233.077 197.196 237.573 200.587 241.225C202.063 242.807 204.925 241.102 203.813 239.04C201.43 234.593 196.673 231.009 192.958 227.717C192.28 226.947 190.629 227.656 191.305 228.829Z" fill="#D9F6FF"/>
<path d="M189.902 235.135C191.738 237.042 193.251 239.108 195.007 241.055C196.722 242.921 199.427 240.49 197.873 238.545C196.279 236.519 194.523 234.572 192.647 232.785C190.93 231.12 188.266 233.43 189.902 235.135Z" fill="#D9F6FF"/>
<path d="M143.55 311.346C144.072 311.391 147.086 317.736 147.562 318.706C148.952 321.334 150.342 323.962 151.772 326.469C152.408 327.561 153.889 328.339 155.018 327.584C159.531 324.968 165.479 324.055 170.429 322.328C176.344 320.327 182.179 318.165 188.014 316.003C199.686 311.478 211.08 306.388 222.317 300.772C245.032 289.423 267.113 276.781 290.186 265.958C335.769 244.588 383.729 228.673 430.815 210.979C456.894 201.188 483.251 191.963 510.706 187.014C514.364 186.322 513.233 180.759 509.655 181.411C485.617 185.787 462.442 193.35 439.584 201.76C415.8 210.524 392.096 219.45 368.312 228.215C344.367 237.058 320.46 246.184 297.148 256.723C273.634 267.26 251.193 279.779 228.315 291.61C215.305 298.296 202.095 304.779 188.451 310.172C182.333 312.573 176.256 314.854 170.059 317.093C164.425 319.055 157.192 319.998 152.391 323.658C153.515 323.708 154.76 323.799 155.884 323.849C153.334 320.487 151.147 316.846 148.638 313.363C147.522 311.905 145.655 308.508 143.405 308.81C141.838 308.877 142.025 311.293 143.55 311.346Z" fill="#D9F6FF"/>
<path d="M412.376 77.6977C417.126 75.7677 422.148 75.4095 427.251 74.8105C432.997 74.0965 438.626 72.9389 444.294 71.862C450.244 70.7474 456.113 69.6723 462.101 68.8397C466.482 68.1942 474.005 65.8057 477.153 69.7771C479.505 72.7354 483.948 68.348 480.712 65.6233C477.076 62.4927 474.146 62.4267 469.524 62.9896C462.13 64.011 454.734 65.2336 447.416 66.8191C440.421 68.2464 433.543 70.1174 426.59 71.2232C421.204 72.0611 415.739 72.7373 411.263 75.8368C410.134 76.5914 411.29 78.1307 412.376 77.6977Z" fill="#D9F6FF"/>
<path d="M478.149 64.474C478.65 74.6595 482.081 85.1122 484.713 94.9543C487.343 104.998 490.256 114.802 493.329 124.728C499.396 144.419 506.466 164.12 509.435 184.629C510.055 188.537 516.004 187.423 515.385 183.514C512.254 163.084 505.104 143.424 498.917 123.691C495.884 113.845 492.811 103.919 489.778 94.0733C486.745 84.2277 484.6 73.5449 480.36 64.091C479.924 63.0007 478.075 63.3064 478.149 64.474Z" fill="#D9F6FF"/>
<path d="M409.31 147.409C414.53 154.175 414.024 164.956 415.984 173.021C417.394 178.949 418.885 184.837 420.617 190.607C422.154 195.57 424.294 200.338 425.468 205.378C426.33 208.967 431.516 207.926 431.056 204.341C430.407 198.742 427.147 193.119 425.413 187.752C423.443 181.296 421.555 174.8 419.867 168.307C417.943 160.926 417.604 150.46 411.049 145.452C409.81 144.355 408.434 146.234 409.31 147.409Z" fill="#D9F6FF"/>
<path d="M425.284 94.8334C427.225 92.6775 429.955 92.7418 432.648 92.3228C435.541 91.9056 438.276 91.1651 441.092 90.3851C446.601 88.9849 452.07 87.7051 457.736 87.0307C460.75 86.6548 459.772 82.2196 456.88 82.4356C449.408 82.8929 442.243 85.8077 435.204 87.959C431.462 89.0931 425.076 89.3185 424.005 93.8564C423.679 94.6181 424.638 95.5521 425.284 94.8334Z" fill="#D9F6FF"/>
<path d="M435.359 102.327C440.338 102.29 445.243 101.287 450.185 100.767C452.074 100.542 451.973 97.2817 449.965 97.264C444.945 97.421 440.237 99.0295 435.254 99.6697C433.807 99.9789 433.873 102.354 435.359 102.327Z" fill="#D9F6FF"/>
<path d="M438.026 166.817C438.269 166.497 438.471 166.298 438.713 165.978C438.032 165.811 437.27 165.683 436.588 165.516C437.252 168.701 438.237 171.728 438.901 174.913C439.565 178.098 439.826 181.48 440.851 184.588C441.679 187.09 445.096 186.517 444.871 183.819C444.226 177.616 442.144 169.71 438.641 164.609C438.044 163.799 436.595 164.309 436.589 165.315C436.547 165.637 436.545 166.039 436.583 166.321C436.458 167.085 437.5 167.375 438.026 166.817Z" fill="#D9F6FF"/>
<path d="M442.141 163.593C442.398 167.58 442.937 171.528 443.717 175.358C444.301 178.381 444.964 181.767 447.563 183.601C448.482 184.253 450.052 183.583 450.06 182.375C450.039 179.075 448.051 175.839 447.186 172.652C446.282 169.384 445.62 165.998 444.435 162.769C443.839 161.556 442.067 162.426 442.141 163.593Z" fill="#D9F6FF"/>
<path d="M448.124 163.566C448.388 166.345 449.456 169.131 449.961 171.992C450.467 174.653 450.45 177.469 451.52 179.853C452.273 181.59 455.127 181.092 455.179 179.161C455.276 176.305 454.128 173.558 453.22 170.894C452.273 168.149 451.367 165.083 449.493 162.894C448.975 162.245 448.048 162.8 448.124 163.566Z" fill="#D9F6FF"/>
<path d="M453.239 160.955C453.017 164.574 453.517 168.241 454.339 171.749C454.807 174.127 455.461 178.922 458.469 179.552C459.793 179.805 461.645 178.896 461.133 177.242C460.385 174.7 458.873 172.433 458.125 169.891C457.299 166.986 456.394 163.92 456.091 160.859C455.941 159.127 453.369 159.386 453.239 160.955Z" fill="#D9F6FF"/>
<path d="M459.594 159.24C460.18 162.062 461.283 178.973 466.029 177.647C467.156 177.295 467.966 176.094 467.371 174.882C467.966 176.094 467.688 175.529 467.493 174.722C467.295 174.117 467.098 173.511 466.82 172.946C466.188 171.25 465.636 169.515 465.084 167.779C464.059 164.672 463.114 161.525 461.727 158.494C461.13 157.483 459.28 157.99 459.594 159.24Z" fill="#D9F6FF"/>
<path d="M465.498 159.051C466.846 162 467.068 165.101 467.33 168.282C467.595 171.061 467.574 174.481 469.569 176.712C471.005 178.214 473.061 176.904 472.871 175.091C472.65 171.79 471.307 168.035 470.684 164.73C470.137 162.19 469.392 159.246 467.112 157.656C466.193 157.004 465.022 158.081 465.498 159.051Z" fill="#D9F6FF"/>
<path d="M436.178 166.921C440.491 164.102 446.802 163.111 451.787 162.069C455.124 161.333 464.659 158.359 467.655 161.001C469.053 162.221 472.109 161.523 471.44 159.143C469.79 153.133 458.326 156.452 454.425 157.464C448.433 158.9 439.227 160.711 435.101 165.745C434.575 166.303 435.493 167.358 436.178 166.921Z" fill="#D9F6FF"/>
<path d="M443.813 186.143C454.6 181.852 465.692 180.421 476.754 177.097C480.254 176.082 478.518 170.916 475.176 172.456C464.788 177.153 451.619 176.796 442.699 184.484C441.81 185.321 442.807 186.537 443.813 186.143Z" fill="#D9F6FF"/>
<path d="M194.797 276.264C195.812 280.982 197.623 287.114 200.773 290.884C202.009 292.384 203.986 290.712 203.394 289.097C201.733 284.696 199.639 279.003 196.408 275.474C195.769 274.784 194.642 275.338 194.797 276.264Z" fill="#D9F6FF"/>
<path d="M199.95 273.936C200.779 276.438 201.648 278.82 202.315 281.401C202.904 283.62 203.493 285.838 205.493 287.264C206.732 288.16 208.908 286.892 208.355 285.358C207.566 282.936 206.255 280.671 205.346 278.208C204.556 275.988 203.726 273.687 201.565 272.541C200.563 272.13 199.635 272.887 199.95 273.936Z" fill="#D9F6FF"/>
<path d="M206.166 268.678C206.551 271.298 207.38 273.8 208.128 276.342C208.756 278.641 209.303 281.181 210.536 283.284C211.609 285.064 214.665 284.367 214.237 282.069C213.769 279.691 212.659 277.428 211.668 275.206C210.679 272.783 209.811 270.199 208.338 268.014C207.702 266.921 205.893 267.308 206.166 268.678Z" fill="#D9F6FF"/>
<path d="M210.038 265.775C211.214 270.614 211.333 277.577 215.288 280.952C216.526 282.049 218.583 280.538 218.231 279.006C217.643 276.586 216.17 274.4 215.382 271.979C214.512 269.597 213.724 267.176 212.693 264.873C212.059 263.579 209.686 264.243 210.038 265.775Z" fill="#D9F6FF"/>
<path d="M215.308 264.091C215.823 265.343 216.659 266.437 217.093 267.728C217.607 269.182 217.918 270.834 218.351 272.327C219.058 274.989 219.807 277.33 221.965 279.079C223.404 280.178 225.302 278.344 224.548 276.808C223.16 273.979 222.012 271.232 220.865 268.285C220.074 266.266 218.846 263.358 216.48 262.814C215.638 262.726 215.032 263.324 215.308 264.091Z" fill="#D9F6FF"/>
<path d="M221.513 260.645C221.723 265.757 222.325 272.483 226.722 275.942C228.36 277.244 230.421 275.129 229.588 273.432C228.596 271.411 227.241 269.669 226.451 267.449C225.622 265.148 224.993 262.848 224.525 260.47C224.173 258.938 221.482 258.954 221.513 260.645Z" fill="#D9F6FF"/>
<path d="M226.789 257.955C230.093 262.853 229.653 269.288 232.514 274.303C233.547 276.203 237.045 275.389 236.376 273.009C234.882 267.724 233.568 259.141 228.488 255.917C227.087 255.1 225.912 256.78 226.789 257.955Z" fill="#D9F6FF"/>
<path d="M201.998 287.475C201.715 287.714 201.513 287.913 201.231 288.152C200.464 288.829 201.137 290.405 202.183 290.092C209.826 287.745 217.161 283.343 224.647 280.471C231.248 277.833 240.249 276.826 244.742 270.708C245.714 269.429 245.045 267.049 243.361 266.672C243.04 266.629 242.679 266.505 242.358 266.462C240.995 266.128 239.263 267.079 239.694 268.773C239.733 269.055 239.892 269.378 239.93 269.66C240.216 268.817 240.502 267.975 240.788 267.132C234.975 272.393 226.693 274.05 219.646 277.409C213.646 280.253 205.437 283.078 201.109 288.312C201.79 288.68 202.431 288.967 203.111 289.336C203.153 289.014 203.276 288.653 203.318 288.331C203.443 287.568 202.643 286.957 201.998 287.475Z" fill="#D9F6FF"/>
<path d="M237.381 259.376C236.39 257.355 236.564 255.063 236.215 252.927C235.983 251.436 234.139 250.937 233.089 251.853C232.928 251.932 232.807 252.092 232.766 252.213C231.876 253.251 232.752 254.627 233.793 255.119C234.193 255.324 234.423 257.217 234.621 257.621C234.896 258.589 235.213 259.437 235.73 260.287C236.286 261.217 237.937 260.508 237.381 259.376Z" fill="#D9F6FF"/>
<path d="M232.922 252.938C233.805 253.107 235.899 258.799 236.453 260.132C237.641 262.96 238.507 265.945 240.219 268.415C241.493 270.197 244.715 268.615 244.085 266.517C242.984 262.645 240.756 259.124 238.688 255.725C237.614 253.945 235.429 250.103 232.812 251.287C232.128 251.523 232.121 252.73 232.922 252.938Z" fill="#D9F6FF"/>
</svg>
