<svg width="16" height="14" viewBox="0 0 16 14" fill="none" xmlns="http://www.w3.org/2000/svg">
<path d="M0.282607 6.71437L3.96933 8.09037L5.39631 12.6795C5.48762 12.9735 5.84703 13.0821 6.08559 12.8871L8.14063 11.2118C8.35605 11.0362 8.66287 11.0275 8.88799 11.1909L12.5946 13.8819C12.8498 14.0674 13.2113 13.9276 13.2753 13.6192L15.9906 0.558373C16.0604 0.221519 15.7294 -0.059494 15.4087 0.0645593L0.278287 5.90141C-0.0950995 6.04541 -0.0918461 6.57405 0.282607 6.71437ZM5.16634 7.35789L12.3716 2.92019C12.5011 2.84067 12.6343 3.01576 12.5231 3.11891L6.57669 8.64637C6.36767 8.84093 6.23285 9.10131 6.19466 9.38392L5.9921 10.885C5.96527 11.0855 5.68373 11.1054 5.62842 10.9114L4.84938 8.17405C4.76015 7.86184 4.89018 7.52835 5.16634 7.35789Z" fill="#53AFE6"/>
</svg>
