<svg width="16" height="16" viewBox="0 0 16 16" fill="none" xmlns="http://www.w3.org/2000/svg">
<g clip-path="url(#clip0)">
<path d="M15.3373 10.8071C14.8609 10.2357 14.3003 9.74807 13.7699 9.23024C13.2913 8.76349 13.2612 8.49272 13.6458 7.954C14.0657 7.36604 14.5172 6.80063 14.9408 6.21532C15.3363 5.66831 15.7405 5.1228 15.9486 4.46785C16.0806 4.05117 15.9639 3.86712 15.5366 3.79416C15.463 3.78139 15.3869 3.78073 15.3119 3.78073L12.7768 3.77775C12.4646 3.7731 12.292 3.90923 12.1816 4.18597C12.0325 4.56004 11.8788 4.93377 11.7012 5.29474C11.2983 6.11318 10.8483 6.90426 10.2174 7.57413C10.0783 7.72187 9.92441 7.90857 9.69195 7.83164C9.40111 7.72552 9.31539 7.24633 9.3202 7.08433L9.31771 4.15828C9.26134 3.74027 9.16865 3.5539 8.75363 3.47266L6.12023 3.47315C5.76871 3.47315 5.59246 3.60895 5.40476 3.82882C5.29649 3.95583 5.26382 4.03823 5.48634 4.08035C5.92342 4.16325 6.16964 4.44613 6.23497 4.88436C6.33976 5.58458 6.33247 6.28761 6.27211 6.99065C6.25437 7.19592 6.21905 7.4007 6.13764 7.59237C6.0103 7.89365 5.8047 7.955 5.53459 7.76962C5.29002 7.60182 5.11824 7.36505 4.95011 7.12728C4.31854 6.23489 3.81464 5.27252 3.40377 4.26125C3.28505 3.96909 3.08027 3.79201 2.7707 3.7872C2.01013 3.77509 1.2494 3.7731 0.488826 3.78786C0.0311908 3.79648 -0.105271 4.01867 0.0810997 4.43353C0.909486 6.27617 1.83156 8.06758 3.03517 9.69949C3.65314 10.537 4.36265 11.2763 5.27924 11.8003C6.31804 12.3942 7.43627 12.573 8.61401 12.5179C9.1655 12.4921 9.33114 12.3486 9.35668 11.799C9.37392 11.4229 9.41653 11.049 9.60208 10.7111C9.78413 10.3795 10.0599 10.3163 10.3777 10.5226C10.5367 10.6259 10.6707 10.7574 10.7972 10.896C11.1076 11.2356 11.4069 11.5854 11.7291 11.9135C12.1332 12.3248 12.6119 12.5677 13.2137 12.5181L15.5437 12.5186C15.9191 12.494 16.1138 12.0338 15.8982 11.6148C15.7468 11.3213 15.5482 11.06 15.3373 10.8071Z" fill="#53AFE6"/>
</g>
<defs>
<clipPath id="clip0">
<rect width="16" height="16" fill="white"/>
</clipPath>
</defs>
</svg>
